<?xml version="1.0" standalone="no"?>
<!DOCTYPE svg PUBLIC "-//W3C//DTD SVG 1.1//EN" "http://www.w3.org/Graphics/SVG/1.1/DTD/svg11.dtd" >
<svg xmlns="http://www.w3.org/2000/svg" xmlns:xlink="http://www.w3.org/1999/xlink" version="1.1">
<metadata>
Created by FontForge 20170731 at Wed Feb 26 04:58:18 2020
 By Aleksey,,,
Copyright (c) 2020 by Alexander Slobzheninov. All rights reserved.
</metadata>
<defs>
<font id="RightGrotesk-TextBold" horiz-adv-x="0" >
  <font-face 
    font-family="Right Grotesk Text"
    font-weight="700"
    font-stretch="ultra-expanded"
    units-per-em="2048"
    panose-1="0 0 8 7 0 0 0 0 0 0"
    ascent="1638"
    descent="-410"
    x-height="1050"
    cap-height="1400"
    bbox="-725 -386 2228 1810"
    underline-thickness="123"
    underline-position="-322"
    unicode-range="U+0020-2BA7"
  />
<missing-glyph horiz-adv-x="875" 
d="M718 1400v-1750h-555v1750h555zM583 1283h-289v-58h114v-65h-116v-57h291v57h-116v65h116v58zM467 1057h-175v-182h291v60h-116v122zM408 998v-63h-58v63h58zM583 828h-291v-58h116v-65h-116v-57h175v122h116v58zM583 723h-58v-116h-233v-59h291v175zM583 509h-175v-98
h59v41h58v-83h-175v140h-58v-197h291v197zM583 207h-291v-198h291v198zM525 149v-82h-175v82h175zM583 -32h-291v-57h123l-123 -83v-57h291v57h-179l123 83h56v57z" />
    <glyph glyph-name=".notdef" horiz-adv-x="875" 
d="M718 1400v-1750h-555v1750h555zM583 1283h-289v-58h114v-65h-116v-57h291v57h-116v65h116v58zM467 1057h-175v-182h291v60h-116v122zM408 998v-63h-58v63h58zM583 828h-291v-58h116v-65h-116v-57h175v122h116v58zM583 723h-58v-116h-233v-59h291v175zM583 509h-175v-98
h59v41h58v-83h-175v140h-58v-197h291v197zM583 207h-291v-198h291v198zM525 149v-82h-175v82h175zM583 -32h-291v-57h123l-123 -83v-57h291v57h-179l123 83h56v57z" />
    <glyph glyph-name=".null" 
 />
    <glyph glyph-name="nonmarkingreturn" horiz-adv-x="682" 
 />
    <glyph glyph-name="space" unicode=" " horiz-adv-x="332" 
 />
    <glyph glyph-name="exclam" unicode="!" horiz-adv-x="474" 
d="M92 1400h291l-33 -1009h-225zM82 278h310v-278h-310v278z" />
    <glyph glyph-name="quotedbl" unicode="&#x22;" horiz-adv-x="691" 
d="M110 859l-38 541h237l-38 -541h-161zM420 859l-38 541h237l-38 -541h-161z" />
    <glyph glyph-name="numbersign" unicode="#" horiz-adv-x="1215" 
d="M1184 853h-207l-47 -300h191v-171h-217l-59 -382h-228l59 382h-235l-59 -382h-228l59 382h-182v171h208l47 300h-193v170h219l58 377h228l-58 -377h235l58 377h228l-58 -377h181v-170zM702 553l47 300h-235l-47 -300h235z" />
    <glyph glyph-name="dollar" unicode="$" horiz-adv-x="1094" 
d="M1038 388q0 -165 -94 -270t-264 -133v-215h-257v217q-178 30 -271.5 146t-94.5 317l249 43q8 -171 68.5 -245.5t196.5 -74.5q94 0 149 45.5t55 121.5q0 73 -50.5 124.5t-172.5 107.5l-158 72q-71 33 -119.5 64t-95 77.5t-69.5 110.5t-23 146q1 157 86 253t244 121v224
h257v-229q160 -32 242 -141t80 -289l-235 -40q-3 146 -60.5 216.5t-174.5 70.5q-87 0 -137 -40.5t-50 -108.5q0 -70 47.5 -118.5t175.5 -103.5l159 -69q55 -24 95.5 -46t85 -57t72 -74.5t46 -97t18.5 -125.5z" />
    <glyph glyph-name="percent" unicode="%" horiz-adv-x="1573" 
d="M388 723q-153 0 -239 85.5t-86 246.5v35q0 163 86 249t239 86q154 0 240 -86t86 -249v-35q0 -161 -86 -246.5t-240 -85.5zM262 0l816 1400h233l-816 -1400h-233zM388 861q50 0 82.5 43t32.5 124v91q0 81 -32 124.5t-83 43.5q-50 0 -82 -43.5t-32 -124.5v-91
q0 -81 32 -124t82 -43zM1184 -23q-154 0 -239.5 85.5t-85.5 246.5v35q0 163 85.5 248.5t239.5 85.5t240 -85.5t86 -248.5v-35q0 -161 -86 -246.5t-240 -85.5zM1184 115q50 0 82 43t32 124v91q0 82 -32 125t-82 43t-82 -43t-32 -125v-91q0 -81 32 -124t82 -43z" />
    <glyph glyph-name="ampersand" unicode="&#x26;" horiz-adv-x="1186" 
d="M463 -24q-193 0 -296.5 93t-103.5 268q0 127 61.5 223.5t195.5 181.5q-87 110 -125.5 194.5t-38.5 164.5q0 157 108.5 240t311.5 83q213 0 327 -81.5t115 -232.5q0 -63 -20 -112.5t-71 -99t-122.5 -95.5t-189.5 -109l207 -284q48 134 45 288l235 -52q-30 -260 -139 -427
l160 -219h-246l-68 92q-138 -116 -346 -116zM509 845q146 74 204 127t58 121q0 142 -189 142q-188 0 -188 -153q0 -48 26 -101t89 -136zM501 176q115 0 180 78l-240 336q-136 -92 -136 -222q0 -91 51 -141.5t145 -50.5z" />
    <glyph glyph-name="quotesingle" unicode="'" horiz-adv-x="381" 
d="M110 859l-38 541h237l-38 -541h-161z" />
    <glyph glyph-name="parenleft" unicode="(" horiz-adv-x="609" 
d="M593 1450q-126 -159 -193.5 -372.5t-67.5 -452.5t67.5 -452.5t193.5 -372.5h-261q-127 159 -194.5 372.5t-67.5 452.5t67.5 452.5t194.5 372.5h261z" />
    <glyph glyph-name="parenright" unicode=")" horiz-adv-x="609" 
d="M16 1450h262q126 -159 193.5 -372.5t67.5 -452.5t-67.5 -452.5t-193.5 -372.5h-262q126 159 194 372.5t68 452.5t-68 452.5t-194 372.5z" />
    <glyph glyph-name="asterisk" unicode="*" horiz-adv-x="835" 
d="M275 648l-164 119l190 212l-279 60l63 193l261 -116l-30 284h204l-30 -284l260 116l63 -193l-279 -60l191 -212l-165 -119l-142 247z" />
    <glyph glyph-name="plus" unicode="+" horiz-adv-x="982" 
d="M386 286v324h-318v205h318v325h210v-325h318v-205h-318v-324h-210z" />
    <glyph glyph-name="comma" unicode="," horiz-adv-x="455" 
d="M72 278h311v-227q0 -173 -72 -254.5t-232 -95.5l-26 118q92 14 131.5 54.5t39.5 126.5h-152v278z" />
    <glyph glyph-name="hyphen" unicode="-" horiz-adv-x="665" 
d="M68 648h529v-206h-529v206z" />
    <glyph glyph-name="period" unicode="." horiz-adv-x="455" 
d="M72 278h311v-278h-311v278z" />
    <glyph glyph-name="slash" unicode="/" horiz-adv-x="674" 
d="M0 -200l420 1650h254l-420 -1650h-254z" />
    <glyph glyph-name="zero" unicode="0" horiz-adv-x="1144" 
d="M573 -25q-250 0 -376.5 169t-126.5 502v107q0 333 126.5 502.5t376.5 169.5t376 -169.5t126 -502.5v-107q0 -333 -126 -502t-376 -169zM573 184q117 0 174 100.5t57 307.5v216q0 408 -231 408q-118 0 -175 -100.5t-57 -307.5v-216q0 -208 57 -308t175 -100z" />
    <glyph glyph-name="one" unicode="1" horiz-adv-x="709" 
d="M338 0v963h-303v173q61 2 99 4.5t76 8.5t59 13.5t41.5 22.5t30 31.5t18.5 45.5t13 60t7 78h225v-1400h-266z" />
    <glyph glyph-name="two" unicode="2" horiz-adv-x="1001" 
d="M60 0v179q305 226 454.5 431t149.5 409q0 101 -38.5 149.5t-118.5 48.5q-102 0 -146.5 -84t-35.5 -273l-256 33q-11 272 99.5 401.5t347.5 129.5q413 0 413 -386q0 -455 -513 -815l3 -13q83 6 169 6h346v-216h-874z" />
    <glyph glyph-name="three" unicode="3" horiz-adv-x="1063" 
d="M544 -24q-243 0 -365 118t-126 364l268 36q-1 -164 53.5 -242.5t165.5 -78.5q187 0 187 214v39q0 201 -193 209l-116 5v169l112 4q176 6 176 189v33q0 96 -45 144.5t-130 48.5q-103 0 -152.5 -73t-48.5 -225l-256 34q-1 234 114.5 347t349.5 113q211 0 319 -90.5
t108 -267.5v-24q0 -242 -216 -302v-18q253 -58 253 -329v-28q0 -192 -116 -290.5t-342 -98.5z" />
    <glyph glyph-name="four" unicode="4" horiz-adv-x="1051" 
d="M598 0v302h-559v155l451 943h374v-913h148v-185h-148v-302h-266zM301 487h297v423q0 125 7 236l-20 1q-37 -111 -83 -216z" />
    <glyph glyph-name="five" unicode="5" horiz-adv-x="1061" 
d="M540 -24q-233 0 -351.5 92.5t-127.5 288.5l266 36q8 -110 59 -162.5t146 -52.5q103 0 153 60.5t50 186.5v50q0 123 -48.5 183t-147.5 60q-155 0 -211 -149l-245 15l32 816h838v-216h-586l-18 -353q103 75 256 75q198 0 299 -107t101 -317v-58q0 -448 -465 -448z" />
    <glyph glyph-name="six" unicode="6" horiz-adv-x="1094" 
d="M558 1425q421 0 453 -415l-268 -41q-11 248 -192 248q-110 0 -165 -99t-55 -317v-41q122 114 307 114q188 0 285 -107.5t97 -316.5v-37q0 -437 -470 -437q-243 0 -362.5 146t-119.5 443v162q0 356 120.5 527t369.5 171zM552 686q-103 0 -152.5 -54t-49.5 -165v-43
q0 -118 52 -179t153 -61t150 56.5t49 175.5v36q0 119 -50 176.5t-152 57.5z" />
    <glyph glyph-name="seven" unicode="7" horiz-adv-x="919" 
d="M308 0q6 414 80.5 703t222.5 482h-576v216h849v-175q-156 -203 -232 -502t-77 -724h-267z" />
    <glyph glyph-name="eight" unicode="8" horiz-adv-x="1104" 
d="M552 -25q-491 0 -491 382v39q0 260 250 326v18q-213 69 -213 293v36q0 356 454 356q455 0 455 -356v-36q0 -223 -213 -293v-18q250 -67 250 -326v-39q0 -382 -492 -382zM552 816q197 0 197 188v41q0 188 -197 188t-197 -188v-41q0 -188 197 -188zM552 168q111 0 165 51
t54 156v47q0 106 -54 157t-165 51q-110 0 -164 -51t-54 -157v-47q0 -105 54 -156t164 -51z" />
    <glyph glyph-name="nine" unicode="9" horiz-adv-x="1095" 
d="M535 -25q-421 0 -452 415l267 41q13 -248 193 -248q110 0 165 99.5t55 316.5v41q-122 -114 -307 -114q-189 0 -285.5 107.5t-96.5 316.5v37q0 437 469 437q244 0 363.5 -146t119.5 -443v-162q0 -357 -120.5 -527.5t-370.5 -170.5zM542 714q202 0 202 219v43
q0 118 -52.5 179t-152.5 61q-102 0 -150.5 -56t-48.5 -176v-36q0 -119 49.5 -176.5t152.5 -57.5z" />
    <glyph glyph-name="colon" unicode=":" horiz-adv-x="455" 
d="M72 1050h311v-279h-311v279zM72 278h311v-278h-311v278z" />
    <glyph glyph-name="semicolon" unicode=";" horiz-adv-x="455" 
d="M72 1050h311v-278h-311v278zM72 278h311v-227q0 -173 -72 -254.5t-232 -95.5l-26 118q92 14 131.5 54.5t39.5 126.5h-152v278z" />
    <glyph glyph-name="less" unicode="&#x3c;" horiz-adv-x="875" 
d="M807 367l-739 183v300l739 183v-222l-258 -57q-114 -21 -294 -44v-20q151 -18 294 -44l258 -57v-222z" />
    <glyph glyph-name="equal" unicode="=" horiz-adv-x="874" 
d="M68 773v215h738v-215h-738zM68 413v216h738v-216h-738z" />
    <glyph glyph-name="greater" unicode="&#x3e;" horiz-adv-x="875" 
d="M68 367v222l258 57q143 26 294 44v20q-180 23 -294 44l-258 57v222l739 -183v-300z" />
    <glyph glyph-name="question" unicode="?" horiz-adv-x="938" 
d="M325 391q-29 60 -33.5 116t15 102.5t45.5 82t65 72.5l92 86q68 63 96 115t28 108q0 154 -146 154q-102 0 -142.5 -69.5t-26.5 -215.5l-270 34q-15 220 98.5 334t343.5 114q196 0 299.5 -88.5t103.5 -267.5q0 -106 -36.5 -180t-115.5 -151l-97 -95q-74 -72 -88.5 -129.5
t30.5 -109.5l-5 -12h-256zM301 278h311v-278h-311v278z" />
    <glyph glyph-name="at" unicode="@" horiz-adv-x="1764" 
d="M896 -355q-394 0 -610 211t-216 591v142q0 382 216 592.5t607 210.5q380 0 590.5 -210t210.5 -593v-130q0 -233 -94 -356t-278 -123q-133 0 -196.5 64t-56.5 188l-20 4q-66 -256 -324 -256q-124 0 -192 68.5t-68 191.5v11q0 66 20 119t51 88.5t80 64.5t95.5 46.5
t108.5 33.5l184 49v98q0 74 -30 109t-95 35q-76 0 -109.5 -52.5t-26.5 -165.5v-16l-259 25v14q-9 179 94.5 277t305.5 98q188 0 285 -81t97 -240v-497q0 -104 74 -104q65 0 100 77.5t35 223.5v133q0 299 -152 461t-430 162q-290 0 -447 -161t-157 -459v-142
q0 -295 158.5 -455t452.5 -160q240 0 471 81l45 -179q-107 -41 -245 -65t-275 -24zM823 169q81 0 132 64.5t51 168.5v83l-103 -31q-84 -25 -130 -66t-46 -107v-10q0 -102 96 -102z" />
    <glyph glyph-name="A" unicode="A" horiz-adv-x="1135" 
d="M17 0l382 1400h333l386 -1400h-282l-64 253h-432l-63 -253h-260zM386 447h341l-93 373q-42 175 -69 335h-20q-23 -161 -65 -334z" />
    <glyph glyph-name="B" unicode="B" horiz-adv-x="1107" 
d="M105 0v1400h517q395 0 395 -332v-28q0 -242 -223 -289v-19q265 -50 265 -327v-30q0 -186 -106.5 -280.5t-315.5 -94.5h-532zM371 822h200q92 0 137 42t45 129v31q0 85 -45 126t-137 41h-200v-369zM371 210h210q100 0 148.5 49t48.5 150v36q0 100 -48.5 149t-148.5 49
h-210v-433z" />
    <glyph glyph-name="C" unicode="C" horiz-adv-x="1153" 
d="M586 -25q-516 0 -516 672v106q0 333 129.5 502t385.5 169q470 0 489 -531l-255 -46q-2 193 -59.5 281.5t-173.5 88.5q-124 0 -184.5 -100.5t-60.5 -307.5v-217q0 -207 61 -307.5t186 -100.5q114 0 172.5 91t65.5 291l261 -61q-31 -530 -501 -530z" />
    <glyph glyph-name="D" unicode="D" horiz-adv-x="1146" 
d="M105 0v1400h428q275 0 409 -161t134 -491v-97q0 -329 -134 -490t-409 -161h-428zM371 211h151q147 0 215 88.5t68 280.5v239q0 193 -68 281.5t-215 88.5h-151v-978z" />
    <glyph glyph-name="E" unicode="E" horiz-adv-x="965" 
d="M371 217h536v-217h-802v1400h783v-216h-517v-362h474v-190h-474v-415z" />
    <glyph glyph-name="F" unicode="F" horiz-adv-x="925" 
d="M105 0v1400h767v-216h-501v-361h458v-201h-458v-622h-266z" />
    <glyph glyph-name="G" unicode="G" horiz-adv-x="1191" 
d="M501 -18q-213 0 -322 168.5t-109 499.5v107q0 332 133 500t395 168q446 0 480 -454l-255 -46q-6 153 -61.5 222t-162.5 69q-131 0 -194.5 -101.5t-63.5 -311.5v-187q0 -216 59 -320.5t180 -104.5q111 0 175.5 97.5t84.5 299.5h-285v208h536v-796h-237q-5 103 54 330
l-22 6q-60 -181 -151 -267.5t-234 -86.5z" />
    <glyph glyph-name="H" unicode="H" horiz-adv-x="1178" 
d="M806 1400h267v-1400h-267v627h-435v-627h-266v1400h266v-557h435v557z" />
    <glyph glyph-name="I" unicode="I" horiz-adv-x="476" 
d="M105 1400h266v-1400h-266v1400z" />
    <glyph glyph-name="J" unicode="J" horiz-adv-x="968" 
d="M460 -25q-413 0 -420 474l268 37q0 -165 37 -236t120 -71q69 0 102.5 44.5t33.5 139.5v1037h266v-1067q0 -173 -105.5 -265.5t-301.5 -92.5z" />
    <glyph glyph-name="K" unicode="K" horiz-adv-x="1075" 
d="M105 0v1400h266v-323q0 -165 -26 -300l19 -8l404 631h280l-365 -553l366 -847h-293l-255 639l-130 -184v-455h-266z" />
    <glyph glyph-name="L" unicode="L" horiz-adv-x="900" 
d="M105 0v1400h266v-1183h487v-217h-753z" />
    <glyph glyph-name="M" unicode="M" horiz-adv-x="1483" 
d="M105 0v1400h332l208 -640q59 -193 90 -370h17q35 188 90 370l203 640h334v-1400h-260l1 683q0 160 14 319l-20 2l-283 -1004h-182l-285 1005l-21 -2q14 -160 14 -320v-683h-252z" />
    <glyph glyph-name="N" unicode="N" horiz-adv-x="1199" 
d="M105 0v1400h300l343 -780q47 -105 87 -241l21 2q-19 188 -19 311v708h257v-1400h-300l-334 763q-59 143 -96 268l-20 -3q18 -180 18 -322v-706h-257z" />
    <glyph glyph-name="O" unicode="O" horiz-adv-x="1205" 
d="M603 -25q-533 0 -533 666v107q0 677 533 677q532 0 532 -677v-107q0 -666 -532 -666zM603 184q132 0 196.5 99t64.5 304v216q0 210 -64.5 311.5t-197.5 101.5q-132 0 -196.5 -102t-64.5 -311v-216q0 -204 65 -303.5t197 -99.5z" />
    <glyph glyph-name="P" unicode="P" horiz-adv-x="1059" 
d="M573 1400q441 0 441 -416v-44q0 -205 -111 -309t-330 -104h-202v-527h-266v1400h468zM546 733q105 0 155.5 50.5t50.5 154.5v49q0 105 -50.5 156t-155.5 51h-175v-461h175z" />
    <glyph glyph-name="Q" unicode="Q" horiz-adv-x="1205" 
d="M603 1425q532 0 532 -677v-107q0 -624 -466 -663q-1 -59 31 -84t111 -30l153 -8l-44 -217q-220 15 -321 101.5t-84 239.5q-445 51 -445 661v107q0 677 533 677zM864 587v216q0 210 -64.5 311.5t-197.5 101.5q-132 0 -196.5 -102t-64.5 -311v-216q0 -204 65 -303.5
t197 -99.5t196.5 99t64.5 304z" />
    <glyph glyph-name="R" unicode="R" horiz-adv-x="1112" 
d="M105 0v1400h483q213 0 324.5 -93.5t111.5 -269.5v-22q0 -131 -71.5 -211t-205.5 -97v-18q90 -27 131.5 -78.5t69.5 -172.5l37 -162q27 -116 53 -169.5t63 -80.5l-3 -26h-299q-24 36 -41 93.5t-40 173.5l-29 145q-22 111 -60 151.5t-125 40.5h-133v-604h-266zM371 805h190
q99 0 147.5 44t48.5 135v27q0 91 -48.5 134.5t-147.5 43.5h-190v-384z" />
    <glyph glyph-name="S" unicode="S" horiz-adv-x="1094" 
d="M559 -24q-243 0 -372 118.5t-130 355.5l249 43q8 -171 68.5 -245.5t196.5 -74.5q94 0 149 45.5t55 121.5q0 73 -50.5 124.5t-172.5 107.5l-158 72q-71 33 -119.5 64t-95 77.5t-69.5 110.5t-23 146q1 183 116.5 282.5t325.5 99.5q230 0 350 -113t117 -330l-235 -40
q-3 146 -60.5 216.5t-174.5 70.5q-87 0 -137 -40.5t-50 -108.5q0 -70 47.5 -118.5t175.5 -103.5l159 -69q55 -24 95.5 -46t85 -57t72 -74.5t46 -97t18.5 -125.5q0 -194 -127 -303t-352 -109z" />
    <glyph glyph-name="T" unicode="T" horiz-adv-x="975" 
d="M354 0v1184h-334v216h935v-216h-334v-1184h-267z" />
    <glyph glyph-name="U" unicode="U" horiz-adv-x="1170" 
d="M803 1400h266v-999q0 -210 -123 -318t-361 -108q-239 0 -362 108t-123 318v999h267v-980q0 -241 218 -241t218 241v980z" />
    <glyph glyph-name="V" unicode="V" horiz-adv-x="1107" 
d="M401 0l-384 1400h285l188 -751q34 -143 63 -352h21q25 193 62 352l187 751h266l-376 -1400h-312z" />
    <glyph glyph-name="W" unicode="W" horiz-adv-x="1551" 
d="M299 0l-279 1400h270l130 -719q29 -162 46 -386h23q18 221 44 386l123 719h248l127 -719q29 -179 45 -385h23q20 221 47 385l125 719h260l-272 -1400h-318l-93 528q-36 214 -61 454h-23q-24 -229 -60 -454l-93 -528h-312z" />
    <glyph glyph-name="X" unicode="X" horiz-adv-x="1078" 
d="M17 0l346 705l-324 695h296l154 -340q24 -58 45 -128h17q23 72 46 129l159 339h282l-337 -664l360 -736h-303l-171 382q-31 76 -50 134h-17q-23 -76 -48 -134l-169 -382h-286z" />
    <glyph glyph-name="Y" unicode="Y" horiz-adv-x="1054" 
d="M1037 1400l-376 -848v-552h-267v552l-377 848h284l147 -349q38 -94 77 -230h19q31 115 76 230l145 349h272z" />
    <glyph glyph-name="Z" unicode="Z" horiz-adv-x="923" 
d="M23 0l-4 11l437 1017q43 98 75 148l-7 13q-71 -5 -167 -5h-317v216h841l4 -11l-406 -988q-44 -105 -86 -177l7 -12q72 4 168 4h336v-216h-881z" />
    <glyph glyph-name="bracketleft" unicode="[" horiz-adv-x="595" 
d="M573 1234h-207v-1218h207v-216h-468v1650h468v-216z" />
    <glyph glyph-name="backslash" unicode="\" horiz-adv-x="674" 
d="M674 -200h-254l-420 1650h254z" />
    <glyph glyph-name="bracketright" unicode="]" horiz-adv-x="595" 
d="M22 1234v216h468v-1650h-468v216h207v1218h-207z" />
    <glyph glyph-name="asciicircum" unicode="^" horiz-adv-x="1147" 
d="M105 808l357 592h223l357 -592h-262l-111 178q-55 103 -85 183h-21q-34 -87 -86 -183l-110 -178h-262z" />
    <glyph glyph-name="underscore" unicode="_" horiz-adv-x="574" 
d="M0 -70h574v-180h-574v180z" />
    <glyph glyph-name="grave" unicode="`" horiz-adv-x="398" 
d="M254 1400l144 -260h-195l-203 260h254z" />
    <glyph glyph-name="a" unicode="a" horiz-adv-x="976" 
d="M313 -24q-123 0 -192 70t-69 193v8q0 66 20.5 119.5t52.5 89.5t81.5 65.5t96.5 47t109 33.5l184 49v98q0 75 -30 110.5t-95 35.5q-77 0 -111 -56t-27 -179l-257 25q-9 186 94 287.5t306 101.5q187 0 283.5 -81.5t96.5 -240.5v-511q0 -48 12 -64t47 -17l36 -2l-32 -178
q-19 -4 -52 -4q-143 0 -188.5 58t-19.5 198l-20 5q-67 -261 -326 -261zM413 169q81 0 132 65t51 169v83l-104 -31q-176 -53 -176 -176v-8q0 -50 25 -76t72 -26z" />
    <glyph glyph-name="b" unicode="b" horiz-adv-x="1019" 
d="M641 -16q-122 0 -198.5 64.5t-119.5 192.5l-21 -8q47 -153 50 -233h-259v1400h262v-277q0 -139 -52 -306l21 -9q87 258 317 258q155 0 234.5 -121t79.5 -359v-123q0 -237 -79.5 -358t-234.5 -121zM532 160q160 0 160 287v154q0 289 -160 289q-86 0 -131.5 -79t-45.5 -230
v-114q0 -150 45.5 -228.5t131.5 -78.5z" />
    <glyph glyph-name="c" unicode="c" horiz-adv-x="982" 
d="M494 -24q-431 0 -431 517v73q0 252 109 380t324 128q397 0 416 -413l-262 -28q-4 136 -42 198.5t-112 62.5q-164 0 -164 -283v-163q0 -291 166 -291q148 0 157 233v15l268 -30q-15 -201 -124 -300.5t-305 -98.5z" />
    <glyph glyph-name="d" unicode="d" horiz-adv-x="1019" 
d="M378 -16q-155 0 -234.5 121t-79.5 358v123q0 238 79.5 359t234.5 121q230 0 317 -258l21 9q-52 167 -52 306v277h262v-1400h-259q3 80 50 233l-21 8q-43 -128 -119.5 -192.5t-198.5 -64.5zM487 160q86 0 131.5 78.5t45.5 228.5v114q0 151 -45.5 230t-131.5 79
q-160 0 -160 -289v-154q0 -287 160 -287z" />
    <glyph glyph-name="e" unicode="e" horiz-adv-x="986" 
d="M671 368l250 -30q-18 -180 -128.5 -271t-298.5 -91q-209 0 -320 124t-111 359v129q0 236 113 361t327 125q202 0 309.5 -117.5t107.5 -336.5q0 -86 -7 -163h-590v-46q0 -256 177 -256q77 0 119.5 49.5t50.5 163.5h1zM500 894q-177 0 -177 -263v-3h336v46q0 220 -159 220z
" />
    <glyph glyph-name="f" unicode="f" horiz-adv-x="663" 
d="M167 0v859h-132v191h132v58q0 159 97 227.5t340 89.5l28 -197l-97 -6q-71 -4 -94 -26t-23 -82v-64h209v-191h-199v-859h-261z" />
    <glyph glyph-name="g" unicode="g" horiz-adv-x="947" 
d="M584 259q39 -5 69 -11t68.5 -17t66.5 -26t57.5 -38.5t48 -53.5t30 -72.5t11.5 -93.5q0 -165 -117.5 -243t-360.5 -78q-445 0 -445 245q0 178 183 215v16q-157 55 -157 180q0 139 172 170v17q-133 86 -133 271q0 162 102.5 248t294.5 86q78 0 143 -15q-32 134 36.5 220.5
t230.5 96.5l26 -233l-92 -9q-67 -5 -97.5 -28t-28.5 -71q178 -80 178 -295q0 -162 -102 -248t-294 -86q-94 0 -168 21q-73 -11 -73 -56q0 -37 39.5 -56.5t154.5 -34.5zM474 926q-68 0 -101 -45t-33 -141t32.5 -140.5t101.5 -44.5q68 0 100.5 45t32.5 140q0 96 -32.5 141
t-100.5 45zM472 -194q130 0 188.5 27t58.5 88q0 62 -48 88.5t-172 42.5l-159 19l-31 4q-60 -21 -85 -53.5t-25 -81.5q0 -70 64 -102t209 -32z" />
    <glyph glyph-name="h" unicode="h" horiz-adv-x="1007" 
d="M93 0v1400h262v-308q0 -129 -55 -288l20 -8q56 139 139.5 204.5t198.5 65.5q261 0 261 -270v-796h-262v739q0 142 -114 142q-85 0 -136.5 -88.5t-51.5 -235.5v-557h-262z" />
    <glyph glyph-name="i" unicode="i" horiz-adv-x="448" 
d="M84 1168v214h280v-214h-280zM93 0v1050h262v-1050h-262z" />
    <glyph glyph-name="j" unicode="j" horiz-adv-x="452" 
d="M88 1168v214h279v-214h-279zM-84 -374l-30 225l86 7q67 6 96 33t29 89v1070h262v-1010q0 -206 -111 -306t-332 -108z" />
    <glyph glyph-name="k" unicode="k" horiz-adv-x="924" 
d="M93 0v1400h262v-397q0 -192 -36 -366l16 -8l291 421h277l-271 -376l271 -674h-267l-184 504l-97 -125v-379h-262z" />
    <glyph glyph-name="l" unicode="l" horiz-adv-x="448" 
d="M93 1400h262v-1400h-262v1400z" />
    <glyph glyph-name="m" unicode="m" horiz-adv-x="1496" 
d="M93 0v1050h260q3 -79 -53 -243l19 -9q70 147 143 207.5t176 60.5q113 0 161.5 -71.5t20.5 -197.5l19 -7q53 144 133.5 210t195.5 66q121 0 180 -67.5t59 -207.5v-791h-262v745q0 135 -101 135q-76 0 -119 -86.5t-43 -226.5v-567h-262v744q0 65 -26 101t-74 36
q-75 0 -120 -87t-45 -231v-563h-262z" />
    <glyph glyph-name="n" unicode="n" horiz-adv-x="1007" 
d="M93 0v1050h259q-1 -94 -52 -246l20 -8q56 139 139.5 204.5t198.5 65.5q261 0 261 -270v-796h-262v740q0 69 -29.5 105.5t-84.5 36.5q-85 0 -136.5 -89t-51.5 -236v-557h-262z" />
    <glyph glyph-name="o" unicode="o" horiz-adv-x="999" 
d="M499 -25q-210 0 -323 133t-113 379v73q0 248 113 381.5t323 133.5q211 0 324 -133.5t113 -381.5v-73q0 -246 -113 -379t-324 -133zM499 157q168 0 168 287v162q0 287 -168 287q-167 0 -167 -287v-162q0 -287 167 -287z" />
    <glyph glyph-name="p" unicode="p" horiz-adv-x="1019" 
d="M641 1066q155 0 234.5 -121t79.5 -358v-123q0 -238 -79.5 -359t-234.5 -121q-230 0 -317 258l-21 -9q52 -167 52 -306v-277h-262v1400h259q-3 -80 -50 -233l21 -8q43 128 119.5 192.5t198.5 64.5zM532 890q-86 0 -131.5 -78.5t-45.5 -228.5v-114q0 -151 45.5 -230
t131.5 -79q160 0 160 289v154q0 287 -160 287z" />
    <glyph glyph-name="q" unicode="q" horiz-adv-x="1019" 
d="M378 1066q122 0 198.5 -64.5t119.5 -192.5l21 8q-47 153 -50 233h259v-1400h-262v277q0 139 52 306l-21 9q-87 -258 -317 -258q-155 0 -234.5 121t-79.5 359v123q0 237 79.5 358t234.5 121zM487 890q-160 0 -160 -287v-154q0 -289 160 -289q86 0 131.5 79t45.5 230v114
q0 150 -45.5 228.5t-131.5 78.5z" />
    <glyph glyph-name="r" unicode="r" horiz-adv-x="728" 
d="M93 0v1050h261q2 -53 -9 -103.5t-44 -143.5l19 -10q69 155 143.5 216.5t203.5 73.5l33 -238l-90 -8q-139 -12 -197 -92t-58 -275v-470h-262z" />
    <glyph glyph-name="s" unicode="s" horiz-adv-x="906" 
d="M465 -22q-199 0 -307 83.5t-110 245.5l249 46q-3 -202 167 -202q133 0 133 103q0 53 -38 89t-134 79l-125 55q-103 47 -167.5 120.5t-64.5 173.5q0 145 96.5 223t277.5 78q189 0 288 -77.5t100 -227.5l-244 -40q3 90 -32.5 131.5t-109.5 41.5q-61 0 -94 -23.5t-33 -68.5
q0 -48 37.5 -83.5t130.5 -74.5l124 -53q54 -23 93 -47t78 -61t59.5 -89.5t20.5 -119.5q0 -144 -103 -223t-292 -79z" />
    <glyph glyph-name="t" unicode="t" horiz-adv-x="721" 
d="M454 -23q-141 0 -211.5 73t-70.5 223v586h-137v191h137v231l262 78v-309h245v-191h-245v-555q0 -64 26 -92t82 -28q71 0 141 30l-15 -190q-91 -47 -214 -47z" />
    <glyph glyph-name="u" unicode="u" horiz-adv-x="1008" 
d="M914 1050v-1050h-259q3 98 52 246l-20 8q-56 -139 -139.5 -204.5t-198.5 -65.5q-261 0 -261 270v796h262v-740q0 -69 29.5 -105.5t84.5 -36.5q85 0 137 89.5t52 235.5v557h261z" />
    <glyph glyph-name="v" unicode="v" horiz-adv-x="914" 
d="M313 0l-301 1050h269l109 -438q42 -169 63 -330h20q20 140 63 330l106 438h260l-300 -1050h-289z" />
    <glyph glyph-name="w" unicode="w" horiz-adv-x="1372" 
d="M262 0l-248 1050h268l99 -527q21 -107 34 -242h20q13 123 35 242l99 527h244l105 -527q23 -116 35 -242h20q11 127 32 242l94 527h259l-247 -1050h-295l-79 438q-26 156 -42 306h-20q-13 -147 -40 -306l-78 -438h-295z" />
    <glyph glyph-name="x" unicode="x" horiz-adv-x="945" 
d="M12 0l305 529l-286 521h291l108 -229q17 -38 38 -99h15q13 42 38 98l111 230h281l-291 -502l311 -548h-297l-123 256q-22 50 -38 100h-15q-16 -49 -39 -100l-124 -256h-285z" />
    <glyph glyph-name="y" unicode="y" horiz-adv-x="909" 
d="M66 -374l-31 220l122 12q78 7 112.5 29t42.5 62l10 52l-310 1049h269l126 -551q27 -130 46 -292h20q18 155 46 292l122 551h256l-271 -987q-44 -162 -108 -252t-170.5 -133.5t-281.5 -51.5z" />
    <glyph glyph-name="z" unicode="z" horiz-adv-x="858" 
d="M40 0l-6 15l366 744q25 52 50 90l-6 12q-68 -2 -104 -2h-276v191h750l6 -15l-359 -737q-29 -58 -55 -96l7 -13q48 3 105 3h310v-192h-788z" />
    <glyph glyph-name="braceleft" unicode="{" horiz-adv-x="619" 
d="M597 1234h-66q-114 0 -114 -115v-293q0 -159 -127 -191v-20q127 -32 127 -191v-293q0 -115 114 -115h66v-216h-169q-273 0 -273 274v293q0 132 -125 156v204q125 24 125 156v293q0 274 272 274h170v-216z" />
    <glyph glyph-name="bar" unicode="|" horiz-adv-x="456" 
d="M105 -200v1650h246v-1650h-246z" />
    <glyph glyph-name="braceright" unicode="}" horiz-adv-x="619" 
d="M22 1234v216h170q272 0 272 -274v-293q0 -132 125 -156v-204q-125 -24 -125 -156v-293q0 -274 -273 -274h-169v216h66q114 0 114 115v293q0 159 127 191v20q-127 32 -127 191v293q0 115 -114 115h-66z" />
    <glyph glyph-name="asciitilde" unicode="~" horiz-adv-x="896" 
d="M626 545q-52 0 -117 26.5t-120.5 53.5t-83.5 27q-65 0 -70 -108h-167q11 316 211 316q52 0 115.5 -27t117.5 -53.5t83 -26.5q61 0 67 101h166q-12 -309 -202 -309z" />
    <glyph glyph-name="exclamdown" unicode="&#xa1;" horiz-adv-x="474" 
d="M392 772h-310v278h310v-278zM382 -350h-291l33 1009h225z" />
    <glyph glyph-name="cent" unicode="&#xa2;" horiz-adv-x="982" 
d="M923 375q-24 -326 -297 -386v-219h-256v219q-307 69 -307 504v73q0 425 307 495v223h256v-223q270 -61 286 -400l-262 -28q-4 136 -42 198.5t-112 62.5q-164 0 -164 -283v-163q0 -291 166 -291q148 0 157 233v15z" />
    <glyph glyph-name="sterling" unicode="&#xa3;" horiz-adv-x="1092" 
d="M32 0v165q78 48 110 122.5t32 203.5v84h-136v186h136v247q0 202 114 309t329 107q211 0 317.5 -110t105.5 -328l-234 -39q2 145 -44.5 212.5t-149.5 67.5q-182 0 -182 -210v-256h486v-186h-486v-79q0 -97 -18 -156.5t-62 -113.5l5 -13q53 3 151 3h550v-216h-1024z" />
    <glyph glyph-name="currency" unicode="&#xa4;" horiz-adv-x="1127" 
d="M175 167l-144 144l181 182q-58 95 -58 209t56 207l-179 180l144 144l179 -180q92 54 204 54q118 0 210 -59l184 185l144 -144l-185 -185q52 -91 52 -202q0 -112 -54 -203l187 -188l-144 -144l-187 188q-90 -56 -207 -56q-109 0 -200 51zM558 499q89 0 147 57.5t58 145.5
q0 89 -58 147t-147 58t-146.5 -58t-57.5 -147q0 -88 57.5 -145.5t146.5 -57.5z" />
    <glyph glyph-name="yen" unicode="&#xa5;" horiz-adv-x="1054" 
d="M1037 1400l-334 -754h216v-159h-258v-85h258v-159h-258v-243h-267v243h-258v159h258v85h-258v159h216l-335 754h284l147 -349q38 -94 77 -230h19q31 115 76 230l145 349h272z" />
    <glyph glyph-name="brokenbar" unicode="&#xa6;" horiz-adv-x="456" 
d="M105 705v745h246v-745h-246zM351 545v-745h-246v745h246z" />
    <glyph glyph-name="section" unicode="&#xa7;" horiz-adv-x="1024" 
d="M524 -24q-464 0 -468 339l253 22q-1 -101 54 -149.5t169 -48.5q77 0 119.5 27t42.5 78q0 50 -42 82t-156 66l-154 46q-127 38 -195 96.5t-68 156.5q0 170 191 209v15q-90 45 -131.5 101t-41.5 134q0 134 101.5 204t303.5 70q219 0 328 -76t108 -230l-229 -24
q2 87 -50 128.5t-159 41.5q-73 0 -112.5 -25.5t-39.5 -72.5q0 -45 35.5 -74t148.5 -62l160 -47q132 -39 203.5 -99.5t71.5 -162.5q0 -162 -186 -207v-17q187 -90 187 -240q0 -139 -112 -210t-332 -71zM575 583q60 12 93 41t33 71q0 52 -47.5 83.5t-191.5 67.5
q-60 -12 -92.5 -41.5t-32.5 -74.5q0 -51 47.5 -81.5t190.5 -65.5z" />
    <glyph glyph-name="dieresis" unicode="&#xa8;" horiz-adv-x="601" 
d="M0 1168v214h242v-214h-242zM359 1168v214h242v-214h-242z" />
    <glyph glyph-name="copyright" unicode="&#xa9;" horiz-adv-x="1812" 
d="M906 -353q-396 0 -616 221t-220 618v77q0 398 220 619t616 221t616 -221t220 -619v-77q0 -397 -220 -618t-616 -221zM906 -175q290 0 452.5 174.5t162.5 486.5v77q0 312 -162.5 487t-452.5 175t-452.5 -175t-162.5 -487v-77q0 -312 162.5 -486.5t452.5 -174.5zM903 -24
q-431 0 -431 517v73q0 252 109 380t324 128q397 0 416 -413l-262 -28q-4 136 -42 198.5t-112 62.5q-164 0 -164 -283v-163q0 -291 166 -291q148 0 157 233v15l268 -30q-15 -201 -124 -300.5t-305 -98.5z" />
    <glyph glyph-name="guillemotleft" unicode="&#xab;" horiz-adv-x="1005" 
d="M344 100l-281 425l281 425h227l-273 -425l273 -425h-227zM715 100l-280 425l281 425h226l-273 -425l273 -425h-227z" />
    <glyph glyph-name="logicalnot" unicode="&#xac;" horiz-adv-x="874" 
d="M577 409v306h-509v216h738v-522h-229z" />
    <glyph glyph-name="registered" unicode="&#xae;" horiz-adv-x="1136" 
d="M568 389q-217 0 -357.5 139.5t-140.5 354.5v37q0 216 140 355t358 139t358 -139t140 -355v-37q0 -215 -140.5 -354.5t-357.5 -139.5zM568 530q157 0 252 96.5t95 256.5v37q0 160 -95 256.5t-252 96.5t-252 -96.5t-95 -256.5v-37q0 -160 95 -256.5t252 -96.5zM372 634v546
h233q175 0 175 -141v-9q0 -104 -117 -116v-12q36 -11 52.5 -30.5t26.5 -66.5l14 -63q16 -73 40 -92l-6 -16h-143q-15 23 -31 105l-11 57q-8 41 -20.5 53t-41.5 12h-29v-227h-142zM514 958h48q78 0 78 57v7q0 52 -71 52h-55v-116z" />
    <glyph glyph-name="macron" unicode="&#xaf;" horiz-adv-x="553" 
d="M0 1173v163h553v-163h-553z" />
    <glyph glyph-name="degree" unicode="&#xb0;" horiz-adv-x="810" 
d="M405 729q-150 0 -246 94t-96 241v21q0 147 96 241t246 94t246 -94t96 -241v-21q0 -147 -96 -241t-246 -94zM405 907q68 0 111.5 44t43.5 113v21q0 69 -43.5 113t-111.5 44t-111.5 -44t-43.5 -113v-21q0 -69 43.5 -113t111.5 -44z" />
    <glyph glyph-name="plusminus" unicode="&#xb1;" horiz-adv-x="982" 
d="M386 535v238h-318v205h318v238h210v-238h318v-205h-318v-238h-210zM68 254v205h846v-205h-846z" />
    <glyph glyph-name="acute" unicode="&#xb4;" horiz-adv-x="398" 
d="M144 1400h254l-202 -260h-196z" />
    <glyph glyph-name="paragraph" unicode="&#xb6;" horiz-adv-x="1494" 
d="M573 -350v776q-231 0 -367 132t-136 356q0 225 143 355.5t402 130.5h809v-217h-164v-1533h-241v1533h-206v-1533h-240z" />
    <glyph glyph-name="periodcentered" unicode="&#xb7;" horiz-adv-x="455" 
d="M72 674h311v-278h-311v278z" />
    <glyph glyph-name="cedilla" unicode="&#xb8;" horiz-adv-x="364" 
d="M168 -374q-84 0 -168 42l23 128q62 -39 130 -39q34 0 53 13t19 36q0 60 -179 65l20 139h147l-11 -86q162 -24 162 -145q0 -72 -52 -112.5t-144 -40.5z" />
    <glyph glyph-name="guillemotright" unicode="&#xbb;" horiz-adv-x="1006" 
d="M290 100h-227l273 425l-273 425h227l281 -425zM662 100h-227l273 425l-273 425h226l281 -425z" />
    <glyph glyph-name="onequarter" unicode="&#xbc;" horiz-adv-x="1899" 
d="M56 534v164h238v405h-220v135q70 2 108 6.5t68.5 13t43.5 28t20.5 44.5t11.5 70h178v-702h186v-164h-634zM510 0l737 1400h218l-738 -1400h-217zM1547 0v155h-364v125l274 586h302v-566h81v-145h-81v-155h-212zM1379 300h168v223q0 58 5 158l-15 1q-20 -80 -46 -144z" />
    <glyph glyph-name="onehalf" unicode="&#xbd;" horiz-adv-x="1951" 
d="M56 534v164h238v405h-220v135q70 2 108 6.5t68.5 13t43.5 28t20.5 44.5t11.5 70h178v-702h186v-164h-634zM510 0l737 1400h218l-738 -1400h-217zM1273 0v137q201 142 297.5 260t96.5 231q0 98 -86 98q-56 0 -79 -47t-19 -150l-207 20q-8 171 67.5 252t244.5 81
q290 0 290 -242q1 -138 -78.5 -250.5t-244.5 -221.5l2 -9q36 4 100 4h221v-163h-605z" />
    <glyph glyph-name="threequarters" unicode="&#xbe;" horiz-adv-x="1876" 
d="M377 517q-327 0 -327 307l212 21q0 -181 119 -181q99 0 99 116v21q0 107 -109 112l-67 3v128l67 2q99 4 99 98v15q0 108 -97 108q-109 0 -106 -165l-205 20q-1 146 78 219.5t236 73.5q148 0 224 -59.5t76 -173.5v-13q0 -142 -133 -178v-13q154 -34 154 -201v-18
q0 -116 -82.5 -179t-237.5 -63zM487 0l737 1400h218l-738 -1400h-217zM1524 0v155h-364v125l274 586h302v-566h81v-145h-81v-155h-212zM1356 300h168v223q0 58 5 158l-15 1q-20 -80 -46 -144z" />
    <glyph glyph-name="questiondown" unicode="&#xbf;" horiz-adv-x="938" 
d="M637 772h-311v278h311v-278zM614 659q29 -60 33.5 -116t-15.5 -102.5t-46 -82t-65 -72.5l-92 -86q-68 -63 -95.5 -115t-27.5 -108q0 -154 145 -154q102 0 143 69.5t27 215.5l270 -34q14 -220 -99 -334t-343 -114q-197 0 -300.5 88.5t-103.5 267.5q0 106 36.5 180
t115.5 151l98 95q74 72 88.5 129t-30.5 110l4 12h257z" />
    <glyph glyph-name="Agrave" unicode="&#xc0;" horiz-adv-x="1135" 
d="M668 1490h-203l-172 191h256zM17 0l382 1400h333l386 -1400h-282l-64 253h-432l-63 -253h-260zM386 447h341l-93 373q-42 175 -69 335h-20q-23 -161 -65 -334z" />
    <glyph glyph-name="Aacute" unicode="&#xc1;" horiz-adv-x="1135" 
d="M467 1490l118 191h257l-172 -191h-203zM17 0l382 1400h333l386 -1400h-282l-64 253h-432l-63 -253h-260zM386 447h341l-93 373q-42 175 -69 335h-20q-23 -161 -65 -334z" />
    <glyph glyph-name="Acircumflex" unicode="&#xc2;" horiz-adv-x="1135" 
d="M254 1490l196 191h237l195 -191h-204l-110 85l-109 -85h-205zM17 0l382 1400h333l386 -1400h-282l-64 253h-432l-63 -253h-260zM386 447h341l-93 373q-42 175 -69 335h-20q-23 -161 -65 -334z" />
    <glyph glyph-name="Atilde" unicode="&#xc3;" horiz-adv-x="1135" 
d="M706 1486q-48 0 -102 22t-97 43.5t-63 21.5q-28 0 -41 -19t-16 -62h-136q4 110 52 166.5t135 56.5q49 0 101.5 -21.5t94 -43.5t62.5 -22q26 0 38 19t15 62h136q-4 -109 -51 -166t-128 -57zM17 0l382 1400h333l386 -1400h-282l-64 253h-432l-63 -253h-260zM386 447h341
l-93 373q-42 175 -69 335h-20q-23 -161 -65 -334z" />
    <glyph glyph-name="Adieresis" unicode="&#xc4;" horiz-adv-x="1135" 
d="M268 1500v214h242v-214h-242zM627 1500v214h242v-214h-242zM17 0l382 1400h333l386 -1400h-282l-64 253h-432l-63 -253h-260zM386 447h341l-93 373q-42 175 -69 335h-20q-23 -161 -65 -334z" />
    <glyph glyph-name="Aring" unicode="&#xc5;" horiz-adv-x="1135" 
d="M568 1462q-108 0 -168.5 46t-60.5 128t60.5 128t168.5 46t168.5 -46t60.5 -128t-60.5 -128t-168.5 -46zM568 1572q38 0 59 17t21 47t-21 47.5t-59 17.5t-59 -17.5t-21 -47.5t21 -47t59 -17zM17 0l382 1400h333l386 -1400h-282l-64 253h-432l-63 -253h-260zM386 447h341
l-93 373q-42 175 -69 335h-20q-23 -161 -65 -334z" />
    <glyph glyph-name="AE" unicode="&#xc6;" horiz-adv-x="1529" 
d="M17 0l503 1400h932v-216h-491v-362h448v-190h-448v-415h510v-217h-777v253h-323l-93 -253h-261zM433 448h261v746h-20q-22 -100 -62 -230z" />
    <glyph glyph-name="Ccedilla" unicode="&#xc7;" horiz-adv-x="1153" 
d="M1087 505q-28 -488 -430 -527l-7 -54q162 -24 162 -145q0 -72 -52 -112.5t-144 -40.5q-84 0 -168 42l23 128q62 -39 130 -39q34 0 53 13t19 36q0 60 -179 65l16 108q-440 48 -440 668v106q0 333 129.5 502t385.5 169q470 0 489 -531l-255 -46q-2 193 -59.5 281.5
t-173.5 88.5q-124 0 -184.5 -100.5t-60.5 -307.5v-217q0 -207 61 -307.5t186 -100.5q114 0 172.5 91t65.5 291z" />
    <glyph glyph-name="Egrave" unicode="&#xc8;" horiz-adv-x="965" 
d="M602 1490h-203l-172 191h256zM371 217h536v-217h-802v1400h783v-216h-517v-362h474v-190h-474v-415z" />
    <glyph glyph-name="Eacute" unicode="&#xc9;" horiz-adv-x="965" 
d="M401 1490l118 191h257l-172 -191h-203zM371 217h536v-217h-802v1400h783v-216h-517v-362h474v-190h-474v-415z" />
    <glyph glyph-name="Ecircumflex" unicode="&#xca;" horiz-adv-x="965" 
d="M187 1490l196 191h237l195 -191h-204l-110 85l-109 -85h-205zM371 217h536v-217h-802v1400h783v-216h-517v-362h474v-190h-474v-415z" />
    <glyph glyph-name="Edieresis" unicode="&#xcb;" horiz-adv-x="965" 
d="M201 1500v214h242v-214h-242zM560 1500v214h242v-214h-242zM371 217h536v-217h-802v1400h783v-216h-517v-362h474v-190h-474v-415z" />
    <glyph glyph-name="Igrave" unicode="&#xcc;" horiz-adv-x="476" 
d="M339 1490h-203l-172 191h256zM105 1400h266v-1400h-266v1400z" />
    <glyph glyph-name="Iacute" unicode="&#xcd;" horiz-adv-x="476" 
d="M138 1490l118 191h257l-172 -191h-203zM105 1400h266v-1400h-266v1400z" />
    <glyph glyph-name="Icircumflex" unicode="&#xce;" horiz-adv-x="476" 
d="M24 1490l110 190h210l110 -190h-150l-65 87l-66 -87h-149zM105 1400h266v-1400h-266v1400z" />
    <glyph glyph-name="Idieresis" unicode="&#xcf;" horiz-adv-x="476" 
d="M24 1499v217h183v-217h-183zM269 1499v217h183v-217h-183zM105 1400h266v-1400h-266v1400z" />
    <glyph glyph-name="Eth" unicode="&#xd0;" horiz-adv-x="1158" 
d="M545 1400q275 0 409 -161t134 -491v-97q0 -329 -134 -490t-409 -161h-429v646h-93v185h93v569h429zM817 580v239q0 193 -68 281.5t-216 88.5h-150v-358h243v-185h-243v-435h150q148 0 216 88t68 281z" />
    <glyph glyph-name="Ntilde" unicode="&#xd1;" horiz-adv-x="1199" 
d="M737 1486q-48 0 -102 22t-97 43.5t-63 21.5q-28 0 -41 -19t-16 -62h-136q4 110 52 166.5t135 56.5q49 0 101.5 -21.5t94 -43.5t62.5 -22q26 0 38 19t15 62h136q-4 -109 -51 -166t-128 -57zM105 0v1400h300l343 -780q47 -105 87 -241l21 2q-19 188 -19 311v708h257v-1400
h-300l-334 763q-59 143 -96 268l-20 -3q18 -180 18 -322v-706h-257z" />
    <glyph glyph-name="Ograve" unicode="&#xd2;" horiz-adv-x="1205" 
d="M703 1490h-203l-172 191h256zM603 -25q-533 0 -533 666v107q0 677 533 677q532 0 532 -677v-107q0 -666 -532 -666zM603 184q132 0 196.5 99t64.5 304v216q0 210 -64.5 311.5t-197.5 101.5q-132 0 -196.5 -102t-64.5 -311v-216q0 -204 65 -303.5t197 -99.5z" />
    <glyph glyph-name="Oacute" unicode="&#xd3;" horiz-adv-x="1205" 
d="M502 1490l118 191h257l-172 -191h-203zM603 -25q-533 0 -533 666v107q0 677 533 677q532 0 532 -677v-107q0 -666 -532 -666zM603 184q132 0 196.5 99t64.5 304v216q0 210 -64.5 311.5t-197.5 101.5q-132 0 -196.5 -102t-64.5 -311v-216q0 -204 65 -303.5t197 -99.5z" />
    <glyph glyph-name="Ocircumflex" unicode="&#xd4;" horiz-adv-x="1205" 
d="M289 1490l196 191h237l195 -191h-204l-110 85l-109 -85h-205zM603 -25q-533 0 -533 666v107q0 677 533 677q532 0 532 -677v-107q0 -666 -532 -666zM603 184q132 0 196.5 99t64.5 304v216q0 210 -64.5 311.5t-197.5 101.5q-132 0 -196.5 -102t-64.5 -311v-216
q0 -204 65 -303.5t197 -99.5z" />
    <glyph glyph-name="Otilde" unicode="&#xd5;" horiz-adv-x="1205" 
d="M741 1486q-48 0 -102 22t-97 43.5t-63 21.5q-28 0 -41 -19t-16 -62h-136q4 110 52 166.5t135 56.5q49 0 101.5 -21.5t94 -43.5t62.5 -22q26 0 38 19t15 62h136q-4 -109 -51 -166t-128 -57zM603 -25q-533 0 -533 666v107q0 677 533 677q532 0 532 -677v-107
q0 -666 -532 -666zM603 184q132 0 196.5 99t64.5 304v216q0 210 -64.5 311.5t-197.5 101.5q-132 0 -196.5 -102t-64.5 -311v-216q0 -204 65 -303.5t197 -99.5z" />
    <glyph glyph-name="Odieresis" unicode="&#xd6;" horiz-adv-x="1205" 
d="M303 1500v214h242v-214h-242zM662 1500v214h242v-214h-242zM603 -25q-533 0 -533 666v107q0 677 533 677q532 0 532 -677v-107q0 -666 -532 -666zM603 184q132 0 196.5 99t64.5 304v216q0 210 -64.5 311.5t-197.5 101.5q-132 0 -196.5 -102t-64.5 -311v-216
q0 -204 65 -303.5t197 -99.5z" />
    <glyph glyph-name="multiply" unicode="&#xd7;" horiz-adv-x="957" 
d="M214 285l-151 152l264 263l-260 261l151 151l261 -260l264 264l151 -152l-263 -264l259 -261l-150 -151l-261 261z" />
    <glyph glyph-name="Oslash" unicode="&#xd8;" horiz-adv-x="1216" 
d="M1005 1262q141 -170 141 -514v-107q0 -330 -135.5 -498t-402.5 -168q-146 0 -250 49l-65 -124h-206l124 237q-141 167 -141 504v107q0 335 135.5 506t402.5 171q142 0 250 -50l65 125h206zM341 588q0 -98 15 -173l397 760q-58 43 -145 43q-135 0 -201 -102.5t-66 -313.5
v-214zM875 588v214q0 107 -16 181l-397 -759q58 -42 146 -42q135 0 201 100.5t66 305.5z" />
    <glyph glyph-name="Ugrave" unicode="&#xd9;" horiz-adv-x="1170" 
d="M686 1490h-203l-172 191h256zM803 1400h266v-999q0 -210 -123 -318t-361 -108q-239 0 -362 108t-123 318v999h267v-980q0 -241 218 -241t218 241v980z" />
    <glyph glyph-name="Uacute" unicode="&#xda;" horiz-adv-x="1170" 
d="M485 1490l118 191h257l-172 -191h-203zM803 1400h266v-999q0 -210 -123 -318t-361 -108q-239 0 -362 108t-123 318v999h267v-980q0 -241 218 -241t218 241v980z" />
    <glyph glyph-name="Ucircumflex" unicode="&#xdb;" horiz-adv-x="1170" 
d="M271 1490l196 191h237l195 -191h-204l-110 85l-109 -85h-205zM803 1400h266v-999q0 -210 -123 -318t-361 -108q-239 0 -362 108t-123 318v999h267v-980q0 -241 218 -241t218 241v980z" />
    <glyph glyph-name="Udieresis" unicode="&#xdc;" horiz-adv-x="1170" 
d="M285 1500v214h242v-214h-242zM644 1500v214h242v-214h-242zM803 1400h266v-999q0 -210 -123 -318t-361 -108q-239 0 -362 108t-123 318v999h267v-980q0 -241 218 -241t218 241v980z" />
    <glyph glyph-name="Yacute" unicode="&#xdd;" horiz-adv-x="1054" 
d="M431 1490l118 191h257l-172 -191h-203zM1037 1400l-376 -848v-552h-267v552l-377 848h284l147 -349q38 -94 77 -230h19q31 115 76 230l145 349h272z" />
    <glyph glyph-name="Thorn" unicode="&#xde;" horiz-adv-x="1059" 
d="M105 0v1400h266v-237h202q441 0 441 -416v-44q0 -205 -111 -309t-330 -104h-202v-290h-266zM371 496h175q104 0 155 50.5t51 154.5v48q0 106 -51 157t-155 51h-175v-461z" />
    <glyph glyph-name="germandbls" unicode="&#xdf;" horiz-adv-x="1000" 
d="M628 -10q-145 0 -215 87l67 166q46 -79 122 -79q49 0 75 26.5t26 76.5q0 43 -21.5 84t-71.5 107l-61 78q-93 120 -93 217q0 52 23 97.5t56 78t65.5 62t55.5 63.5t23 69q0 119 -154 119q-171 0 -171 -188v-1054h-261v1042q0 185 110.5 283.5t319.5 98.5q189 0 291.5 -74
t102.5 -203q0 -51 -22.5 -95.5t-55 -76.5t-64.5 -61.5t-54.5 -63.5t-22.5 -69q0 -38 18 -73t66 -95l61 -76q54 -67 83.5 -131t29.5 -144q0 -132 -84 -202t-244 -70z" />
    <glyph glyph-name="agrave" unicode="&#xe0;" horiz-adv-x="976" 
d="M427 1400l144 -260h-195l-203 260h254zM313 -24q-123 0 -192 70t-69 193v8q0 66 20.5 119.5t52.5 89.5t81.5 65.5t96.5 47t109 33.5l184 49v98q0 75 -30 110.5t-95 35.5q-77 0 -111 -56t-27 -179l-257 25q-9 186 94 287.5t306 101.5q187 0 283.5 -81.5t96.5 -240.5v-511
q0 -48 12 -64t47 -17l36 -2l-32 -178q-19 -4 -52 -4q-143 0 -188.5 58t-19.5 198l-20 5q-67 -261 -326 -261zM413 169q81 0 132 65t51 169v83l-104 -31q-176 -53 -176 -176v-8q0 -50 25 -76t72 -26z" />
    <glyph glyph-name="aacute" unicode="&#xe1;" horiz-adv-x="976" 
d="M515 1400h254l-202 -260h-196zM313 -24q-123 0 -192 70t-69 193v8q0 66 20.5 119.5t52.5 89.5t81.5 65.5t96.5 47t109 33.5l184 49v98q0 75 -30 110.5t-95 35.5q-77 0 -111 -56t-27 -179l-257 25q-9 186 94 287.5t306 101.5q187 0 283.5 -81.5t96.5 -240.5v-511
q0 -48 12 -64t47 -17l36 -2l-32 -178q-19 -4 -52 -4q-143 0 -188.5 58t-19.5 198l-20 5q-67 -261 -326 -261zM413 169q81 0 132 65t51 169v83l-104 -31q-176 -53 -176 -176v-8q0 -50 25 -76t72 -26z" />
    <glyph glyph-name="acircumflex" unicode="&#xe2;" horiz-adv-x="976" 
d="M163 1140l192 260h232l193 -260h-195l-113 120l-114 -120h-195zM313 -24q-123 0 -192 70t-69 193v8q0 66 20.5 119.5t52.5 89.5t81.5 65.5t96.5 47t109 33.5l184 49v98q0 75 -30 110.5t-95 35.5q-77 0 -111 -56t-27 -179l-257 25q-9 186 94 287.5t306 101.5
q187 0 283.5 -81.5t96.5 -240.5v-511q0 -48 12 -64t47 -17l36 -2l-32 -178q-19 -4 -52 -4q-143 0 -188.5 58t-19.5 198l-20 5q-67 -261 -326 -261zM413 169q81 0 132 65t51 169v83l-104 -31q-176 -53 -176 -176v-8q0 -50 25 -76t72 -26z" />
    <glyph glyph-name="atilde" unicode="&#xe3;" horiz-adv-x="976" 
d="M619 1172q-48 0 -103.5 23t-99.5 46.5t-64 23.5q-28 0 -41 -20t-16 -67h-141q5 123 46.5 183.5t129.5 60.5q38 0 81 -14.5t73 -32t61 -32t49 -14.5q26 0 38 20t15 67h140q-9 -244 -168 -244zM313 -24q-123 0 -192 70t-69 193v8q0 66 20.5 119.5t52.5 89.5t81.5 65.5
t96.5 47t109 33.5l184 49v98q0 75 -30 110.5t-95 35.5q-77 0 -111 -56t-27 -179l-257 25q-9 186 94 287.5t306 101.5q187 0 283.5 -81.5t96.5 -240.5v-511q0 -48 12 -64t47 -17l36 -2l-32 -178q-19 -4 -52 -4q-143 0 -188.5 58t-19.5 198l-20 5q-67 -261 -326 -261zM413 169
q81 0 132 65t51 169v83l-104 -31q-176 -53 -176 -176v-8q0 -50 25 -76t72 -26z" />
    <glyph glyph-name="adieresis" unicode="&#xe4;" horiz-adv-x="976" 
d="M171 1168v214h242v-214h-242zM530 1168v214h242v-214h-242zM313 -24q-123 0 -192 70t-69 193v8q0 66 20.5 119.5t52.5 89.5t81.5 65.5t96.5 47t109 33.5l184 49v98q0 75 -30 110.5t-95 35.5q-77 0 -111 -56t-27 -179l-257 25q-9 186 94 287.5t306 101.5
q187 0 283.5 -81.5t96.5 -240.5v-511q0 -48 12 -64t47 -17l36 -2l-32 -178q-19 -4 -52 -4q-143 0 -188.5 58t-19.5 198l-20 5q-67 -261 -326 -261zM413 169q81 0 132 65t51 169v83l-104 -31q-176 -53 -176 -176v-8q0 -50 25 -76t72 -26z" />
    <glyph glyph-name="aring" unicode="&#xe5;" horiz-adv-x="976" 
d="M472 1134q-104 0 -167.5 60.5t-63.5 158.5t63.5 158.5t167.5 60.5t167.5 -60.5t63.5 -158.5t-63.5 -158.5t-167.5 -60.5zM472 1268q37 0 61 24t24 61t-24 61t-61 24t-61 -24t-24 -61t23.5 -61t61.5 -24zM313 -24q-123 0 -192 70t-69 193v8q0 66 20.5 119.5t52.5 89.5
t81.5 65.5t96.5 47t109 33.5l184 49v98q0 75 -30 110.5t-95 35.5q-77 0 -111 -56t-27 -179l-257 25q-9 186 94 287.5t306 101.5q187 0 283.5 -81.5t96.5 -240.5v-511q0 -48 12 -64t47 -17l36 -2l-32 -178q-19 -4 -52 -4q-143 0 -188.5 58t-19.5 198l-20 5
q-67 -261 -326 -261zM413 169q81 0 132 65t51 169v83l-104 -31q-176 -53 -176 -176v-8q0 -50 25 -76t72 -26z" />
    <glyph glyph-name="ae" unicode="&#xe6;" horiz-adv-x="1509" 
d="M1030 156q73 0 114.5 49.5t49.5 162.5l250 -30q-18 -179 -127 -270.5t-292 -91.5q-320 0 -366 260h-18q-58 -260 -328 -260q-123 0 -192 70t-69 193v11q0 81 29 142t84 101t111.5 64t135.5 45l184 49v98q0 75 -30 110.5t-96 35.5q-77 0 -111 -55.5t-28 -179.5l-257 25
q-8 188 93.5 288.5t301.5 100.5q185 0 283 -108q111 108 286 108q197 0 301.5 -117.5t104.5 -336.5q0 -83 -7 -160h-581v-50q0 -254 174 -254zM1028 894q-172 0 -172 -262v-4h332v46q0 220 -160 220zM596 403v84l-103 -31q-85 -24 -131 -66t-46 -111v-9q0 -51 25 -78t72 -27
q80 0 131.5 66.5t51.5 171.5z" />
    <glyph glyph-name="ccedilla" unicode="&#xe7;" horiz-adv-x="982" 
d="M923 375q-27 -360 -356 -396l-7 -55q162 -24 162 -145q0 -72 -52 -112.5t-144 -40.5q-84 0 -168 42l23 128q62 -39 130 -39q34 0 53 13t19 36q0 60 -179 65l16 109q-357 43 -357 513v73q0 252 109 380t324 128q397 0 416 -413l-262 -28q-4 136 -42 198.5t-112 62.5
q-164 0 -164 -283v-163q0 -291 166 -291q148 0 157 233v15z" />
    <glyph glyph-name="egrave" unicode="&#xe8;" horiz-adv-x="986" 
d="M594 1140h-195l-203 260h254zM671 368l250 -30q-18 -180 -128.5 -271t-298.5 -91q-209 0 -320 124t-111 359v129q0 236 113 361t327 125q202 0 309.5 -117.5t107.5 -336.5q0 -86 -7 -163h-590v-46q0 -256 177 -256q77 0 119.5 49.5t50.5 163.5h1zM500 894
q-177 0 -177 -263v-3h336v46q0 220 -159 220z" />
    <glyph glyph-name="eacute" unicode="&#xe9;" horiz-adv-x="986" 
d="M792 1400l-202 -260h-196l144 260h254zM671 368l250 -30q-18 -180 -128.5 -271t-298.5 -91q-209 0 -320 124t-111 359v129q0 236 113 361t327 125q202 0 309.5 -117.5t107.5 -336.5q0 -86 -7 -163h-590v-46q0 -256 177 -256q77 0 119.5 49.5t50.5 163.5h1zM500 894
q-177 0 -177 -263v-3h336v46q0 220 -159 220z" />
    <glyph glyph-name="ecircumflex" unicode="&#xea;" horiz-adv-x="986" 
d="M495 1260l-114 -120h-195l192 260h232l193 -260h-195zM671 368l250 -30q-18 -180 -128.5 -271t-298.5 -91q-209 0 -320 124t-111 359v129q0 236 113 361t327 125q202 0 309.5 -117.5t107.5 -336.5q0 -86 -7 -163h-590v-46q0 -256 177 -256q77 0 119.5 49.5t50.5 163.5h1z
M500 894q-177 0 -177 -263v-3h336v46q0 220 -159 220z" />
    <glyph glyph-name="edieresis" unicode="&#xeb;" horiz-adv-x="986" 
d="M436 1382v-214h-242v214h242zM795 1382v-214h-242v214h242zM671 368l250 -30q-18 -180 -128.5 -271t-298.5 -91q-209 0 -320 124t-111 359v129q0 236 113 361t327 125q202 0 309.5 -117.5t107.5 -336.5q0 -86 -7 -163h-590v-46q0 -256 177 -256q77 0 119.5 49.5
t50.5 163.5h1zM500 894q-177 0 -177 -263v-3h336v46q0 220 -159 220z" />
    <glyph glyph-name="igrave" unicode="&#xec;" horiz-adv-x="448" 
d="M267 1400l63 -260h-199l-111 260h247zM93 0v1050h262v-1050h-262z" />
    <glyph glyph-name="iacute" unicode="&#xed;" horiz-adv-x="448" 
d="M180 1400h248l-111 -260h-199zM93 0v1050h262v-1050h-262z" />
    <glyph glyph-name="icircumflex" unicode="&#xee;" horiz-adv-x="448" 
d="M9 1130l110 270h210l110 -270h-150l-65 127l-65 -127h-150zM93 0v1050h262v-1050h-262z" />
    <glyph glyph-name="idieresis" unicode="&#xef;" horiz-adv-x="448" 
d="M10 1168v217h183v-217h-183zM255 1168v217h182v-217h-182zM93 0v1050h262v-1050h-262z" />
    <glyph glyph-name="eth" unicode="&#xf0;" horiz-adv-x="989" 
d="M797 1198q129 -249 129 -585v-118q0 -252 -112 -386t-325 -134q-206 0 -316 131t-110 375v75q0 239 86.5 367t247.5 128q111 0 174.5 -49.5t105.5 -150.5l20 7q-31 141 -127 298l-232 -44l-29 157l160 30q-25 33 -65 76l235 48q46 -52 66 -79l162 30l29 -157zM664 444
v137q0 151 -45.5 230t-131.5 79q-160 0 -160 -289v-157q0 -286 162 -286q89 0 132 70.5t43 215.5z" />
    <glyph glyph-name="ntilde" unicode="&#xf1;" horiz-adv-x="1007" 
d="M657 1172q-48 0 -103.5 23t-99.5 46.5t-64 23.5q-28 0 -41 -20t-16 -67h-141q5 123 46.5 183.5t129.5 60.5q38 0 81 -14.5t73 -32t61 -32t49 -14.5q26 0 38 20t15 67h140q-9 -244 -168 -244zM93 0v1050h259q-1 -94 -52 -246l20 -8q56 139 139.5 204.5t198.5 65.5
q261 0 261 -270v-796h-262v740q0 69 -29.5 105.5t-84.5 36.5q-85 0 -136.5 -89t-51.5 -236v-557h-262z" />
    <glyph glyph-name="ograve" unicode="&#xf2;" horiz-adv-x="999" 
d="M456 1400l144 -260h-195l-203 260h254zM499 -25q-210 0 -323 133t-113 379v73q0 248 113 381.5t323 133.5q211 0 324 -133.5t113 -381.5v-73q0 -246 -113 -379t-324 -133zM499 157q168 0 168 287v162q0 287 -168 287q-167 0 -167 -287v-162q0 -287 167 -287z" />
    <glyph glyph-name="oacute" unicode="&#xf3;" horiz-adv-x="999" 
d="M543 1400h254l-202 -260h-196zM499 -25q-210 0 -323 133t-113 379v73q0 248 113 381.5t323 133.5q211 0 324 -133.5t113 -381.5v-73q0 -246 -113 -379t-324 -133zM499 157q168 0 168 287v162q0 287 -168 287q-167 0 -167 -287v-162q0 -287 167 -287z" />
    <glyph glyph-name="ocircumflex" unicode="&#xf4;" horiz-adv-x="999" 
d="M192 1140l192 260h232l193 -260h-195l-113 120l-114 -120h-195zM499 -25q-210 0 -323 133t-113 379v73q0 248 113 381.5t323 133.5q211 0 324 -133.5t113 -381.5v-73q0 -246 -113 -379t-324 -133zM499 157q168 0 168 287v162q0 287 -168 287q-167 0 -167 -287v-162
q0 -287 167 -287z" />
    <glyph glyph-name="otilde" unicode="&#xf5;" horiz-adv-x="999" 
d="M648 1172q-48 0 -103.5 23t-99.5 46.5t-64 23.5q-28 0 -41 -20t-16 -67h-141q5 123 46.5 183.5t129.5 60.5q38 0 81 -14.5t73 -32t61 -32t49 -14.5q26 0 38 20t15 67h140q-9 -244 -168 -244zM499 -25q-210 0 -323 133t-113 379v73q0 248 113 381.5t323 133.5
q211 0 324 -133.5t113 -381.5v-73q0 -246 -113 -379t-324 -133zM499 157q168 0 168 287v162q0 287 -168 287q-167 0 -167 -287v-162q0 -287 167 -287z" />
    <glyph glyph-name="odieresis" unicode="&#xf6;" horiz-adv-x="999" 
d="M199 1168v214h242v-214h-242zM558 1168v214h242v-214h-242zM499 -25q-210 0 -323 133t-113 379v73q0 248 113 381.5t323 133.5q211 0 324 -133.5t113 -381.5v-73q0 -246 -113 -379t-324 -133zM499 157q168 0 168 287v162q0 287 -168 287q-167 0 -167 -287v-162
q0 -287 167 -287z" />
    <glyph glyph-name="divide" unicode="&#xf7;" horiz-adv-x="962" 
d="M353 923v232h252v-232h-252zM68 611v204h827v-204h-827zM353 271v232h252v-232h-252z" />
    <glyph glyph-name="oslash" unicode="&#xf8;" horiz-adv-x="947" 
d="M762 978q148 -131 148 -418v-73q0 -248 -113 -380t-324 -132q-92 0 -167 26l-52 -110h-152l84 179q-149 131 -149 417v73q0 248 112.5 381.5t323.5 133.5q95 0 170 -27l51 110h152zM290 444q0 -72 12 -126l258 553q-37 22 -87 22q-183 0 -183 -288v-161zM657 444v161
q0 67 -11 124l-258 -551q36 -21 85 -21q184 0 184 287z" />
    <glyph glyph-name="ugrave" unicode="&#xf9;" horiz-adv-x="1008" 
d="M457 1400l144 -260h-195l-203 260h254zM914 1050v-1050h-259q3 98 52 246l-20 8q-56 -139 -139.5 -204.5t-198.5 -65.5q-261 0 -261 270v796h262v-740q0 -69 29.5 -105.5t84.5 -36.5q85 0 137 89.5t52 235.5v557h261z" />
    <glyph glyph-name="uacute" unicode="&#xfa;" horiz-adv-x="1008" 
d="M545 1400h254l-202 -260h-196zM914 1050v-1050h-259q3 98 52 246l-20 8q-56 -139 -139.5 -204.5t-198.5 -65.5q-261 0 -261 270v796h262v-740q0 -69 29.5 -105.5t84.5 -36.5q85 0 137 89.5t52 235.5v557h261z" />
    <glyph glyph-name="ucircumflex" unicode="&#xfb;" horiz-adv-x="1008" 
d="M193 1140l192 260h232l193 -260h-195l-113 120l-114 -120h-195zM914 1050v-1050h-259q3 98 52 246l-20 8q-56 -139 -139.5 -204.5t-198.5 -65.5q-261 0 -261 270v796h262v-740q0 -69 29.5 -105.5t84.5 -36.5q85 0 137 89.5t52 235.5v557h261z" />
    <glyph glyph-name="udieresis" unicode="&#xfc;" horiz-adv-x="1008" 
d="M201 1168v214h242v-214h-242zM560 1168v214h242v-214h-242zM914 1050v-1050h-259q3 98 52 246l-20 8q-56 -139 -139.5 -204.5t-198.5 -65.5q-261 0 -261 270v796h262v-740q0 -69 29.5 -105.5t84.5 -36.5q85 0 137 89.5t52 235.5v557h261z" />
    <glyph glyph-name="yacute" unicode="&#xfd;" horiz-adv-x="909" 
d="M508 1400h254l-202 -260h-196zM66 -374l-31 220l122 12q78 7 112.5 29t42.5 62l10 52l-310 1049h269l126 -551q27 -130 46 -292h20q18 155 46 292l122 551h256l-271 -987q-44 -162 -108 -252t-170.5 -133.5t-281.5 -51.5z" />
    <glyph glyph-name="thorn" unicode="&#xfe;" horiz-adv-x="1019" 
d="M93 -350v1731h262v-277q0 -71 -11.5 -130.5t-40.5 -156.5l21 -8q81 257 317 257q155 0 234.5 -121t79.5 -359v-123q0 -237 -79.5 -358t-234.5 -121q-121 0 -196.5 64t-120.5 192l-21 -7q52 -163 52 -306v-277h-262zM532 160q160 0 160 287v154q0 289 -160 289
q-86 0 -131.5 -79t-45.5 -230v-114q0 -150 45.5 -228.5t131.5 -78.5z" />
    <glyph glyph-name="ydieresis" unicode="&#xff;" horiz-adv-x="909" 
d="M164 1168v214h242v-214h-242zM523 1168v214h242v-214h-242zM66 -374l-31 220l122 12q78 7 112.5 29t42.5 62l10 52l-310 1049h269l126 -551q27 -130 46 -292h20q18 155 46 292l122 551h256l-271 -987q-44 -162 -108 -252t-170.5 -133.5t-281.5 -51.5z" />
    <glyph glyph-name="Amacron" unicode="&#x100;" horiz-adv-x="1135" 
d="M291 1483v163h553v-163h-553zM17 0l382 1400h333l386 -1400h-282l-64 253h-432l-63 -253h-260zM386 447h341l-93 373q-42 175 -69 335h-20q-23 -161 -65 -334z" />
    <glyph glyph-name="amacron" unicode="&#x101;" horiz-adv-x="976" 
d="M194 1173v163h553v-163h-553zM313 -24q-123 0 -192 70t-69 193v8q0 66 20.5 119.5t52.5 89.5t81.5 65.5t96.5 47t109 33.5l184 49v98q0 75 -30 110.5t-95 35.5q-77 0 -111 -56t-27 -179l-257 25q-9 186 94 287.5t306 101.5q187 0 283.5 -81.5t96.5 -240.5v-511
q0 -48 12 -64t47 -17l36 -2l-32 -178q-19 -4 -52 -4q-143 0 -188.5 58t-19.5 198l-20 5q-67 -261 -326 -261zM413 169q81 0 132 65t51 169v83l-104 -31q-176 -53 -176 -176v-8q0 -50 25 -76t72 -26z" />
    <glyph glyph-name="Abreve" unicode="&#x102;" horiz-adv-x="1135" 
d="M678 1681h175q-5 -109 -73.5 -152.5t-211.5 -43.5t-211.5 43.5t-73.5 152.5h175q3 -73 110 -73q106 0 110 73zM17 0l382 1400h333l386 -1400h-282l-64 253h-432l-63 -253h-260zM386 447h341l-93 373q-42 175 -69 335h-20q-23 -161 -65 -334z" />
    <glyph glyph-name="abreve" unicode="&#x103;" horiz-adv-x="976" 
d="M573 1400h175q-5 -134 -71 -197.5t-205 -63.5t-205 63t-71 198h175q4 -63 27 -90t74 -27t74 27t27 90zM313 -24q-123 0 -192 70t-69 193v8q0 66 20.5 119.5t52.5 89.5t81.5 65.5t96.5 47t109 33.5l184 49v98q0 75 -30 110.5t-95 35.5q-77 0 -111 -56t-27 -179l-257 25
q-9 186 94 287.5t306 101.5q187 0 283.5 -81.5t96.5 -240.5v-511q0 -48 12 -64t47 -17l36 -2l-32 -178q-19 -4 -52 -4q-143 0 -188.5 58t-19.5 198l-20 5q-67 -261 -326 -261zM413 169q81 0 132 65t51 169v83l-104 -31q-176 -53 -176 -176v-8q0 -50 25 -76t72 -26z" />
    <glyph glyph-name="Aogonek" unicode="&#x104;" horiz-adv-x="1135" 
d="M978 -113q0 -41 58 -41q31 0 70 12l-31 -168q-52 -18 -105 -18q-86 0 -131.5 37.5t-45.5 104.5q0 115 134 186h-91l-64 253h-432l-63 -253h-260l382 1400h333l386 -1400q-67 -22 -103.5 -51.5t-36.5 -61.5zM386 447h341l-93 373q-42 175 -69 335h-20q-23 -161 -65 -334z
" />
    <glyph glyph-name="aogonek" unicode="&#x105;" horiz-adv-x="976" 
d="M824 -23q-75 -43 -75 -89q0 -42 60 -42q31 0 69 12l-30 -168q-54 -18 -105 -18q-87 0 -132.5 37.5t-45.5 104.5q0 115 138 197q-76 52 -44 221l-20 5q-67 -261 -326 -261q-123 0 -192 70t-69 193v8q0 66 20.5 119.5t52.5 89.5t81.5 65.5t96.5 47t109 33.5l184 49v98
q0 75 -30 110.5t-95 35.5q-77 0 -111 -56t-27 -179l-257 25q-9 186 94 287.5t306 101.5q187 0 283.5 -81.5t96.5 -240.5v-511q0 -48 12 -64t47 -17l36 -2l-32 -178q-19 -4 -52 -4q-30 0 -43 1zM596 403v83l-104 -31q-176 -53 -176 -176v-8q0 -50 25 -76t72 -26q81 0 132 65
t51 169z" />
    <glyph glyph-name="Cacute" unicode="&#x106;" horiz-adv-x="1153" 
d="M487 1490l118 191h257l-172 -191h-203zM586 -25q-516 0 -516 672v106q0 333 129.5 502t385.5 169q470 0 489 -531l-255 -46q-2 193 -59.5 281.5t-173.5 88.5q-124 0 -184.5 -100.5t-60.5 -307.5v-217q0 -207 61 -307.5t186 -100.5q114 0 172.5 91t65.5 291l261 -61
q-31 -530 -501 -530z" />
    <glyph glyph-name="cacute" unicode="&#x107;" horiz-adv-x="982" 
d="M542 1400h254l-202 -260h-196zM494 -24q-431 0 -431 517v73q0 252 109 380t324 128q397 0 416 -413l-262 -28q-4 136 -42 198.5t-112 62.5q-164 0 -164 -283v-163q0 -291 166 -291q148 0 157 233v15l268 -30q-15 -201 -124 -300.5t-305 -98.5z" />
    <glyph glyph-name="Cdotaccent" unicode="&#x10a;" horiz-adv-x="1153" 
d="M448 1500v214h279v-214h-279zM586 -25q-516 0 -516 672v106q0 333 129.5 502t385.5 169q470 0 489 -531l-255 -46q-2 193 -59.5 281.5t-173.5 88.5q-124 0 -184.5 -100.5t-60.5 -307.5v-217q0 -207 61 -307.5t186 -100.5q114 0 172.5 91t65.5 291l261 -61
q-31 -530 -501 -530z" />
    <glyph glyph-name="cdotaccent" unicode="&#x10b;" horiz-adv-x="982" 
d="M358 1169v213h279v-213h-279zM494 -24q-431 0 -431 517v73q0 252 109 380t324 128q397 0 416 -413l-262 -28q-4 136 -42 198.5t-112 62.5q-164 0 -164 -283v-163q0 -291 166 -291q148 0 157 233v15l268 -30q-15 -201 -124 -300.5t-305 -98.5z" />
    <glyph glyph-name="Ccaron" unicode="&#x10c;" horiz-adv-x="1153" 
d="M274 1681h205l109 -85l110 85h204l-195 -191h-237zM586 -25q-516 0 -516 672v106q0 333 129.5 502t385.5 169q470 0 489 -531l-255 -46q-2 193 -59.5 281.5t-173.5 88.5q-124 0 -184.5 -100.5t-60.5 -307.5v-217q0 -207 61 -307.5t186 -100.5q114 0 172.5 91t65.5 291
l261 -61q-31 -530 -501 -530z" />
    <glyph glyph-name="ccaron" unicode="&#x10d;" horiz-adv-x="982" 
d="M190 1400h195l114 -120l113 120h195l-193 -260h-232zM494 -24q-431 0 -431 517v73q0 252 109 380t324 128q397 0 416 -413l-262 -28q-4 136 -42 198.5t-112 62.5q-164 0 -164 -283v-163q0 -291 166 -291q148 0 157 233v15l268 -30q-15 -201 -124 -300.5t-305 -98.5z" />
    <glyph glyph-name="Dcaron" unicode="&#x10e;" horiz-adv-x="1146" 
d="M225 1681h205l109 -85l110 85h204l-195 -191h-237zM105 0v1400h428q275 0 409 -161t134 -491v-97q0 -329 -134 -490t-409 -161h-428zM371 211h151q147 0 215 88.5t68 280.5v239q0 193 -68 281.5t-215 88.5h-151v-978z" />
    <glyph glyph-name="dcaron" unicode="&#x10f;" horiz-adv-x="1019" 
d="M378 -16q-155 0 -234.5 121t-79.5 358v123q0 238 79.5 359t234.5 121q230 0 317 -258l21 9q-52 167 -52 306v277h262v-1400h-259q3 80 50 233l-21 8q-43 -128 -119.5 -192.5t-198.5 -64.5zM993 1400h206v-121q0 -91 -43 -130.5t-150 -44.5l-13 70q56 2 76 19.5t20 60.5
h-96v146zM487 160q86 0 131.5 78.5t45.5 228.5v114q0 151 -45.5 230t-131.5 79q-160 0 -160 -289v-154q0 -287 160 -287z" />
    <glyph glyph-name="Dcroat" unicode="&#x110;" horiz-adv-x="1158" 
d="M545 1400q275 0 409 -161t134 -491v-97q0 -329 -134 -490t-409 -161h-429v646h-93v185h93v569h429zM817 580v239q0 193 -68 281.5t-216 88.5h-150v-358h243v-185h-243v-435h150q148 0 216 88t68 281z" />
    <glyph glyph-name="dcroat" unicode="&#x111;" horiz-adv-x="1007" 
d="M1019 1287v-165h-93v-1122h-259q3 80 50 233l-21 8q-43 -128 -119.5 -192.5t-198.5 -64.5q-155 0 -234.5 121t-79.5 358v123q0 238 79.5 359t234.5 121q230 0 317 -258l21 9q-52 167 -52 305h-250v165h250v113h262v-113h93zM664 467v114q0 151 -45.5 230t-131.5 79
q-160 0 -160 -289v-154q0 -287 160 -287q86 0 131.5 78.5t45.5 228.5z" />
    <glyph glyph-name="Emacron" unicode="&#x112;" horiz-adv-x="965" 
d="M224 1483v163h553v-163h-553zM371 217h536v-217h-802v1400h783v-216h-517v-362h474v-190h-474v-415z" />
    <glyph glyph-name="emacron" unicode="&#x113;" horiz-adv-x="986" 
d="M770 1336v-163h-553v163h553zM671 368l250 -30q-18 -180 -128.5 -271t-298.5 -91q-209 0 -320 124t-111 359v129q0 236 113 361t327 125q202 0 309.5 -117.5t107.5 -336.5q0 -86 -7 -163h-590v-46q0 -256 177 -256q77 0 119.5 49.5t50.5 163.5h1zM500 894
q-177 0 -177 -263v-3h336v46q0 220 -159 220z" />
    <glyph glyph-name="Edotaccent" unicode="&#x116;" horiz-adv-x="965" 
d="M361 1500v214h279v-214h-279zM371 217h536v-217h-802v1400h783v-216h-517v-362h474v-190h-474v-415z" />
    <glyph glyph-name="edotaccent" unicode="&#x117;" horiz-adv-x="986" 
d="M634 1382v-213h-279v213h279zM671 368l250 -30q-18 -180 -128.5 -271t-298.5 -91q-209 0 -320 124t-111 359v129q0 236 113 361t327 125q202 0 309.5 -117.5t107.5 -336.5q0 -86 -7 -163h-590v-46q0 -256 177 -256q77 0 119.5 49.5t50.5 163.5h1zM500 894
q-177 0 -177 -263v-3h336v46q0 220 -159 220z" />
    <glyph glyph-name="Eogonek" unicode="&#x118;" horiz-adv-x="965" 
d="M907 0q-67 -22 -103.5 -51.5t-36.5 -61.5q0 -41 58 -41q31 0 70 12l-31 -168q-52 -18 -105 -18q-86 0 -131.5 37.5t-45.5 104.5q0 115 134 186h-611v1400h783v-216h-517v-362h474v-190h-474v-415h536v-217z" />
    <glyph glyph-name="eogonek" unicode="&#x119;" horiz-adv-x="986" 
d="M659 -2q-59 -29 -86 -55.5t-27 -54.5q0 -42 60 -42q32 0 69 12l-30 -168q-54 -18 -105 -18q-87 0 -132.5 37.5t-45.5 104.5q0 93 89 163q-189 13 -288.5 136t-99.5 346v129q0 236 113 361t327 125q202 0 309.5 -117.5t107.5 -336.5q0 -86 -7 -163h-590v-46
q0 -256 177 -256q77 0 119.5 49.5t50.5 163.5h1l250 -30q-28 -271 -262 -340zM500 894q-177 0 -177 -263v-3h336v46q0 220 -159 220z" />
    <glyph glyph-name="Ecaron" unicode="&#x11a;" horiz-adv-x="965" 
d="M187 1681h205l109 -85l110 85h204l-195 -191h-237zM371 217h536v-217h-802v1400h783v-216h-517v-362h474v-190h-474v-415z" />
    <glyph glyph-name="ecaron" unicode="&#x11b;" horiz-adv-x="986" 
d="M610 1140h-232l-192 260h195l114 -120l113 120h195zM671 368l250 -30q-18 -180 -128.5 -271t-298.5 -91q-209 0 -320 124t-111 359v129q0 236 113 361t327 125q202 0 309.5 -117.5t107.5 -336.5q0 -86 -7 -163h-590v-46q0 -256 177 -256q77 0 119.5 49.5t50.5 163.5h1z
M500 894q-177 0 -177 -263v-3h336v46q0 220 -159 220z" />
    <glyph glyph-name="Gbreve" unicode="&#x11e;" horiz-adv-x="1191" 
d="M696 1681h175q-5 -109 -73.5 -152.5t-211.5 -43.5t-211.5 43.5t-73.5 152.5h175q3 -73 110 -73q106 0 110 73zM501 -18q-213 0 -322 168.5t-109 499.5v107q0 332 133 500t395 168q446 0 480 -454l-255 -46q-6 153 -61.5 222t-162.5 69q-131 0 -194.5 -101.5t-63.5 -311.5
v-187q0 -216 59 -320.5t180 -104.5q111 0 175.5 97.5t84.5 299.5h-285v208h536v-796h-237q-5 103 54 330l-22 6q-60 -181 -151 -267.5t-234 -86.5z" />
    <glyph glyph-name="gbreve" unicode="&#x11f;" horiz-adv-x="947" 
d="M384 1135q-114 0 -169.5 62t-58.5 194h151q2 -59 20.5 -86t56.5 -27t57 27t20 86h151q-3 -132 -58.5 -194t-169.5 -62zM584 259q39 -5 69 -11t68.5 -17t66.5 -26t57.5 -38.5t48 -53.5t30 -72.5t11.5 -93.5q0 -165 -117.5 -243t-360.5 -78q-445 0 -445 245q0 178 183 215
v16q-157 55 -157 180q0 139 172 170v17q-133 86 -133 271q0 162 102.5 248t294.5 86q78 0 143 -15q-32 134 36.5 220.5t230.5 96.5l26 -233l-92 -9q-67 -5 -97.5 -28t-28.5 -71q178 -80 178 -295q0 -162 -102 -248t-294 -86q-94 0 -168 21q-73 -11 -73 -56q0 -37 39.5 -56.5
t154.5 -34.5zM474 926q-68 0 -101 -45t-33 -141t32.5 -140.5t101.5 -44.5q68 0 100.5 45t32.5 140q0 96 -32.5 141t-100.5 45zM472 -194q130 0 188.5 27t58.5 88q0 62 -48 88.5t-172 42.5l-159 19l-31 4q-60 -21 -85 -53.5t-25 -81.5q0 -70 64 -102t209 -32z" />
    <glyph glyph-name="Gdotaccent" unicode="&#x120;" horiz-adv-x="1191" 
d="M446 1500v214h279v-214h-279zM501 -18q-213 0 -322 168.5t-109 499.5v107q0 332 133 500t395 168q446 0 480 -454l-255 -46q-6 153 -61.5 222t-162.5 69q-131 0 -194.5 -101.5t-63.5 -311.5v-187q0 -216 59 -320.5t180 -104.5q111 0 175.5 97.5t84.5 299.5h-285v208h536
v-796h-237q-5 103 54 330l-22 6q-60 -181 -151 -267.5t-234 -86.5z" />
    <glyph glyph-name="gdotaccent" unicode="&#x121;" horiz-adv-x="947" 
d="M550 1381v-213h-276v213h276zM584 259q39 -5 69 -11t68.5 -17t66.5 -26t57.5 -38.5t48 -53.5t30 -72.5t11.5 -93.5q0 -165 -117.5 -243t-360.5 -78q-445 0 -445 245q0 178 183 215v16q-157 55 -157 180q0 139 172 170v17q-133 86 -133 271q0 162 102.5 248t294.5 86
q78 0 143 -15q-32 134 36.5 220.5t230.5 96.5l26 -233l-92 -9q-67 -5 -97.5 -28t-28.5 -71q178 -80 178 -295q0 -162 -102 -248t-294 -86q-94 0 -168 21q-73 -11 -73 -56q0 -37 39.5 -56.5t154.5 -34.5zM474 926q-68 0 -101 -45t-33 -141t32.5 -140.5t101.5 -44.5
q68 0 100.5 45t32.5 140q0 96 -32.5 141t-100.5 45zM472 -194q130 0 188.5 27t58.5 88q0 62 -48 88.5t-172 42.5l-159 19l-31 4q-60 -21 -85 -53.5t-25 -81.5q0 -70 64 -102t209 -32z" />
    <glyph glyph-name="uni0122" unicode="&#x122;" horiz-adv-x="1191" 
d="M501 -18q-213 0 -322 168.5t-109 499.5v107q0 332 133 500t395 168q446 0 480 -454l-255 -46q-6 153 -61.5 222t-162.5 69q-131 0 -194.5 -101.5t-63.5 -311.5v-187q0 -216 59 -320.5t180 -104.5q111 0 175.5 97.5t84.5 299.5h-285v208h536v-796h-237q-5 103 54 330
l-22 6q-60 -181 -151 -267.5t-234 -86.5zM471 -88h229v-121q0 -97 -45 -134.5t-171 -42.5l-13 70q62 3 85 20.5t23 61.5h-108v146z" />
    <glyph glyph-name="uni0123" unicode="&#x123;" horiz-adv-x="947" 
d="M541 1298v-156h-206v120q0 92 43 131.5t150 44.5l13 -70q-55 -2 -75.5 -17.5t-20.5 -52.5h96zM584 259q39 -5 69 -11t68.5 -17t66.5 -26t57.5 -38.5t48 -53.5t30 -72.5t11.5 -93.5q0 -165 -117.5 -243t-360.5 -78q-445 0 -445 245q0 178 183 215v16q-157 55 -157 180
q0 139 172 170v17q-133 86 -133 271q0 162 102.5 248t294.5 86q78 0 143 -15q-32 134 36.5 220.5t230.5 96.5l26 -233l-92 -9q-67 -5 -97.5 -28t-28.5 -71q178 -80 178 -295q0 -162 -102 -248t-294 -86q-94 0 -168 21q-73 -11 -73 -56q0 -37 39.5 -56.5t154.5 -34.5z
M474 926q-68 0 -101 -45t-33 -141t32.5 -140.5t101.5 -44.5q68 0 100.5 45t32.5 140q0 96 -32.5 141t-100.5 45zM472 -194q130 0 188.5 27t58.5 88q0 62 -48 88.5t-172 42.5l-159 19l-31 4q-60 -21 -85 -53.5t-25 -81.5q0 -70 64 -102t209 -32z" />
    <glyph glyph-name="Hbar" unicode="&#x126;" horiz-adv-x="1178" 
d="M1155 1114v-186h-82v-928h-267v485h-435v-485h-266v928h-82v186h82v286h266v-286h435v286h267v-286h82zM806 701v227h-435v-227h435z" />
    <glyph glyph-name="hbar" unicode="&#x127;" horiz-adv-x="1019" 
d="M670 1066q261 0 261 -270v-796h-262v739q0 142 -114 142q-85 0 -136.5 -88.5t-51.5 -235.5v-557h-262v1126h-118v165h118v109h262v-109h226v-165h-226v-34q0 -129 -55 -288l20 -8q56 139 139.5 204.5t198.5 65.5z" />
    <glyph glyph-name="Itilde" unicode="&#x128;" horiz-adv-x="476" 
d="M318 1499q-32 0 -81 28.5t-61 28.5q-31 0 -29 -51h-94q-10 103 17.5 157t90.5 54q31 0 80.5 -28.5t63.5 -28.5q30 0 28 51h94q15 -211 -109 -211zM105 1400h266v-1400h-266v1400z" />
    <glyph glyph-name="itilde" unicode="&#x129;" horiz-adv-x="448" 
d="M303 1149q-32 0 -81 28.5t-61 28.5q-31 0 -29 -51h-94q-10 103 17.5 157t90.5 54q31 0 80.5 -28.5t63.5 -28.5q30 0 28 51h94q15 -211 -109 -211zM93 0v1050h262v-1050h-262z" />
    <glyph glyph-name="Imacron" unicode="&#x12a;" horiz-adv-x="476" 
d="M43 1535v151h389v-151h-389zM105 1400h266v-1400h-266v1400z" />
    <glyph glyph-name="imacron" unicode="&#x12b;" horiz-adv-x="448" 
d="M29 1185v151h389v-151h-389zM93 0v1050h262v-1050h-262z" />
    <glyph glyph-name="Iogonek" unicode="&#x12e;" horiz-adv-x="476" 
d="M232 -113q0 -41 58 -41q31 0 70 12l-31 -168q-52 -18 -105 -18q-86 0 -131.5 37.5t-45.5 104.5q0 115 134 186h-76v1400h266v-1400h1q-67 -22 -103.5 -51.5t-36.5 -61.5z" />
    <glyph glyph-name="iogonek" unicode="&#x12f;" horiz-adv-x="448" 
d="M84 1382h280v-214h-280v214zM93 0v1050h262v-1050q-67 -22 -103.5 -51.5t-36.5 -61.5q0 -41 58 -41q31 0 70 12l-31 -168q-52 -18 -105 -18q-86 0 -131.5 37.5t-45.5 104.5q0 115 134 186h-71z" />
    <glyph glyph-name="Idotaccent" unicode="&#x130;" horiz-adv-x="476" 
d="M98 1500v214h279v-214h-279zM105 1400h266v-1400h-266v1400z" />
    <glyph glyph-name="dotlessi" unicode="&#x131;" horiz-adv-x="448" 
d="M93 0v1050h262v-1050h-262z" />
    <glyph glyph-name="IJ" unicode="&#x132;" horiz-adv-x="1444" 
d="M105 1400h266v-1400h-266v1400zM936 -25q-413 0 -420 474l268 37q0 -165 37 -236t120 -71q69 0 102.5 44.5t33.5 139.5v1037h266v-1067q0 -173 -105.5 -265.5t-301.5 -92.5z" />
    <glyph glyph-name="ij" unicode="&#x133;" horiz-adv-x="899" 
d="M84 1168v214h280v-214h-280zM536 1168v214h279v-214h-279zM93 0v1050h262v-1050h-262zM364 -374l-30 225l86 7q67 6 96 33t29 89v1070h262v-1010q0 -206 -111 -306t-332 -108z" />
    <glyph glyph-name="uni0136" unicode="&#x136;" horiz-adv-x="1075" 
d="M105 0v1400h266v-323q0 -165 -26 -300l19 -8l404 631h280l-365 -553l366 -847h-293l-255 639l-130 -184v-455h-266zM448 -88h229v-121q0 -97 -45 -134.5t-171 -42.5l-13 70q62 3 85 20.5t23 61.5h-108v146z" />
    <glyph glyph-name="uni0137" unicode="&#x137;" horiz-adv-x="924" 
d="M93 0v1400h262v-397q0 -192 -36 -366l16 -8l291 421h277l-271 -376l271 -674h-267l-184 504l-97 -125v-379h-262zM383 -88h229v-121q0 -97 -45 -134.5t-171 -42.5l-13 70q62 3 85 20.5t23 61.5h-108v146z" />
    <glyph glyph-name="Lacute" unicode="&#x139;" horiz-adv-x="900" 
d="M138 1490l118 191h257l-172 -191h-203zM105 0v1400h266v-1183h487v-217h-753z" />
    <glyph glyph-name="lacute" unicode="&#x13a;" horiz-adv-x="448" 
d="M123 1490l118 191h257l-172 -191h-203zM93 1400h262v-1400h-262v1400z" />
    <glyph glyph-name="uni013B" unicode="&#x13b;" horiz-adv-x="900" 
d="M105 0v1400h266v-1183h487v-217h-753zM367 -88h229v-121q0 -97 -45 -134.5t-171 -42.5l-13 70q62 3 85 20.5t23 61.5h-108v146z" />
    <glyph glyph-name="uni013C" unicode="&#x13c;" horiz-adv-x="448" 
d="M93 1400h262v-1400h-262v1400zM109 -88h229v-121q0 -97 -45 -134.5t-171 -42.5l-13 70q62 3 85 20.5t23 61.5h-108v146z" />
    <glyph glyph-name="Lcaron" unicode="&#x13d;" horiz-adv-x="900" 
d="M105 0v1400h266v-1183h487v-217h-753zM461 1400h216v-170q0 -103 -47 -149.5t-156 -52.5l-13 80q52 3 74 25t22 71h-96v196z" />
    <glyph glyph-name="lcaron" unicode="&#x13e;" horiz-adv-x="448" 
d="M93 1400h262v-1400h-262v1400zM434 1400h206v-121q0 -91 -43 -130.5t-150 -44.5l-13 70q56 2 76 19.5t20 60.5h-96v146z" />
    <glyph glyph-name="Ldot" unicode="&#x13f;" horiz-adv-x="969" 
d="M105 0v1400h266v-1183h487v-217h-753zM562 900h310v-279h-310v279z" />
    <glyph glyph-name="ldot" unicode="&#x140;" horiz-adv-x="879" 
d="M93 1400h262v-1400h-262v1400zM496 831h311v-279h-311v279z" />
    <glyph glyph-name="Lslash" unicode="&#x141;" horiz-adv-x="912" 
d="M383 217h487v-217h-754v639l-114 -31v171l114 31v590h267v-517l217 60v-171l-217 -60v-495z" />
    <glyph glyph-name="lslash" unicode="&#x142;" horiz-adv-x="640" 
d="M605 1039v-217l-154 -80v-742h-262v605l-154 -80v217l154 80v578h262v-441z" />
    <glyph glyph-name="Nacute" unicode="&#x143;" horiz-adv-x="1199" 
d="M499 1490l118 191h257l-172 -191h-203zM105 0v1400h300l343 -780q47 -105 87 -241l21 2q-19 188 -19 311v708h257v-1400h-300l-334 763q-59 143 -96 268l-20 -3q18 -180 18 -322v-706h-257z" />
    <glyph glyph-name="nacute" unicode="&#x144;" horiz-adv-x="1007" 
d="M553 1400h254l-202 -260h-196zM93 0v1050h259q-1 -94 -52 -246l20 -8q56 139 139.5 204.5t198.5 65.5q261 0 261 -270v-796h-262v740q0 69 -29.5 105.5t-84.5 36.5q-85 0 -136.5 -89t-51.5 -236v-557h-262z" />
    <glyph glyph-name="uni0145" unicode="&#x145;" horiz-adv-x="1199" 
d="M105 0v1400h300l343 -780q47 -105 87 -241l21 2q-19 188 -19 311v708h257v-1400h-300l-334 763q-59 143 -96 268l-20 -3q18 -180 18 -322v-706h-257zM484 -88h229v-121q0 -97 -45 -134.5t-171 -42.5l-13 70q62 3 85 20.5t23 61.5h-108v146z" />
    <glyph glyph-name="uni0146" unicode="&#x146;" horiz-adv-x="1007" 
d="M93 0v1050h259q-1 -94 -52 -246l20 -8q56 139 139.5 204.5t198.5 65.5q261 0 261 -270v-796h-262v740q0 69 -29.5 105.5t-84.5 36.5q-85 0 -136.5 -89t-51.5 -236v-557h-262zM391 -88h229v-121q0 -97 -45 -134.5t-171 -42.5l-13 70q62 3 85 20.5t23 61.5h-108v146z" />
    <glyph glyph-name="Ncaron" unicode="&#x147;" horiz-adv-x="1199" 
d="M285 1681h205l109 -85l110 85h204l-195 -191h-237zM105 0v1400h300l343 -780q47 -105 87 -241l21 2q-19 188 -19 311v708h257v-1400h-300l-334 763q-59 143 -96 268l-20 -3q18 -180 18 -322v-706h-257z" />
    <glyph glyph-name="ncaron" unicode="&#x148;" horiz-adv-x="1007" 
d="M200 1400h195l114 -120l113 120h195l-193 -260h-232zM93 0v1050h259q-1 -94 -52 -246l20 -8q56 139 139.5 204.5t198.5 65.5q261 0 261 -270v-796h-262v740q0 69 -29.5 105.5t-84.5 36.5q-85 0 -136.5 -89t-51.5 -236v-557h-262z" />
    <glyph glyph-name="Eng" unicode="&#x14a;" horiz-adv-x="1199" 
d="M609 -374l-31 215l111 7q88 5 118 35.5t34 117.5l-377 762q-56 119 -100 268l-20 -3q18 -180 18 -322v-706h-257v1400h299l344 -743q43 -93 89 -245l21 2q-21 184 -21 309v677h257v-1400q0 -176 -116 -266.5t-369 -107.5z" />
    <glyph glyph-name="eng" unicode="&#x14b;" horiz-adv-x="1007" 
d="M658 1066q261 0 261 -270v-796q0 -176 -114 -266.5t-357 -107.5l-30 215l86 6q92 6 122.5 40.5t30.5 129.5v723q0 69 -29.5 105.5t-84.5 36.5q-85 0 -136.5 -89t-51.5 -236v-557h-262v1050h259q-1 -94 -52 -246l20 -8q56 139 139.5 204.5t198.5 65.5z" />
    <glyph glyph-name="Omacron" unicode="&#x14c;" horiz-adv-x="1205" 
d="M326 1523v163h553v-163h-553zM603 -25q-533 0 -533 666v107q0 677 533 677q532 0 532 -677v-107q0 -666 -532 -666zM603 184q132 0 196.5 99t64.5 304v216q0 210 -64.5 311.5t-197.5 101.5q-132 0 -196.5 -102t-64.5 -311v-216q0 -204 65 -303.5t197 -99.5z" />
    <glyph glyph-name="omacron" unicode="&#x14d;" horiz-adv-x="999" 
d="M222 1173v163h553v-163h-553zM499 -25q-210 0 -323 133t-113 379v73q0 248 113 381.5t323 133.5q211 0 324 -133.5t113 -381.5v-73q0 -246 -113 -379t-324 -133zM499 157q168 0 168 287v162q0 287 -168 287q-167 0 -167 -287v-162q0 -287 167 -287z" />
    <glyph glyph-name="Ohungarumlaut" unicode="&#x150;" horiz-adv-x="1205" 
d="M328 1490l118 191h257l-172 -191h-203zM660 1490l118 191h256l-172 -191h-202zM603 -25q-533 0 -533 666v107q0 677 533 677q532 0 532 -677v-107q0 -666 -532 -666zM603 184q132 0 196.5 99t64.5 304v216q0 210 -64.5 311.5t-197.5 101.5q-132 0 -196.5 -102t-64.5 -311
v-216q0 -204 65 -303.5t197 -99.5z" />
    <glyph glyph-name="ohungarumlaut" unicode="&#x151;" horiz-adv-x="999" 
d="M382 1400h254l-202 -260h-196zM709 1400h254l-203 -260h-196zM499 -25q-210 0 -323 133t-113 379v73q0 248 113 381.5t323 133.5q211 0 324 -133.5t113 -381.5v-73q0 -246 -113 -379t-324 -133zM499 157q168 0 168 287v162q0 287 -168 287q-167 0 -167 -287v-162
q0 -287 167 -287z" />
    <glyph glyph-name="OE" unicode="&#x152;" horiz-adv-x="1699" 
d="M557 -25q-241 0 -364 168t-123 498v107q0 335 123 506t364 171q215 0 333 -165v140h732v-216h-491v-362h448v-190h-448v-415h510v-217h-751v138q-118 -163 -333 -163zM603 184q132 0 196.5 99t64.5 304v216q0 210 -64.5 311.5t-197.5 101.5q-132 0 -196.5 -102
t-64.5 -311v-216q0 -204 65 -303.5t197 -99.5z" />
    <glyph glyph-name="oe" unicode="&#x153;" horiz-adv-x="1586" 
d="M1271 367l250 -31q-20 -176 -129 -268t-287 -92q-209 0 -308 151q-99 -151 -308 -151q-204 0 -315 133t-111 378v74q0 246 111 379.5t315 133.5q101 0 180.5 -39t128.5 -112q49 73 130.5 112t186.5 39q194 0 299.5 -120t105.5 -343q0 -83 -8 -154h-584v-25
q0 -275 178 -275q74 0 115.5 49.5t49.5 160.5zM1102 894q-168 0 -174 -266h329v33q0 233 -155 233zM659 444v162q0 146 -40.5 216.5t-123.5 70.5q-163 0 -163 -287v-162q0 -287 163 -287q84 0 124 70.5t40 216.5z" />
    <glyph glyph-name="Racute" unicode="&#x154;" horiz-adv-x="1112" 
d="M431 1490l118 191h257l-172 -191h-203zM105 0v1400h483q213 0 324.5 -93.5t111.5 -269.5v-22q0 -131 -71.5 -211t-205.5 -97v-18q90 -27 131.5 -78.5t69.5 -172.5l37 -162q27 -116 53 -169.5t63 -80.5l-3 -26h-299q-24 36 -41 93.5t-40 173.5l-29 145q-22 111 -60 151.5
t-125 40.5h-133v-604h-266zM371 805h190q99 0 147.5 44t48.5 135v27q0 91 -48.5 134.5t-147.5 43.5h-190v-384z" />
    <glyph glyph-name="racute" unicode="&#x155;" horiz-adv-x="728" 
d="M428 1400h254l-202 -260h-196zM93 0v1050h261q2 -53 -9 -103.5t-44 -143.5l19 -10q69 155 143.5 216.5t203.5 73.5l33 -238l-90 -8q-139 -12 -197 -92t-58 -275v-470h-262z" />
    <glyph glyph-name="uni0156" unicode="&#x156;" horiz-adv-x="1112" 
d="M105 0v1400h483q213 0 324.5 -93.5t111.5 -269.5v-22q0 -131 -71.5 -211t-205.5 -97v-18q90 -27 131.5 -78.5t69.5 -172.5l37 -162q27 -116 53 -169.5t63 -80.5l-3 -26h-299q-24 36 -41 93.5t-40 173.5l-29 145q-22 111 -60 151.5t-125 40.5h-133v-604h-266zM371 805h190
q99 0 147.5 44t48.5 135v27q0 91 -48.5 134.5t-147.5 43.5h-190v-384zM471 -88h229v-121q0 -97 -45 -134.5t-171 -42.5l-13 70q62 3 85 20.5t23 61.5h-108v146z" />
    <glyph glyph-name="uni0157" unicode="&#x157;" horiz-adv-x="728" 
d="M93 0v1050h261q2 -53 -9 -103.5t-44 -143.5l19 -10q69 155 143.5 216.5t203.5 73.5l33 -238l-90 -8q-139 -12 -197 -92t-58 -275v-470h-262zM109 -88h229v-121q0 -97 -45 -134.5t-171 -42.5l-13 70q62 3 85 20.5t23 61.5h-108v146z" />
    <glyph glyph-name="Rcaron" unicode="&#x158;" horiz-adv-x="1112" 
d="M217 1681h205l109 -85l110 85h204l-195 -191h-237zM105 0v1400h483q213 0 324.5 -93.5t111.5 -269.5v-22q0 -131 -71.5 -211t-205.5 -97v-18q90 -27 131.5 -78.5t69.5 -172.5l37 -162q27 -116 53 -169.5t63 -80.5l-3 -26h-299q-24 36 -41 93.5t-40 173.5l-29 145
q-22 111 -60 151.5t-125 40.5h-133v-604h-266zM371 805h190q99 0 147.5 44t48.5 135v27q0 91 -48.5 134.5t-147.5 43.5h-190v-384z" />
    <glyph glyph-name="rcaron" unicode="&#x159;" horiz-adv-x="728" 
d="M76 1400h195l114 -120l113 120h195l-193 -260h-232zM93 0v1050h261q2 -53 -9 -103.5t-44 -143.5l19 -10q69 155 143.5 216.5t203.5 73.5l33 -238l-90 -8q-139 -12 -197 -92t-58 -275v-470h-262z" />
    <glyph glyph-name="Sacute" unicode="&#x15a;" horiz-adv-x="1094" 
d="M595 1750h254l-202 -260h-196zM559 -24q-243 0 -372 118.5t-130 355.5l249 43q8 -171 68.5 -245.5t196.5 -74.5q94 0 149 45.5t55 121.5q0 73 -50.5 124.5t-172.5 107.5l-158 72q-71 33 -119.5 64t-95 77.5t-69.5 110.5t-23 146q1 183 116.5 282.5t325.5 99.5
q230 0 350 -113t117 -330l-235 -40q-3 146 -60.5 216.5t-174.5 70.5q-87 0 -137 -40.5t-50 -108.5q0 -70 47.5 -118.5t175.5 -103.5l159 -69q55 -24 95.5 -46t85 -57t72 -74.5t46 -97t18.5 -125.5q0 -194 -127 -303t-352 -109z" />
    <glyph glyph-name="sacute" unicode="&#x15b;" horiz-adv-x="906" 
d="M497 1400h254l-202 -260h-196zM465 -22q-199 0 -307 83.5t-110 245.5l249 46q-3 -202 167 -202q133 0 133 103q0 53 -38 89t-134 79l-125 55q-103 47 -167.5 120.5t-64.5 173.5q0 145 96.5 223t277.5 78q189 0 288 -77.5t100 -227.5l-244 -40q3 90 -32.5 131.5
t-109.5 41.5q-61 0 -94 -23.5t-33 -68.5q0 -48 37.5 -83.5t130.5 -74.5l124 -53q54 -23 93 -47t78 -61t59.5 -89.5t20.5 -119.5q0 -144 -103 -223t-292 -79z" />
    <glyph glyph-name="Scedilla" unicode="&#x15e;" horiz-adv-x="1094" 
d="M1038 388q0 -180 -110 -287.5t-307 -122.5l-7 -54q162 -24 162 -145q0 -72 -52 -112.5t-144 -40.5q-84 0 -168 42l23 128q62 -39 130 -39q34 0 53 13t19 36q0 60 -179 65l16 109q-203 20 -309.5 137.5t-107.5 332.5l249 43q8 -171 68.5 -245.5t196.5 -74.5q94 0 149 45.5
t55 121.5q0 73 -50.5 124.5t-172.5 107.5l-158 72q-71 33 -119.5 64t-95 77.5t-69.5 110.5t-23 146q1 183 116.5 282.5t325.5 99.5q230 0 350 -113t117 -330l-235 -40q-3 146 -60.5 216.5t-174.5 70.5q-87 0 -137 -40.5t-50 -108.5q0 -70 47.5 -118.5t175.5 -103.5l159 -69
q55 -24 95.5 -46t85 -57t72 -74.5t46 -97t18.5 -125.5z" />
    <glyph glyph-name="scedilla" unicode="&#x15f;" horiz-adv-x="906" 
d="M860 280q0 -132 -87.5 -210t-249.5 -90l-7 -56q162 -24 162 -145q0 -72 -52 -112.5t-144 -40.5q-84 0 -168 42l23 128q62 -39 130 -39q34 0 53 13t19 36q0 60 -179 65l16 112q-157 17 -241.5 99.5t-86.5 224.5l249 46q-3 -202 167 -202q133 0 133 103q0 53 -38 89
t-134 79l-125 55q-103 47 -167.5 120.5t-64.5 173.5q0 145 96.5 223t277.5 78q189 0 288 -77.5t100 -227.5l-244 -40q3 90 -32.5 131.5t-109.5 41.5q-61 0 -94 -23.5t-33 -68.5q0 -48 37.5 -83.5t130.5 -74.5l124 -53q54 -23 93 -47t78 -61t59.5 -89.5t20.5 -119.5z" />
    <glyph glyph-name="Scaron" unicode="&#x160;" horiz-adv-x="1094" 
d="M237 1681h205l109 -85l110 85h204l-195 -191h-237zM559 -24q-243 0 -372 118.5t-130 355.5l249 43q8 -171 68.5 -245.5t196.5 -74.5q94 0 149 45.5t55 121.5q0 73 -50.5 124.5t-172.5 107.5l-158 72q-71 33 -119.5 64t-95 77.5t-69.5 110.5t-23 146q1 183 116.5 282.5
t325.5 99.5q230 0 350 -113t117 -330l-235 -40q-3 146 -60.5 216.5t-174.5 70.5q-87 0 -137 -40.5t-50 -108.5q0 -70 47.5 -118.5t175.5 -103.5l159 -69q55 -24 95.5 -46t85 -57t72 -74.5t46 -97t18.5 -125.5q0 -194 -127 -303t-352 -109z" />
    <glyph glyph-name="scaron" unicode="&#x161;" horiz-adv-x="906" 
d="M145 1400h195l114 -120l113 120h195l-193 -260h-232zM465 -22q-199 0 -307 83.5t-110 245.5l249 46q-3 -202 167 -202q133 0 133 103q0 53 -38 89t-134 79l-125 55q-103 47 -167.5 120.5t-64.5 173.5q0 145 96.5 223t277.5 78q189 0 288 -77.5t100 -227.5l-244 -40
q3 90 -32.5 131.5t-109.5 41.5q-61 0 -94 -23.5t-33 -68.5q0 -48 37.5 -83.5t130.5 -74.5l124 -53q54 -23 93 -47t78 -61t59.5 -89.5t20.5 -119.5q0 -144 -103 -223t-292 -79z" />
    <glyph glyph-name="uni0162" unicode="&#x162;" horiz-adv-x="975" 
d="M621 0h-61l-10 -76q162 -24 162 -145q0 -72 -52 -112.5t-144 -40.5q-84 0 -168 42l23 128q62 -39 130 -39q34 0 53 13t19 36q0 60 -179 65l19 129h-59v1184h-334v216h935v-216h-334v-1184z" />
    <glyph glyph-name="uni0163" unicode="&#x163;" horiz-adv-x="721" 
d="M668 24q-69 -35 -168 -45l-7 -55q162 -24 162 -145q0 -72 -52 -112.5t-144 -40.5q-84 0 -168 42l23 128q62 -39 130 -39q34 0 53 13t19 36q0 60 -179 65l17 117q-182 45 -182 285v586h-137v191h137v231l262 78v-309h245v-191h-245v-555q0 -64 26 -92t82 -28q71 0 141 30z
" />
    <glyph glyph-name="Tcaron" unicode="&#x164;" horiz-adv-x="975" 
d="M174 1681h205l109 -85l110 85h204l-195 -191h-237zM354 0v1184h-334v216h935v-216h-334v-1184h-267z" />
    <glyph glyph-name="tcaron" unicode="&#x165;" horiz-adv-x="721" 
d="M492 1400h206v-121q0 -91 -43 -130.5t-150 -44.5l-13 70q56 2 76 19.5t20 60.5h-96v146zM454 -23q-141 0 -211.5 73t-70.5 223v586h-137v191h137v231l262 78v-309h245v-191h-245v-555q0 -64 26 -92t82 -28q71 0 141 30l-15 -190q-91 -47 -214 -47z" />
    <glyph glyph-name="Tbar" unicode="&#x166;" horiz-adv-x="975" 
d="M955 1184h-334v-405h196v-186h-196v-593h-267v593h-201v186h201v405h-334v216h935v-216z" />
    <glyph glyph-name="tbar" unicode="&#x167;" horiz-adv-x="721" 
d="M542 184q71 0 141 30l-15 -190q-91 -47 -214 -47q-141 0 -211.5 73t-70.5 223v217h-137v170h137v199h-137v191h137v231l262 78v-309h245v-191h-245v-199h240v-170h-240v-186q0 -64 26 -92t82 -28z" />
    <glyph glyph-name="Utilde" unicode="&#x168;" horiz-adv-x="1170" 
d="M723 1486q-48 0 -102 22t-97 43.5t-63 21.5q-28 0 -41 -19t-16 -62h-136q4 110 52 166.5t135 56.5q49 0 101.5 -21.5t94 -43.5t62.5 -22q26 0 38 19t15 62h136q-4 -109 -51 -166t-128 -57zM803 1400h266v-999q0 -210 -123 -318t-361 -108q-239 0 -362 108t-123 318v999
h267v-980q0 -241 218 -241t218 241v980z" />
    <glyph glyph-name="utilde" unicode="&#x169;" horiz-adv-x="1008" 
d="M649 1172q-48 0 -103.5 23t-99.5 46.5t-64 23.5q-28 0 -41 -20t-16 -67h-141q5 123 46.5 183.5t129.5 60.5q38 0 81 -14.5t73 -32t61 -32t49 -14.5q26 0 38 20t15 67h140q-9 -244 -168 -244zM914 1050v-1050h-259q3 98 52 246l-20 8q-56 -139 -139.5 -204.5t-198.5 -65.5
q-261 0 -261 270v796h262v-740q0 -69 29.5 -105.5t84.5 -36.5q85 0 137 89.5t52 235.5v557h261z" />
    <glyph glyph-name="Umacron" unicode="&#x16a;" horiz-adv-x="1170" 
d="M308 1523v163h553v-163h-553zM803 1400h266v-999q0 -210 -123 -318t-361 -108q-239 0 -362 108t-123 318v999h267v-980q0 -241 218 -241t218 241v980z" />
    <glyph glyph-name="umacron" unicode="&#x16b;" horiz-adv-x="1008" 
d="M224 1173v163h553v-163h-553zM914 1050v-1050h-259q3 98 52 246l-20 8q-56 -139 -139.5 -204.5t-198.5 -65.5q-261 0 -261 270v796h262v-740q0 -69 29.5 -105.5t84.5 -36.5q85 0 137 89.5t52 235.5v557h261z" />
    <glyph glyph-name="Ubreve" unicode="&#x16c;" horiz-adv-x="1170" 
d="M695 1681h175q-5 -109 -73.5 -152.5t-211.5 -43.5t-211.5 43.5t-73.5 152.5h175q3 -73 110 -73q106 0 110 73zM803 1400h266v-999q0 -210 -123 -318t-361 -108q-239 0 -362 108t-123 318v999h267v-980q0 -241 218 -241t218 241v980z" />
    <glyph glyph-name="ubreve" unicode="&#x16d;" horiz-adv-x="1008" 
d="M603 1400h175q-5 -134 -71 -197.5t-205 -63.5t-205 63t-71 198h175q4 -63 27 -90t74 -27t74 27t27 90zM914 1050v-1050h-259q3 98 52 246l-20 8q-56 -139 -139.5 -204.5t-198.5 -65.5q-261 0 -261 270v796h262v-740q0 -69 29.5 -105.5t84.5 -36.5q85 0 137 89.5t52 235.5
v557h261z" />
    <glyph glyph-name="Uring" unicode="&#x16e;" horiz-adv-x="1170" 
d="M585 1462q-108 0 -168.5 46t-60.5 128t60.5 128t168.5 46t168.5 -46t60.5 -128t-60.5 -128t-168.5 -46zM585 1572q38 0 59 17t21 47t-21 47.5t-59 17.5t-59 -17.5t-21 -47.5t21 -47t59 -17zM803 1400h266v-999q0 -210 -123 -318t-361 -108q-239 0 -362 108t-123 318v999
h267v-980q0 -241 218 -241t218 241v980z" />
    <glyph glyph-name="uring" unicode="&#x16f;" horiz-adv-x="1008" 
d="M502 1134q-104 0 -167.5 60.5t-63.5 158.5t63.5 158.5t167.5 60.5t167.5 -60.5t63.5 -158.5t-63.5 -158.5t-167.5 -60.5zM502 1268q37 0 61 24t24 61t-24 61t-61 24t-61 -24t-24 -61t23.5 -61t61.5 -24zM914 1050v-1050h-259q3 98 52 246l-20 8q-56 -139 -139.5 -204.5
t-198.5 -65.5q-261 0 -261 270v796h262v-740q0 -69 29.5 -105.5t84.5 -36.5q85 0 137 89.5t52 235.5v557h261z" />
    <glyph glyph-name="Uhungarumlaut" unicode="&#x170;" horiz-adv-x="1170" 
d="M310 1490l118 191h257l-172 -191h-203zM642 1490l118 191h256l-172 -191h-202zM803 1400h266v-999q0 -210 -123 -318t-361 -108q-239 0 -362 108t-123 318v999h267v-980q0 -241 218 -241t218 241v980z" />
    <glyph glyph-name="uhungarumlaut" unicode="&#x171;" horiz-adv-x="1008" 
d="M383 1400h254l-202 -260h-196zM710 1400h254l-203 -260h-196zM914 1050v-1050h-259q3 98 52 246l-20 8q-56 -139 -139.5 -204.5t-198.5 -65.5q-261 0 -261 270v796h262v-740q0 -69 29.5 -105.5t84.5 -36.5q85 0 137 89.5t52 235.5v557h261z" />
    <glyph glyph-name="Uogonek" unicode="&#x172;" horiz-adv-x="1170" 
d="M803 1400h266v-999q0 -339 -314 -409q-102 -51 -102 -104q0 -42 60 -42q31 0 69 12l-30 -168q-54 -18 -105 -18q-87 0 -132.5 37.5t-45.5 104.5q0 92 87 161q-224 7 -340 115t-116 311v999h267v-980q0 -241 218 -241t218 241v980z" />
    <glyph glyph-name="uogonek" unicode="&#x173;" horiz-adv-x="1008" 
d="M914 0q-67 -22 -103.5 -51.5t-36.5 -61.5q0 -41 58 -41q31 0 70 12l-31 -168q-52 -18 -105 -18q-86 0 -131.5 37.5t-45.5 104.5q0 115 134 186h-68q3 98 52 246l-20 8q-56 -139 -139.5 -204.5t-198.5 -65.5q-261 0 -261 270v796h262v-740q0 -69 29.5 -105.5t84.5 -36.5
q85 0 137 89.5t52 235.5v557h261v-1050z" />
    <glyph glyph-name="Wcircumflex" unicode="&#x174;" horiz-adv-x="1551" 
d="M464 1490l196 191h237l195 -191h-204l-110 85l-109 -85h-205zM299 0l-279 1400h270l130 -719q29 -162 46 -386h23q18 221 44 386l123 719h248l127 -719q29 -179 45 -385h23q20 221 47 385l125 719h260l-272 -1400h-318l-93 528q-36 214 -61 454h-23q-24 -229 -60 -454
l-93 -528h-312z" />
    <glyph glyph-name="wcircumflex" unicode="&#x175;" horiz-adv-x="1372" 
d="M378 1140l192 260h232l193 -260h-195l-113 120l-114 -120h-195zM262 0l-248 1050h268l99 -527q21 -107 34 -242h20q13 123 35 242l99 527h244l105 -527q23 -116 35 -242h20q11 127 32 242l94 527h259l-247 -1050h-295l-79 438q-26 156 -42 306h-20q-13 -147 -40 -306
l-78 -438h-295z" />
    <glyph glyph-name="Ycircumflex" unicode="&#x176;" horiz-adv-x="1054" 
d="M217 1490l196 191h237l195 -191h-204l-110 85l-109 -85h-205zM1037 1400l-376 -848v-552h-267v552l-377 848h284l147 -349q38 -94 77 -230h19q31 115 76 230l145 349h272z" />
    <glyph glyph-name="ycircumflex" unicode="&#x177;" horiz-adv-x="909" 
d="M156 1140l192 260h232l193 -260h-195l-113 120l-114 -120h-195zM66 -374l-31 220l122 12q78 7 112.5 29t42.5 62l10 52l-310 1049h269l126 -551q27 -130 46 -292h20q18 155 46 292l122 551h256l-271 -987q-44 -162 -108 -252t-170.5 -133.5t-281.5 -51.5z" />
    <glyph glyph-name="Ydieresis" unicode="&#x178;" horiz-adv-x="1054" 
d="M231 1500v214h242v-214h-242zM590 1500v214h242v-214h-242zM1037 1400l-376 -848v-552h-267v552l-377 848h284l147 -349q38 -94 77 -230h19q31 115 76 230l145 349h272z" />
    <glyph glyph-name="Zacute" unicode="&#x179;" horiz-adv-x="923" 
d="M361 1490l118 191h257l-172 -191h-203zM23 0l-4 11l437 1017q43 98 75 148l-7 13q-71 -5 -167 -5h-317v216h841l4 -11l-406 -988q-44 -105 -86 -177l7 -12q72 4 168 4h336v-216h-881z" />
    <glyph glyph-name="zacute" unicode="&#x17a;" horiz-adv-x="858" 
d="M475 1400h254l-202 -260h-196zM40 0l-6 15l366 744q25 52 50 90l-6 12q-68 -2 -104 -2h-276v191h750l6 -15l-359 -737q-29 -58 -55 -96l7 -13q48 3 105 3h310v-192h-788z" />
    <glyph glyph-name="Zdotaccent" unicode="&#x17b;" horiz-adv-x="923" 
d="M322 1500v214h279v-214h-279zM23 0l-4 11l437 1017q43 98 75 148l-7 13q-71 -5 -167 -5h-317v216h841l4 -11l-406 -988q-44 -105 -86 -177l7 -12q72 4 168 4h336v-216h-881z" />
    <glyph glyph-name="zdotaccent" unicode="&#x17c;" horiz-adv-x="858" 
d="M292 1169v213h279v-213h-279zM40 0l-6 15l366 744q25 52 50 90l-6 12q-68 -2 -104 -2h-276v191h750l6 -15l-359 -737q-29 -58 -55 -96l7 -13q48 3 105 3h310v-192h-788z" />
    <glyph glyph-name="Zcaron" unicode="&#x17d;" horiz-adv-x="923" 
d="M147 1681h205l109 -85l110 85h204l-195 -191h-237zM23 0l-4 11l437 1017q43 98 75 148l-7 13q-71 -5 -167 -5h-317v216h841l4 -11l-406 -988q-44 -105 -86 -177l7 -12q72 4 168 4h336v-216h-881z" />
    <glyph glyph-name="zcaron" unicode="&#x17e;" horiz-adv-x="858" 
d="M123 1400h195l114 -120l113 120h195l-193 -260h-232zM40 0l-6 15l366 744q25 52 50 90l-6 12q-68 -2 -104 -2h-276v191h750l6 -15l-359 -737q-29 -58 -55 -96l7 -13q48 3 105 3h310v-192h-788z" />
    <glyph glyph-name="Gcaron" unicode="&#x1e6;" horiz-adv-x="1191" 
d="M271 1681h205l109 -85l110 85h204l-195 -191h-237zM501 -18q-213 0 -322 168.5t-109 499.5v107q0 332 133 500t395 168q446 0 480 -454l-255 -46q-6 153 -61.5 222t-162.5 69q-131 0 -194.5 -101.5t-63.5 -311.5v-187q0 -216 59 -320.5t180 -104.5q111 0 175.5 97.5
t84.5 299.5h-285v208h536v-796h-237q-5 103 54 330l-22 6q-60 -181 -151 -267.5t-234 -86.5z" />
    <glyph glyph-name="gcaron" unicode="&#x1e7;" horiz-adv-x="947" 
d="M511 1137h-197l-144 254h151l92 -133l92 133h151zM584 259q39 -5 69 -11t68.5 -17t66.5 -26t57.5 -38.5t48 -53.5t30 -72.5t11.5 -93.5q0 -165 -117.5 -243t-360.5 -78q-445 0 -445 245q0 178 183 215v16q-157 55 -157 180q0 139 172 170v17q-133 86 -133 271
q0 162 102.5 248t294.5 86q78 0 143 -15q-32 134 36.5 220.5t230.5 96.5l26 -233l-92 -9q-67 -5 -97.5 -28t-28.5 -71q178 -80 178 -295q0 -162 -102 -248t-294 -86q-94 0 -168 21q-73 -11 -73 -56q0 -37 39.5 -56.5t154.5 -34.5zM474 926q-68 0 -101 -45t-33 -141
t32.5 -140.5t101.5 -44.5q68 0 100.5 45t32.5 140q0 96 -32.5 141t-100.5 45zM472 -194q130 0 188.5 27t58.5 88q0 62 -48 88.5t-172 42.5l-159 19l-31 4q-60 -21 -85 -53.5t-25 -81.5q0 -70 64 -102t209 -32z" />
    <glyph glyph-name="uni01EA" unicode="&#x1ea;" horiz-adv-x="1205" 
d="M603 1425q532 0 532 -677v-107q0 -558 -372 -648q-103 -53 -103 -105q0 -42 60 -42q32 0 69 12l-30 -168q-54 -18 -105 -18q-87 0 -132.5 37.5t-45.5 104.5q0 92 87 162q-493 24 -493 665v107q0 677 533 677zM864 587v216q0 210 -64.5 311.5t-197.5 101.5
q-132 0 -196.5 -102t-64.5 -311v-216q0 -204 65 -303.5t197 -99.5t196.5 99t64.5 304z" />
    <glyph glyph-name="uni01EB" unicode="&#x1eb;" horiz-adv-x="999" 
d="M499 1075q211 0 324 -133.5t113 -381.5v-73q0 -205 -79 -332t-229 -165q-98 -50 -98 -102q0 -42 60 -42q32 0 69 12l-30 -168q-54 -18 -105 -18q-87 0 -132.5 37.5t-45.5 104.5q0 92 90 164q-181 20 -277 151t-96 358v73q0 248 113 381.5t323 133.5zM332 444
q0 -287 167 -287q168 0 168 287v162q0 287 -168 287q-167 0 -167 -287v-162z" />
    <glyph glyph-name="AEacute" unicode="&#x1fc;" horiz-adv-x="1529" 
d="M617 1490l118 191h257l-172 -191h-203zM17 0l503 1400h932v-216h-491v-362h448v-190h-448v-415h510v-217h-777v253h-323l-93 -253h-261zM433 448h261v746h-20q-22 -100 -62 -230z" />
    <glyph glyph-name="aeacute" unicode="&#x1fd;" horiz-adv-x="1509" 
d="M1050 1400l-202 -260h-196l144 260h254zM1030 156q73 0 114.5 49.5t49.5 162.5l250 -30q-18 -179 -127 -270.5t-292 -91.5q-320 0 -366 260h-18q-58 -260 -328 -260q-123 0 -192 70t-69 193v11q0 81 29 142t84 101t111.5 64t135.5 45l184 49v98q0 75 -30 110.5t-96 35.5
q-77 0 -111 -55.5t-28 -179.5l-257 25q-8 188 93.5 288.5t301.5 100.5q185 0 283 -108q111 108 286 108q197 0 301.5 -117.5t104.5 -336.5q0 -83 -7 -160h-581v-50q0 -254 174 -254zM1028 894q-172 0 -172 -262v-4h332v46q0 220 -160 220zM596 403v84l-103 -31
q-85 -24 -131 -66t-46 -111v-9q0 -51 25 -78t72 -27q80 0 131.5 66.5t51.5 171.5z" />
    <glyph glyph-name="Oslashacute" unicode="&#x1fe;" horiz-adv-x="1216" 
d="M882 1681l-172 -191h-203l118 191h257zM1005 1262q141 -170 141 -514v-107q0 -330 -135.5 -498t-402.5 -168q-146 0 -250 49l-65 -124h-206l124 237q-141 167 -141 504v107q0 335 135.5 506t402.5 171q142 0 250 -50l65 125h206zM341 588q0 -98 15 -173l397 760
q-58 43 -145 43q-135 0 -201 -102.5t-66 -313.5v-214zM875 588v214q0 107 -16 181l-397 -759q58 -42 146 -42q135 0 201 100.5t66 305.5z" />
    <glyph glyph-name="oslashacute" unicode="&#x1ff;" horiz-adv-x="947" 
d="M769 1400l-202 -260h-196l144 260h254zM762 978q148 -131 148 -418v-73q0 -248 -113 -380t-324 -132q-92 0 -167 26l-52 -110h-152l84 179q-149 131 -149 417v73q0 248 112.5 381.5t323.5 133.5q95 0 170 -27l51 110h152zM290 444q0 -72 12 -126l258 553q-37 22 -87 22
q-183 0 -183 -288v-161zM657 444v161q0 67 -11 124l-258 -551q36 -21 85 -21q184 0 184 287z" />
    <glyph glyph-name="uni0218" unicode="&#x218;" horiz-adv-x="1094" 
d="M559 -24q-243 0 -372 118.5t-130 355.5l249 43q8 -171 68.5 -245.5t196.5 -74.5q94 0 149 45.5t55 121.5q0 73 -50.5 124.5t-172.5 107.5l-158 72q-71 33 -119.5 64t-95 77.5t-69.5 110.5t-23 146q1 183 116.5 282.5t325.5 99.5q230 0 350 -113t117 -330l-235 -40
q-3 146 -60.5 216.5t-174.5 70.5q-87 0 -137 -40.5t-50 -108.5q0 -70 47.5 -118.5t175.5 -103.5l159 -69q55 -24 95.5 -46t85 -57t72 -74.5t46 -97t18.5 -125.5q0 -194 -127 -303t-352 -109zM437 -88h229v-121q0 -97 -45 -134.5t-171 -42.5l-13 70q62 3 85 20.5t23 61.5
h-108v146z" />
    <glyph glyph-name="uni0219" unicode="&#x219;" horiz-adv-x="906" 
d="M465 -22q-199 0 -307 83.5t-110 245.5l249 46q-3 -202 167 -202q133 0 133 103q0 53 -38 89t-134 79l-125 55q-103 47 -167.5 120.5t-64.5 173.5q0 145 96.5 223t277.5 78q189 0 288 -77.5t100 -227.5l-244 -40q3 90 -32.5 131.5t-109.5 41.5q-61 0 -94 -23.5t-33 -68.5
q0 -48 37.5 -83.5t130.5 -74.5l124 -53q54 -23 93 -47t78 -61t59.5 -89.5t20.5 -119.5q0 -144 -103 -223t-292 -79zM339 -88h229v-121q0 -97 -45 -134.5t-171 -42.5l-13 70q62 3 85 20.5t23 61.5h-108v146z" />
    <glyph glyph-name="uni021A" unicode="&#x21a;" horiz-adv-x="975" 
d="M354 0v1184h-334v216h935v-216h-334v-1184h-267zM373 -88h229v-121q0 -97 -45 -134.5t-171 -42.5l-13 70q62 3 85 20.5t23 61.5h-108v146z" />
    <glyph glyph-name="uni021B" unicode="&#x21b;" horiz-adv-x="721" 
d="M454 -23q-141 0 -211.5 73t-70.5 223v586h-137v191h137v231l262 78v-309h245v-191h-245v-555q0 -64 26 -92t82 -28q71 0 141 30l-15 -190q-91 -47 -214 -47zM315 -88h229v-121q0 -97 -45 -134.5t-171 -42.5l-13 70q62 3 85 20.5t23 61.5h-108v146z" />
    <glyph glyph-name="uni0237" unicode="&#x237;" horiz-adv-x="448" 
d="M-87 -374l-31 225l86 7q67 6 96 33t29 89v1070h262v-1010q0 -206 -110.5 -306t-331.5 -108z" />
    <glyph glyph-name="circumflex" unicode="&#x2c6;" horiz-adv-x="617" 
d="M0 1140l192 260h232l193 -260h-195l-113 120l-114 -120h-195z" />
    <glyph glyph-name="caron" unicode="&#x2c7;" horiz-adv-x="617" 
d="M0 1400h195l114 -120l113 120h195l-193 -260h-232z" />
    <glyph glyph-name="breve" unicode="&#x2d8;" horiz-adv-x="552" 
d="M377 1400h175q-5 -134 -71 -197.5t-205 -63.5t-205 63t-71 198h175q4 -63 27 -90t74 -27t74 27t27 90z" />
    <glyph glyph-name="dotaccent" unicode="&#x2d9;" horiz-adv-x="279" 
d="M0 1169v213h279v-213h-279z" />
    <glyph glyph-name="ring" unicode="&#x2da;" horiz-adv-x="462" 
d="M231 1134q-104 0 -167.5 60.5t-63.5 158.5t63.5 158.5t167.5 60.5t167.5 -60.5t63.5 -158.5t-63.5 -158.5t-167.5 -60.5zM231 1268q37 0 61 24t24 61t-24 61t-61 24t-61 -24t-24 -61t24 -61t61 -24z" />
    <glyph glyph-name="ogonek" unicode="&#x2db;" horiz-adv-x="276" 
d="M147 16l177 -6q-74 -33 -107 -61.5t-33 -60.5q0 -42 60 -42q32 0 69 12l-30 -168q-54 -18 -105 -18q-87 0 -132.5 37.5t-45.5 104.5q0 119 147 202z" />
    <glyph glyph-name="tilde" unicode="&#x2dc;" horiz-adv-x="603" 
d="M450 1172q-48 0 -103.5 23t-99.5 46.5t-64 23.5q-28 0 -41 -20t-16 -67h-141q5 123 46.5 183.5t129.5 60.5q38 0 81 -14.5t73 -32t61 -32t49 -14.5q26 0 38 20t15 67h140q-9 -244 -168 -244z" />
    <glyph glyph-name="hungarumlaut" unicode="&#x2dd;" horiz-adv-x="725" 
d="M144 1400h254l-202 -260h-196zM471 1400h254l-203 -260h-196z" />
    <glyph glyph-name="gravecomb" unicode="&#x300;" 
d="M-144 1400l144 -260h-195l-203 260h254z" />
    <glyph glyph-name="acutecomb" unicode="&#x301;" 
d="M-254 1400h254l-202 -260h-196z" />
    <glyph glyph-name="uni0302" unicode="&#x302;" 
d="M-617 1140l192 260h232l193 -260h-195l-113 120l-114 -120h-195z" />
    <glyph glyph-name="tildecomb" unicode="&#x303;" 
d="M-153 1172q-48 0 -103.5 23t-99.5 46.5t-64 23.5q-28 0 -41 -20t-16 -67h-141q5 123 46.5 183.5t129.5 60.5q38 0 81 -14.5t73 -32t61 -32t49 -14.5q26 0 38 20t15 67h140q-9 -244 -168 -244z" />
    <glyph glyph-name="uni0304" unicode="&#x304;" 
d="M-553 1173v163h553v-163h-553z" />
    <glyph glyph-name="uni0306" unicode="&#x306;" 
d="M-175 1400h175q-5 -134 -71 -197.5t-205 -63.5t-205 63t-71 198h175q4 -63 27 -90t74 -27t74 27t27 90z" />
    <glyph glyph-name="uni0307" unicode="&#x307;" 
d="M-279 1169v213h279v-213h-279z" />
    <glyph glyph-name="uni0308" unicode="&#x308;" 
d="M-601 1168v214h242v-214h-242zM-242 1168v214h242v-214h-242z" />
    <glyph glyph-name="uni030A" unicode="&#x30a;" 
d="M-231 1134q-104 0 -167.5 60.5t-63.5 158.5t63.5 158.5t167.5 60.5t167.5 -60.5t63.5 -158.5t-63.5 -158.5t-167.5 -60.5zM-231 1268q37 0 61 24t24 61t-24 61t-61 24t-61 -24t-24 -61t24 -61t61 -24z" />
    <glyph glyph-name="uni030B" unicode="&#x30b;" 
d="M-581 1400h254l-202 -260h-196zM-254 1400h254l-203 -260h-196z" />
    <glyph glyph-name="uni030C" unicode="&#x30c;" 
d="M-617 1400h195l114 -120l113 120h195l-193 -260h-232z" />
    <glyph glyph-name="uni0326" unicode="&#x326;" 
d="M-229 -88h229v-121q0 -97 -45 -134.5t-171 -42.5l-13 70q62 3 85 20.5t23 61.5h-108v146z" />
    <glyph glyph-name="uni0327" unicode="&#x327;" 
d="M-196 -374q-84 0 -168 42l23 128q62 -39 130 -39q34 0 53 13t19 36q0 60 -179 65l20 139h147l-11 -86q162 -24 162 -145q0 -72 -52 -112.5t-144 -40.5z" />
    <glyph glyph-name="uni0328" unicode="&#x328;" 
d="M-183 4l183 -4q-67 -22 -103.5 -51.5t-36.5 -61.5q0 -41 58 -41q31 0 70 12l-31 -168q-52 -18 -105 -18q-86 0 -131.5 37.5t-45.5 104.5q0 118 142 190z" />
    <glyph glyph-name="Wgrave" unicode="&#x1e80;" horiz-adv-x="1551" 
d="M879 1490h-203l-172 191h256zM299 0l-279 1400h270l130 -719q29 -162 46 -386h23q18 221 44 386l123 719h248l127 -719q29 -179 45 -385h23q20 221 47 385l125 719h260l-272 -1400h-318l-93 528q-36 214 -61 454h-23q-24 -229 -60 -454l-93 -528h-312z" />
    <glyph glyph-name="wgrave" unicode="&#x1e81;" horiz-adv-x="1372" 
d="M642 1400l144 -260h-195l-203 260h254zM262 0l-248 1050h268l99 -527q21 -107 34 -242h20q13 123 35 242l99 527h244l105 -527q23 -116 35 -242h20q11 127 32 242l94 527h259l-247 -1050h-295l-79 438q-26 156 -42 306h-20q-13 -147 -40 -306l-78 -438h-295z" />
    <glyph glyph-name="Wacute" unicode="&#x1e82;" horiz-adv-x="1551" 
d="M678 1490l118 191h257l-172 -191h-203zM299 0l-279 1400h270l130 -719q29 -162 46 -386h23q18 221 44 386l123 719h248l127 -719q29 -179 45 -385h23q20 221 47 385l125 719h260l-272 -1400h-318l-93 528q-36 214 -61 454h-23q-24 -229 -60 -454l-93 -528h-312z" />
    <glyph glyph-name="wacute" unicode="&#x1e83;" horiz-adv-x="1372" 
d="M730 1400h254l-202 -260h-196zM262 0l-248 1050h268l99 -527q21 -107 34 -242h20q13 123 35 242l99 527h244l105 -527q23 -116 35 -242h20q11 127 32 242l94 527h259l-247 -1050h-295l-79 438q-26 156 -42 306h-20q-13 -147 -40 -306l-78 -438h-295z" />
    <glyph glyph-name="Wdieresis" unicode="&#x1e84;" horiz-adv-x="1551" 
d="M478 1500v214h242v-214h-242zM837 1500v214h242v-214h-242zM299 0l-279 1400h270l130 -719q29 -162 46 -386h23q18 221 44 386l123 719h248l127 -719q29 -179 45 -385h23q20 221 47 385l125 719h260l-272 -1400h-318l-93 528q-36 214 -61 454h-23q-24 -229 -60 -454
l-93 -528h-312z" />
    <glyph glyph-name="wdieresis" unicode="&#x1e85;" horiz-adv-x="1372" 
d="M386 1168v214h242v-214h-242zM745 1168v214h242v-214h-242zM262 0l-248 1050h268l99 -527q21 -107 34 -242h20q13 123 35 242l99 527h244l105 -527q23 -116 35 -242h20q11 127 32 242l94 527h259l-247 -1050h-295l-79 438q-26 156 -42 306h-20q-13 -147 -40 -306
l-78 -438h-295z" />
    <glyph glyph-name="uni1E9E" unicode="&#x1e9e;" horiz-adv-x="1047" 
d="M672 -10q-142 0 -222 88l66 166q54 -80 127 -80q105 0 105 103q0 43 -22 84t-72 106l-61 79q-93 119 -93 219q0 47 16.5 89t41.5 70t54 56t54 49.5t41.5 48.5t16.5 55q0 58 -45 88.5t-128 30.5q-192 0 -192 -188v-1054h-266v1042q0 188 115 285t341 97q203 0 309 -70
t106 -206q0 -49 -22.5 -92.5t-55 -75.5t-65 -62t-55 -65t-22.5 -72q0 -38 18.5 -73.5t66.5 -95.5l61 -76q54 -67 83.5 -131t29.5 -143q0 -132 -84.5 -202t-246.5 -70z" />
    <glyph glyph-name="uni1EBC" unicode="&#x1ebc;" horiz-adv-x="965" 
d="M639 1486q-48 0 -102 22t-97 43.5t-63 21.5q-28 0 -41 -19t-16 -62h-136q4 110 52 166.5t135 56.5q49 0 101.5 -21.5t94 -43.5t62.5 -22q26 0 38 19t15 62h136q-4 -109 -51 -166t-128 -57zM371 217h536v-217h-802v1400h783v-216h-517v-362h474v-190h-474v-415z" />
    <glyph glyph-name="uni1EBD" unicode="&#x1ebd;" horiz-adv-x="986" 
d="M375 1265q-28 0 -41 -20t-16 -67h-141q5 123 46.5 183.5t129.5 60.5q38 0 81 -14.5t73 -32t61 -32t49 -14.5q26 0 38 20t15 67h140q-9 -244 -168 -244q-48 0 -103.5 23t-99.5 46.5t-64 23.5zM671 368l250 -30q-18 -180 -128.5 -271t-298.5 -91q-209 0 -320 124t-111 359
v129q0 236 113 361t327 125q202 0 309.5 -117.5t107.5 -336.5q0 -86 -7 -163h-590v-46q0 -256 177 -256q77 0 119.5 49.5t50.5 163.5h1zM500 894q-177 0 -177 -263v-3h336v46q0 220 -159 220z" />
    <glyph glyph-name="Ygrave" unicode="&#x1ef2;" horiz-adv-x="1054" 
d="M632 1490h-203l-172 191h256zM1037 1400l-376 -848v-552h-267v552l-377 848h284l147 -349q38 -94 77 -230h19q31 115 76 230l145 349h272z" />
    <glyph glyph-name="ygrave" unicode="&#x1ef3;" horiz-adv-x="909" 
d="M420 1400l144 -260h-195l-203 260h254zM66 -374l-31 220l122 12q78 7 112.5 29t42.5 62l10 52l-310 1049h269l126 -551q27 -130 46 -292h20q18 155 46 292l122 551h256l-271 -987q-44 -162 -108 -252t-170.5 -133.5t-281.5 -51.5z" />
    <glyph glyph-name="uni1EF8" unicode="&#x1ef8;" horiz-adv-x="1054" 
d="M669 1486q-48 0 -102 22t-97 43.5t-63 21.5q-28 0 -41 -19t-16 -62h-136q4 110 52 166.5t135 56.5q49 0 101.5 -21.5t94 -43.5t62.5 -22q26 0 38 19t15 62h136q-4 -109 -51 -166t-128 -57zM1037 1400l-376 -848v-552h-267v552l-377 848h284l147 -349q38 -94 77 -230h19
q31 115 76 230l145 349h272z" />
    <glyph glyph-name="uni1EF9" unicode="&#x1ef9;" horiz-adv-x="909" 
d="M612 1172q-48 0 -103.5 23t-99.5 46.5t-64 23.5q-28 0 -41 -20t-16 -67h-141q5 123 46.5 183.5t129.5 60.5q38 0 81 -14.5t73 -32t61 -32t49 -14.5q26 0 38 20t15 67h140q-9 -244 -168 -244zM66 -374l-31 220l122 12q78 7 112.5 29t42.5 62l10 52l-310 1049h269l126 -551
q27 -130 46 -292h20q18 155 46 292l122 551h256l-271 -987q-44 -162 -108 -252t-170.5 -133.5t-281.5 -51.5z" />
    <glyph glyph-name="uni2002" unicode="&#x2002;" horiz-adv-x="1024" 
 />
    <glyph glyph-name="uni2003" unicode="&#x2003;" horiz-adv-x="2048" 
 />
    <glyph glyph-name="uni2004" unicode="&#x2004;" horiz-adv-x="683" 
 />
    <glyph glyph-name="uni2005" unicode="&#x2005;" horiz-adv-x="512" 
 />
    <glyph glyph-name="uni2006" unicode="&#x2006;" horiz-adv-x="341" 
 />
    <glyph glyph-name="uni2007" unicode="&#x2007;" horiz-adv-x="1039" 
 />
    <glyph glyph-name="uni2008" unicode="&#x2008;" horiz-adv-x="455" 
 />
    <glyph glyph-name="uni2009" unicode="&#x2009;" horiz-adv-x="410" 
 />
    <glyph glyph-name="uni200A" unicode="&#x200a;" horiz-adv-x="293" 
 />
    <glyph glyph-name="endash" unicode="&#x2013;" horiz-adv-x="992" 
d="M68 636h856v-180h-856v180z" />
    <glyph glyph-name="emdash" unicode="&#x2014;" horiz-adv-x="1434" 
d="M68 636h1299v-180h-1299v180z" />
    <glyph glyph-name="quoteleft" unicode="&#x2018;" horiz-adv-x="457" 
d="M383 848h-311v227q0 173 72.5 254.5t231.5 95.5l26 -118q-92 -14 -131.5 -54.5t-39.5 -126.5h152v-278z" />
    <glyph glyph-name="quoteright" unicode="&#x2019;" horiz-adv-x="457" 
d="M74 1400h311v-227q0 -173 -72.5 -254.5t-231.5 -95.5l-26 118q92 14 131.5 54.5t39.5 126.5h-152v278z" />
    <glyph glyph-name="quotesinglbase" unicode="&#x201a;" horiz-adv-x="455" 
d="M72 278h311v-227q0 -173 -72 -254.5t-232 -95.5l-26 118q92 14 131.5 54.5t39.5 126.5h-152v278z" />
    <glyph glyph-name="quotedblleft" unicode="&#x201c;" horiz-adv-x="835" 
d="M383 848h-311v227q0 173 72.5 254.5t231.5 95.5l26 -118q-92 -14 -131.5 -54.5t-39.5 -126.5h152v-278zM763 848h-311v227q0 173 72.5 254.5t231.5 95.5l26 -118q-92 -14 -131.5 -54.5t-39.5 -126.5h152v-278z" />
    <glyph glyph-name="quotedblright" unicode="&#x201d;" horiz-adv-x="837" 
d="M74 1400h311v-227q0 -173 -72.5 -254.5t-231.5 -95.5l-26 118q92 14 131.5 54.5t39.5 126.5h-152v278zM454 1400h311v-227q0 -173 -72.5 -254.5t-231.5 -95.5l-26 118q92 14 131.5 54.5t39.5 126.5h-152v278z" />
    <glyph glyph-name="quotedblbase" unicode="&#x201e;" horiz-adv-x="835" 
d="M72 278h311v-227q0 -173 -72 -254.5t-232 -95.5l-26 118q92 14 131.5 54.5t39.5 126.5h-152v278zM452 278h311v-227q0 -173 -72 -254.5t-232 -95.5l-26 118q92 14 131.5 54.5t39.5 126.5h-152v278z" />
    <glyph glyph-name="dagger" unicode="&#x2020;" horiz-adv-x="1076" 
d="M521 -349q-78 533 -91 1187l-325 -24v246l325 -25l-15 365h246l-15 -365l326 25v-246l-326 24q-13 -653 -91 -1188z" />
    <glyph glyph-name="daggerdbl" unicode="&#x2021;" horiz-adv-x="1076" 
d="M415 -350l15 365l-325 -25v246l337 -24l8 313l-8 313l-337 -24v246l325 -25l-15 365h246l-15 -365l326 25v-246l-337 24l-8 -313l8 -313l337 24v-246l-326 25l15 -365h-246z" />
    <glyph glyph-name="bullet" unicode="&#x2022;" horiz-adv-x="760" 
d="M216 370v327h328v-327h-328z" />
    <glyph glyph-name="ellipsis" unicode="&#x2026;" horiz-adv-x="1260" 
d="M72 278h292v-278h-292v278zM485 278h291v-278h-291v278zM897 278h291v-278h-291v278z" />
    <glyph glyph-name="perthousand" unicode="&#x2030;" horiz-adv-x="2291" 
d="M388 723q-153 0 -239 85.5t-86 246.5v35q0 163 86 249t239 86q154 0 240 -86t86 -249v-35q0 -161 -86 -246.5t-240 -85.5zM262 0l816 1400h233l-816 -1400h-233zM388 861q50 0 82.5 43t32.5 124v91q0 81 -32 124.5t-83 43.5q-50 0 -82 -43.5t-32 -124.5v-91
q0 -81 32 -124t82 -43zM1184 -23q-154 0 -239.5 85.5t-85.5 246.5v35q0 163 85.5 248.5t239.5 85.5t240 -85.5t86 -248.5v-35q0 -161 -86 -246.5t-240 -85.5zM1902 -23q-154 0 -239.5 85.5t-85.5 246.5v35q0 163 85.5 248.5t239.5 85.5t240 -85.5t86 -248.5v-35
q0 -161 -86 -246.5t-240 -85.5zM1184 115q50 0 82 43t32 124v91q0 82 -32 125t-82 43t-82 -43t-32 -125v-91q0 -81 32 -124t82 -43zM1902 115q50 0 82 43t32 124v91q0 82 -32 125t-82 43t-82 -43t-32 -125v-91q0 -81 32 -124t82 -43z" />
    <glyph glyph-name="guilsinglleft" unicode="&#x2039;" horiz-adv-x="634" 
d="M344 100l-281 425l281 425h227l-273 -425l273 -425h-227z" />
    <glyph glyph-name="guilsinglright" unicode="&#x203a;" horiz-adv-x="634" 
d="M290 100h-227l273 425l-273 425h227l281 -425z" />
    <glyph glyph-name="fraction" unicode="&#x2044;" horiz-adv-x="434" 
d="M-260 0l737 1400h218l-738 -1400h-217z" />
    <glyph glyph-name="Euro" unicode="&#x20ac;" horiz-adv-x="1191" 
d="M869 550l256 -58q-16 -257 -143.5 -387t-356.5 -130q-458 0 -506 538h-104v144h98v92h-98v144h104q51 531 504 531q232 0 355.5 -130.5t133.5 -391.5l-250 -43q-2 184 -61.5 271t-175.5 87q-111 0 -171 -79.5t-72 -244.5h341l-33 -144h-311v-92h290l-33 -144h-254
q10 -167 70.5 -248t173.5 -81q230 0 243 366z" />
    <glyph glyph-name="trademark" unicode="&#x2122;" horiz-adv-x="1581" 
d="M201 560v679h-181v161h568v-161h-181v-679h-206zM645 560v840h245l117 -383q33 -97 48 -201h14q18 106 48 199l116 385h243v-840h-185l1 382q0 74 6 176l-15 2l-153 -560h-140l-153 561l-15 -2q6 -104 6 -177v-382h-183z" />
    <glyph glyph-name="uni2153" unicode="&#x2153;" horiz-adv-x="1951" 
d="M56 534v164h238v405h-220v135q70 2 108 6.5t68.5 13t43.5 28t20.5 44.5t11.5 70h178v-702h186v-164h-634zM510 0l737 1400h218l-738 -1400h-217zM1581 -17q-327 0 -327 307l212 21q0 -181 119 -181q99 0 99 116v21q0 107 -109 112l-67 3v128l67 2q99 4 99 98v15
q0 108 -97 108q-109 0 -106 -165l-205 20q-1 146 78 219.5t236 73.5q148 0 224 -59.5t76 -173.5v-13q0 -142 -133 -178v-13q154 -34 154 -201v-18q0 -116 -82.5 -179t-237.5 -63z" />
    <glyph glyph-name="uni2154" unicode="&#x2154;" horiz-adv-x="1938" 
d="M69 534v137q201 142 297.5 260t96.5 231q0 98 -86 98q-56 0 -79 -47t-19 -150l-207 20q-8 171 67.5 252t244.5 81q290 0 290 -242q1 -138 -78.5 -250.5t-244.5 -221.5l2 -9q36 4 100 4h221v-163h-605zM497 0l737 1400h218l-738 -1400h-217zM1568 -17q-327 0 -327 307
l212 21q0 -181 119 -181q99 0 99 116v21q0 107 -109 112l-67 3v128l67 2q99 4 99 98v15q0 108 -97 108q-109 0 -106 -165l-205 20q-1 146 78 219.5t236 73.5q148 0 224 -59.5t76 -173.5v-13q0 -142 -133 -178v-13q154 -34 154 -201v-18q0 -116 -82.5 -179t-237.5 -63z" />
    <glyph glyph-name="oneeighth" unicode="&#x215b;" horiz-adv-x="1951" 
d="M56 534v164h238v405h-220v135q70 2 108 6.5t68.5 13t43.5 28t20.5 44.5t11.5 70h178v-702h186v-164h-634zM510 0l737 1400h218l-738 -1400h-217zM1577 -17q-333 0 -333 242v24q0 158 153 194v13q-132 39 -132 177v20q0 228 312 228q313 0 313 -228v-20q0 -137 -133 -177
v-13q153 -35 153 -194v-24q0 -242 -333 -242zM1577 512q109 0 109 103v20q0 101 -109 101t-109 -101v-20q0 -103 109 -103zM1577 128q60 0 89 26.5t29 83.5v27q0 111 -118 111q-117 0 -117 -111v-27q0 -56 28.5 -83t88.5 -27z" />
    <glyph glyph-name="threeeighths" unicode="&#x215c;" horiz-adv-x="1928" 
d="M377 517q-327 0 -327 307l212 21q0 -181 119 -181q99 0 99 116v21q0 107 -109 112l-67 3v128l67 2q99 4 99 98v15q0 108 -97 108q-109 0 -106 -165l-205 20q-1 146 78 219.5t236 73.5q148 0 224 -59.5t76 -173.5v-13q0 -142 -133 -178v-13q154 -34 154 -201v-18
q0 -116 -82.5 -179t-237.5 -63zM487 0l737 1400h218l-738 -1400h-217zM1554 -17q-333 0 -333 242v24q0 158 153 194v13q-132 39 -132 177v20q0 228 312 228q313 0 313 -228v-20q0 -137 -133 -177v-13q153 -35 153 -194v-24q0 -242 -333 -242zM1554 512q109 0 109 103v20
q0 101 -109 101t-109 -101v-20q0 -103 109 -103zM1554 128q60 0 89 26.5t29 83.5v27q0 111 -118 111q-117 0 -117 -111v-27q0 -56 28.5 -83t88.5 -27z" />
    <glyph glyph-name="fiveeighths" unicode="&#x215d;" horiz-adv-x="1928" 
d="M487 0l737 1400h218l-738 -1400h-217zM382 517q-165 0 -247 62t-84 192l212 20q3 -66 30.5 -95.5t81.5 -29.5q56 0 81 32t25 100v31q0 66 -24.5 98t-79.5 32q-46 0 -72.5 -20t-39.5 -64l-205 10l21 514h590v-161h-393l-9 -180q72 42 165 42q263 0 263 -263v-25
q0 -147 -74.5 -221t-240.5 -74zM1554 -17q-333 0 -333 242v24q0 158 153 194v13q-132 39 -132 177v20q0 228 312 228q313 0 313 -228v-20q0 -137 -133 -177v-13q153 -35 153 -194v-24q0 -242 -333 -242zM1554 512q109 0 109 103v20q0 101 -109 101t-109 -101v-20
q0 -103 109 -103zM1554 128q60 0 89 26.5t29 83.5v27q0 111 -118 111q-117 0 -117 -111v-27q0 -56 28.5 -83t88.5 -27z" />
    <glyph glyph-name="seveneighths" unicode="&#x215e;" horiz-adv-x="1843" 
d="M246 534q7 241 61 409t160 285h-415v172h642v-137q-113 -128 -168 -302.5t-60 -426.5h-220zM402 0l737 1400h218l-738 -1400h-217zM1469 -17q-333 0 -333 242v24q0 158 153 194v13q-132 39 -132 177v20q0 228 312 228q313 0 313 -228v-20q0 -137 -133 -177v-13
q153 -35 153 -194v-24q0 -242 -333 -242zM1469 512q109 0 109 103v20q0 101 -109 101t-109 -101v-20q0 -103 109 -103zM1469 128q60 0 89 26.5t29 83.5v27q0 111 -118 111q-117 0 -117 -111v-27q0 -56 28.5 -83t88.5 -27z" />
    <glyph glyph-name="arrowleft" unicode="&#x2190;" horiz-adv-x="1163" 
d="M1112 417h-514q-105 0 -179 10l-5 -17q78 -35 153 -81l142 -90v-243l-648 501v55l648 501v-244l-142 -89q-70 -43 -153 -81l5 -18q72 11 179 11h514v-215z" />
    <glyph glyph-name="arrowup" unicode="&#x2191;" horiz-adv-x="1183" 
d="M484 2v513q0 105 10 179l-17 5q-35 -77 -81 -153l-90 -142h-243l501 648h55l501 -648h-244l-90 142q-47 79 -80 153l-18 -5q11 -72 11 -179v-513h-215z" />
    <glyph glyph-name="arrowright" unicode="&#x2192;" horiz-adv-x="1164" 
d="M52 417v215h514q107 0 179 -11l5 18q-87 40 -154 81l-142 89v244l648 -501v-55l-648 -501v243l142 90q72 45 154 81l-5 17q-74 -10 -179 -10h-514z" />
    <glyph glyph-name="arrowdown" unicode="&#x2193;" horiz-adv-x="1183" 
d="M484 1052h215v-514q0 -107 -11 -179l18 -5q31 71 80 153l90 142h244l-501 -647h-55l-501 647h243l90 -142q46 -76 81 -153l17 5q-10 74 -10 179v514z" />
    <glyph glyph-name="arrowboth" unicode="&#x2194;" horiz-adv-x="1750" 
d="M61 552l648 501v-244l-142 -89q-75 -46 -153 -81l5 -18q72 11 179 11h554q107 0 179 -11l5 18q-82 36 -154 81l-141 89v244l647 -501v-55l-647 -501v243l141 90q67 41 154 81l-5 17q-74 -10 -179 -10h-554q-105 0 -179 10l-5 -17q83 -38 153 -81l142 -90v-243l-648 501
v55z" />
    <glyph glyph-name="arrowupdn" unicode="&#x2195;" horiz-adv-x="1183" 
d="M564 -288l-501 647h243l90 -141q52 -88 81 -154l17 5q-10 74 -10 179v554q0 105 10 179l-17 5q-34 -74 -81 -154l-90 -141h-243l501 647h55l501 -647h-244l-90 141q-50 86 -80 154l-18 -5q11 -72 11 -179v-554q0 -107 -11 -179l18 -5q37 81 81 154l89 141h244l-501 -647
h-55z" />
    <glyph glyph-name="uni2196" unicode="&#x2196;" horiz-adv-x="996" 
d="M769 133l-364 363q-75 76 -119 134l-16 -9q31 -81 52 -165l37 -164l-173 -172l-103 812l39 39l812 -104l-172 -172l-164 37q-76 18 -166 52l-9 -16q58 -44 135 -119l363 -364z" />
    <glyph glyph-name="uni2197" unicode="&#x2197;" horiz-adv-x="997" 
d="M228 133l-153 152l364 364q74 74 134 119l-9 16q-87 -34 -166 -52l-163 -37l-173 172l813 104l39 -39l-104 -812l-172 172l36 164q21 84 52 165l-16 9q-49 -64 -119 -134z" />
    <glyph glyph-name="uni2198" unicode="&#x2198;" horiz-adv-x="996" 
d="M228 955l363 -364q70 -69 119 -134l16 9q-32 83 -52 166l-36 164l172 172l104 -812l-39 -40l-813 104l173 172l163 -36q89 -22 166 -52l9 16q-60 45 -134 119l-364 363z" />
    <glyph glyph-name="uni2199" unicode="&#x2199;" horiz-adv-x="997" 
d="M769 955l152 -153l-363 -363q-77 -75 -135 -119l9 -16q80 31 166 52l164 36l172 -172l-812 -104l-39 40l103 812l173 -172l-37 -164q-20 -83 -52 -166l16 -9q45 60 119 134z" />
    <glyph glyph-name="minus" unicode="&#x2212;" horiz-adv-x="850" 
d="M68 605v216h714v-216h-714z" />
    <glyph glyph-name="infinity" unicode="&#x221e;" horiz-adv-x="1611" 
d="M1175 1145q180 0 276.5 -111t96.5 -318v-32q0 -207 -96.5 -318t-276.5 -111q-71 0 -130 18t-103 52.5t-76 74t-61 92.5q-29 -53 -61 -92.5t-76 -74t-102.5 -52.5t-129.5 -18q-180 0 -276.5 111t-96.5 318v32q0 207 97 318t277 111q136 0 222 -62.5t148 -173.5
q29 52 60.5 91.5t75.5 74t102.5 52.5t129.5 18zM1319 686v28q0 100 -44.5 153.5t-126.5 53.5q-45 0 -82 -16t-66 -49t-50 -67.5t-45 -85.5q24 -50 45 -84.5t50 -66.5t66 -48t82 -16q82 0 126.5 51.5t44.5 146.5zM464 479q85 0 138.5 55.5t104.5 162.5q-50 105 -104 160
t-139 55q-82 0 -126.5 -51.5t-44.5 -146.5v-28q0 -100 44.5 -153.5t126.5 -53.5z" />
    <glyph glyph-name="approxequal" unicode="&#x2248;" horiz-adv-x="896" 
d="M626 730q-52 0 -117 27t-120.5 53.5t-83.5 26.5q-65 0 -70 -109h-167q10 316 211 316q52 0 115.5 -27t117.5 -53.5t83 -26.5q61 0 67 101h166q-12 -308 -202 -308zM626 359q-52 0 -117 26.5t-120.5 53.5t-83.5 27q-65 0 -70 -109h-167q11 316 211 316q41 0 90 -16.5
t86 -37t76.5 -37t63.5 -16.5q61 0 67 101h166q-12 -308 -202 -308z" />
    <glyph glyph-name="notequal" unicode="&#x2260;" horiz-adv-x="874" 
d="M806 773h-247l-39 -144h286v-216h-343l-62 -230h-205l62 230h-190v216h247l39 144h-286v215h343l62 230h205l-62 -230h190v-215z" />
    <glyph glyph-name="lessequal" unicode="&#x2264;" horiz-adv-x="875" 
d="M807 490l-739 184v299l739 184v-223l-258 -57q-127 -23 -294 -43v-20q158 -19 294 -45l258 -57v-222zM68 253v205h739v-205h-739z" />
    <glyph glyph-name="greaterequal" unicode="&#x2265;" horiz-adv-x="875" 
d="M68 490v222l258 57q136 26 294 45v20q-167 20 -294 43l-258 57v223l739 -184v-299zM807 253h-739v205h739v-205z" />
    <glyph glyph-name="uni2460" unicode="&#x2460;" horiz-adv-x="1600" 
d="M800 -20q-195 0 -361 96t-262.5 261.5t-96.5 362.5q0 147 57 280.5t153.5 229.5t230 153t279.5 57q196 0 361.5 -96t262 -262t96.5 -362q0 -197 -96.5 -362.5t-262 -261.5t-361.5 -96zM800 60q131 0 249 50.5t204 136t136.5 204t50.5 249.5q0 175 -85.5 322t-233 232.5
t-321.5 85.5t-321 -85.5t-233 -232.5t-86 -322t86 -322.5t233 -232.5t321 -85zM483 281v164h238v405h-220v135q70 2 108 6.5t68.5 13t43.5 28t20.5 44.5t11.5 70h178v-702h186v-164h-634z" />
    <glyph glyph-name="uni2461" unicode="&#x2461;" horiz-adv-x="1600" 
d="M800 -20q-195 0 -361 96t-262.5 261.5t-96.5 362.5q0 147 57 280.5t153.5 229.5t230 153t279.5 57q196 0 361.5 -96t262 -262t96.5 -362q0 -197 -96.5 -362.5t-262 -261.5t-361.5 -96zM800 60q131 0 249 50.5t204 136t136.5 204t50.5 249.5q0 175 -85.5 322t-233 232.5
t-321.5 85.5t-321 -85.5t-233 -232.5t-86 -322t86 -322.5t233 -232.5t321 -85zM495 267v137q201 142 297.5 260t96.5 231q0 98 -86 98q-56 0 -79 -47t-19 -150l-207 20q-8 171 67.5 252t244.5 81q290 0 290 -242q1 -138 -78.5 -250.5t-244.5 -221.5l2 -9q36 4 100 4h221
v-163h-605z" />
    <glyph glyph-name="uni2462" unicode="&#x2462;" horiz-adv-x="1600" 
d="M800 -20q-195 0 -361 96t-262.5 261.5t-96.5 362.5q0 147 57 280.5t153.5 229.5t230 153t279.5 57q196 0 361.5 -96t262 -262t96.5 -362q0 -197 -96.5 -362.5t-262 -261.5t-361.5 -96zM800 60q131 0 249 50.5t204 136t136.5 204t50.5 249.5q0 175 -85.5 322t-233 232.5
t-321.5 85.5t-321 -85.5t-233 -232.5t-86 -322t86 -322.5t233 -232.5t321 -85zM803 251q-327 0 -327 307l212 21q0 -181 119 -181q99 0 99 116v21q0 107 -109 112l-67 3v128l67 2q99 4 99 98v15q0 108 -97 108q-109 0 -106 -165l-205 20q-1 146 78 219.5t236 73.5
q148 0 224 -59.5t76 -173.5v-13q0 -142 -133 -178v-13q154 -34 154 -201v-18q0 -116 -82.5 -179t-237.5 -63z" />
    <glyph glyph-name="uni2463" unicode="&#x2463;" horiz-adv-x="1600" 
d="M800 -20q-195 0 -361 96t-262.5 261.5t-96.5 362.5q0 147 57 280.5t153.5 229.5t230 153t279.5 57q196 0 361.5 -96t262 -262t96.5 -362q0 -197 -96.5 -362.5t-262 -261.5t-361.5 -96zM800 60q131 0 249 50.5t204 136t136.5 204t50.5 249.5q0 175 -85.5 322t-233 232.5
t-321.5 85.5t-321 -85.5t-233 -232.5t-86 -322t86 -322.5t233 -232.5t321 -85zM797 267v155h-364v125l274 586h302v-566h81v-145h-81v-155h-212zM629 567h168v223q0 58 5 158l-15 1q-20 -80 -46 -144z" />
    <glyph glyph-name="uni2464" unicode="&#x2464;" horiz-adv-x="1600" 
d="M800 -20q-195 0 -361 96t-262.5 261.5t-96.5 362.5q0 147 57 280.5t153.5 229.5t230 153t279.5 57q196 0 361.5 -96t262 -262t96.5 -362q0 -197 -96.5 -362.5t-262 -261.5t-361.5 -96zM800 60q131 0 249 50.5t204 136t136.5 204t50.5 249.5q0 175 -85.5 322t-233 232.5
t-321.5 85.5t-321 -85.5t-233 -232.5t-86 -322t86 -322.5t233 -232.5t321 -85zM808 250q-165 0 -247 62t-84 192l212 20q3 -66 30.5 -95.5t81.5 -29.5q56 0 81 32t25 100v31q0 66 -24.5 98t-79.5 32q-46 0 -72.5 -20t-39.5 -64l-205 10l21 514h590v-161h-393l-9 -180
q72 42 165 42q263 0 263 -263v-25q0 -147 -74.5 -221t-240.5 -74z" />
    <glyph glyph-name="uni2465" unicode="&#x2465;" horiz-adv-x="1600" 
d="M800 -20q-195 0 -361 96t-262.5 261.5t-96.5 362.5q0 147 57 280.5t153.5 229.5t230 153t279.5 57q196 0 361.5 -96t262 -262t96.5 -362q0 -197 -96.5 -362.5t-262 -261.5t-361.5 -96zM800 60q131 0 249 50.5t204 136t136.5 204t50.5 249.5q0 175 -85.5 322t-233 232.5
t-321.5 85.5t-321 -85.5t-233 -232.5t-86 -322t86 -322.5t233 -232.5t321 -85zM805 1149q300 0 315 -262l-213 -22q-6 133 -109 133q-122 0 -122 -200v-41q82 62 197 62q124 0 189 -67.5t65 -196.5v-30q0 -133 -83 -203t-241 -70q-174 0 -254 93.5t-80 272.5v124
q0 200 81 303.5t255 103.5zM803 683q-112 0 -112 -119v-32q0 -62 29.5 -94.5t84.5 -32.5q114 0 114 122v32q0 124 -116 124z" />
    <glyph glyph-name="uni2466" unicode="&#x2466;" horiz-adv-x="1600" 
d="M800 -20q-195 0 -361 96t-262.5 261.5t-96.5 362.5q0 147 57 280.5t153.5 229.5t230 153t279.5 57q196 0 361.5 -96t262 -262t96.5 -362q0 -197 -96.5 -362.5t-262 -261.5t-361.5 -96zM800 60q131 0 249 50.5t204 136t136.5 204t50.5 249.5q0 175 -85.5 322t-233 232.5
t-321.5 85.5t-321 -85.5t-233 -232.5t-86 -322t86 -322.5t233 -232.5t321 -85zM671 267q7 241 61 409t160 285h-415v172h642v-137q-113 -128 -168 -302.5t-60 -426.5h-220z" />
    <glyph glyph-name="uni2467" unicode="&#x2467;" horiz-adv-x="1600" 
d="M800 -20q-195 0 -361 96t-262.5 261.5t-96.5 362.5q0 147 57 280.5t153.5 229.5t230 153t279.5 57q196 0 361.5 -96t262 -262t96.5 -362q0 -197 -96.5 -362.5t-262 -261.5t-361.5 -96zM800 60q131 0 249 50.5t204 136t136.5 204t50.5 249.5q0 175 -85.5 322t-233 232.5
t-321.5 85.5t-321 -85.5t-233 -232.5t-86 -322t86 -322.5t233 -232.5t321 -85zM800 251q-333 0 -333 242v24q0 158 153 194v13q-132 39 -132 177v20q0 228 312 228q313 0 313 -228v-20q0 -137 -133 -177v-13q153 -35 153 -194v-24q0 -242 -333 -242zM800 780q109 0 109 103
v20q0 101 -109 101t-109 -101v-20q0 -103 109 -103zM800 396q60 0 89 26.5t29 83.5v27q0 111 -118 111q-117 0 -117 -111v-27q0 -56 28.5 -83t88.5 -27z" />
    <glyph glyph-name="uni2468" unicode="&#x2468;" horiz-adv-x="1600" 
d="M800 -20q-195 0 -361 96t-262.5 261.5t-96.5 362.5q0 147 57 280.5t153.5 229.5t230 153t279.5 57q196 0 361.5 -96t262 -262t96.5 -362q0 -197 -96.5 -362.5t-262 -261.5t-361.5 -96zM800 60q131 0 249 50.5t204 136t136.5 204t50.5 249.5q0 175 -85.5 322t-233 232.5
t-321.5 85.5t-321 -85.5t-233 -232.5t-86 -322t86 -322.5t233 -232.5t321 -85zM795 251q-300 0 -316 263l214 21q6 -133 109 -133q122 0 122 200v41q-84 -62 -197 -62q-124 0 -189 67.5t-65 196.5v31q0 134 82.5 203.5t241.5 69.5q173 0 253 -94t81 -273v-123
q0 -201 -81 -304.5t-255 -103.5zM796 718q112 0 112 118v32q0 62 -29 95t-84 33q-114 0 -114 -123v-31q0 -124 115 -124z" />
    <glyph glyph-name="uni24EA" unicode="&#x24ea;" horiz-adv-x="1600" 
d="M800 -20q-195 0 -361 96t-262.5 261.5t-96.5 362.5q0 147 57 280.5t153.5 229.5t230 153t279.5 57q196 0 361.5 -96t262 -262t96.5 -362q0 -197 -96.5 -362.5t-262 -261.5t-361.5 -96zM800 60q131 0 249 50.5t204 136t136.5 204t50.5 249.5q0 175 -85.5 322t-233 232.5
t-321.5 85.5t-321 -85.5t-233 -232.5t-86 -322t86 -322.5t233 -232.5t321 -85zM800 251q-167 0 -249.5 95.5t-82.5 289.5v127q0 386 332 386q167 0 249 -95.5t82 -290.5v-127q0 -385 -331 -385zM800 408q63 0 90 48.5t27 147.5v193q0 98 -27 146.5t-90 48.5t-90.5 -48.5
t-27.5 -146.5v-193q0 -99 27.5 -147.5t90.5 -48.5z" />
    <glyph glyph-name="uni24FF" unicode="&#x24ff;" horiz-adv-x="1600" 
d="M800 -20q196 0 361.5 96t262 261.5t96.5 362.5q0 196 -96.5 362t-262 262t-361.5 96q-146 0 -279.5 -57t-230 -153t-153.5 -229.5t-57 -280.5q0 -197 96.5 -362.5t262.5 -261.5t361 -96zM800 251q-167 0 -249.5 95.5t-82.5 289.5v127q0 386 332 386q167 0 249 -95.5
t82 -290.5v-127q0 -385 -331 -385zM800 408q63 0 90 48.5t27 147.5v193q0 98 -27 146.5t-90 48.5t-90.5 -48.5t-27.5 -146.5v-193q0 -99 27.5 -147.5t90.5 -48.5z" />
    <glyph glyph-name="filledbox" unicode="&#x25a0;" horiz-adv-x="1236" 
d="M93 0v1050h1050v-1050h-1050z" />
    <glyph glyph-name="uni25A1" unicode="&#x25a1;" horiz-adv-x="1236" 
d="M93 0v1050h1050v-1050h-1050zM173 80h890v890h-890v-890z" />
    <glyph glyph-name="lozenge" unicode="&#x25ca;" horiz-adv-x="1162" 
d="M463 0l-358 700l358 700h237l358 -700l-359 -700h-236zM571 253h21q40 122 87 222l115 225l-115 225q-47 101 -87 222h-21q-46 -132 -88 -222l-115 -225l115 -225q46 -102 88 -222z" />
    <glyph glyph-name="circle" unicode="&#x25cb;" horiz-adv-x="1248" 
d="M624 -20q-111 0 -211.5 43t-173.5 116t-116 174t-43 212t43 212t116 174t173.5 116t211.5 43t211.5 -43t173.5 -116t116 -174t43 -212t-43 -212t-116 -174t-173.5 -116t-211.5 -43zM624 60q193 0 328.5 136t135.5 329t-135.5 329t-328.5 136t-328.5 -136t-135.5 -329
t135.5 -329t328.5 -136z" />
    <glyph glyph-name="uni25CF" unicode="&#x25cf;" horiz-adv-x="1248" 
d="M624 -20q-111 0 -211.5 43t-173.5 116t-116 174t-43 212t43 212t116 174t173.5 116t211.5 43t211.5 -43t173.5 -116t116 -174t43 -212t-43 -212t-116 -174t-173.5 -116t-211.5 -43z" />
    <glyph glyph-name="uni2776" unicode="&#x2776;" horiz-adv-x="1600" 
d="M800 -20q196 0 361.5 96t262 261.5t96.5 362.5q0 196 -96.5 362t-262 262t-361.5 96q-146 0 -279.5 -57t-230 -153t-153.5 -229.5t-57 -280.5q0 -197 96.5 -362.5t262.5 -261.5t361 -96zM483 281v164h238v405h-220v135q70 2 108 6.5t68.5 13t43.5 28t20.5 44.5t11.5 70
h178v-702h186v-164h-634z" />
    <glyph glyph-name="uni2777" unicode="&#x2777;" horiz-adv-x="1600" 
d="M800 -20q196 0 361.5 96t262 261.5t96.5 362.5q0 196 -96.5 362t-262 262t-361.5 96q-146 0 -279.5 -57t-230 -153t-153.5 -229.5t-57 -280.5q0 -197 96.5 -362.5t262.5 -261.5t361 -96zM495 268v137q201 142 297.5 260t96.5 231q0 98 -86 98q-56 0 -79 -47t-18 -150
l-207 20q-8 171 67 252t244 81q291 0 291 -242q0 -138 -79.5 -250.5t-244.5 -221.5l2 -9q37 4 100 4h221v-163h-605z" />
    <glyph glyph-name="uni2778" unicode="&#x2778;" horiz-adv-x="1600" 
d="M800 -20q196 0 361.5 96t262 261.5t96.5 362.5q0 196 -96.5 362t-262 262t-361.5 96q-146 0 -279.5 -57t-230 -153t-153.5 -229.5t-57 -280.5q0 -197 96.5 -362.5t262.5 -261.5t361 -96zM804 251q-327 0 -328 307l212 21q0 -181 120 -181q98 0 98 116v21q0 107 -108 112
l-68 3v128l67 2q99 4 99 98v15q0 108 -96 108q-110 0 -107 -165l-205 20q-1 146 78.5 219.5t236.5 73.5q147 0 223.5 -59.5t76.5 -173.5v-13q0 -142 -133 -178v-13q153 -34 153 -201v-18q0 -116 -82.5 -179t-236.5 -63z" />
    <glyph glyph-name="uni2779" unicode="&#x2779;" horiz-adv-x="1600" 
d="M800 -20q196 0 361.5 96t262 261.5t96.5 362.5q0 196 -96.5 362t-262 262t-361.5 96q-146 0 -279.5 -57t-230 -153t-153.5 -229.5t-57 -280.5q0 -197 96.5 -362.5t262.5 -261.5t361 -96zM797 267v155h-363v125l273 586h302v-566h82v-145h-82v-155h-212zM629 567h168v223
q0 68 6 158l-15 1q-22 -82 -47 -145z" />
    <glyph glyph-name="uni277A" unicode="&#x277a;" horiz-adv-x="1600" 
d="M800 -21q196 0 361.5 96t262 261.5t96.5 362.5q0 196 -96.5 362t-262 262t-361.5 96q-146 0 -279.5 -57t-230 -153t-153.5 -229.5t-57 -280.5q0 -197 96.5 -362.5t262.5 -261.5t361 -96zM808 249q-165 0 -247 62t-84 192l212 21q3 -67 30.5 -96.5t81.5 -29.5
q55 0 80.5 32t25.5 100v31q0 67 -25 99t-80 32q-87 0 -112 -85l-204 10l20 514h591v-160h-393l-9 -180q70 41 165 41q263 0 263 -263v-25q0 -146 -74.5 -220.5t-240.5 -74.5z" />
    <glyph glyph-name="uni277B" unicode="&#x277b;" horiz-adv-x="1600" 
d="M800 -21q196 0 361.5 96t262 261.5t96.5 362.5q0 196 -96.5 362t-262 262t-361.5 96q-146 0 -279.5 -57t-230 -153t-153.5 -229.5t-57 -280.5q0 -197 96.5 -362.5t262.5 -261.5t361 -96zM805 1149q300 0 316 -263l-213 -22q-7 133 -110 133q-122 0 -122 -200v-41
q83 63 197 63q124 0 189 -67.5t65 -197.5v-30q0 -134 -82.5 -203.5t-241.5 -69.5q-173 0 -253 93.5t-80 273.5v123q0 201 81 304.5t254 103.5zM804 682q-112 0 -112 -118v-32q0 -62 29 -95t85 -33q113 0 113 122v32q0 124 -115 124z" />
    <glyph glyph-name="uni277C" unicode="&#x277c;" horiz-adv-x="1600" 
d="M800 -20q196 0 361.5 96t262 261.5t96.5 362.5q0 196 -96.5 362t-262 262t-361.5 96q-146 0 -279.5 -57t-230 -153t-153.5 -229.5t-57 -280.5q0 -197 96.5 -362.5t262.5 -261.5t361 -96zM670 267q8 241 62 409t160 285h-415v172h641v-137q-113 -128 -168 -302.5
t-60 -426.5h-220z" />
    <glyph glyph-name="uni277D" unicode="&#x277d;" horiz-adv-x="1600" 
d="M800 -21q196 0 361.5 96t262 261.5t96.5 362.5q0 196 -96.5 362t-262 262t-361.5 96q-146 0 -279.5 -57t-230 -153t-153.5 -229.5t-57 -280.5q0 -197 96.5 -362.5t262.5 -261.5t361 -96zM800 251q-333 0 -333 241v24q0 158 153 195v13q-132 39 -132 177v19q0 228 312 228
q313 0 313 -228v-19q0 -138 -133 -177v-13q153 -37 153 -195v-24q0 -241 -333 -241zM800 780q109 0 109 102v20q0 101 -109 101t-109 -101v-20q0 -102 109 -102zM800 395q118 0 118 110v27q0 111 -118 111t-118 -111v-27q0 -110 118 -110z" />
    <glyph glyph-name="uni277E" unicode="&#x277e;" horiz-adv-x="1600" 
d="M800 -20q196 0 361.5 96t262 261.5t96.5 362.5q0 196 -96.5 362t-262 262t-361.5 96q-146 0 -279.5 -57t-230 -153t-153.5 -229.5t-57 -280.5q0 -197 96.5 -362.5t262.5 -261.5t361 -96zM795 251q-300 0 -316 262l213 22q7 -133 110 -133q122 0 122 200v41
q-84 -62 -197 -62q-124 0 -189 67.5t-65 196.5v30q0 134 82.5 204t241.5 70q333 0 333 -367v-124q0 -200 -80.5 -303.5t-254.5 -103.5zM796 718q112 0 112 118v32q0 127 -114 127q-113 0 -113 -122v-32q0 -123 115 -123z" />
    <glyph glyph-name="uni2B1B" unicode="&#x2b1b;" horiz-adv-x="1586" 
d="M93 0v1400h1400v-1400h-1400z" />
    <glyph glyph-name="uni2B1C" unicode="&#x2b1c;" horiz-adv-x="1586" 
d="M93 0v1400h1400v-1400h-1400zM173 80h1240v1240h-1240v-1240z" />
    <glyph glyph-name="uni2B24" unicode="&#x2b24;" horiz-adv-x="1600" 
d="M800 -20q196 0 361.5 96t262 261.5t96.5 362.5q0 196 -96.5 362t-262 262t-361.5 96q-146 0 -279.5 -57t-230 -153t-153.5 -229.5t-57 -280.5q0 -197 96.5 -362.5t262.5 -261.5t361 -96z" />
    <glyph glyph-name="uni2BA0" unicode="&#x2ba0;" horiz-adv-x="1180" 
d="M709 -4l-648 501v56l648 501v-244l-142 -90q-72 -44 -153 -80l5 -18q81 11 179 11h314v401h216v-617h-530q-98 0 -179 11l-5 -18q75 -33 153 -80l142 -90v-244z" />
    <glyph glyph-name="uni2BA1" unicode="&#x2ba1;" horiz-adv-x="1180" 
d="M471 -4v244l142 90q78 47 153 80l-5 18q-81 -11 -179 -11h-530v617h216v-401h314q98 0 179 -11l5 18q-81 36 -153 80l-142 90v244l648 -501v-56z" />
    <glyph glyph-name="uni2BA2" unicode="&#x2ba2;" horiz-adv-x="1189" 
d="M709 1059v-245l-142 -89q-75 -46 -153 -81l5 -18q72 11 179 11h530v-617h-216v402h-314q-105 0 -179 10l-5 -17q83 -38 153 -81l142 -90v-243l-648 501v55z" />
    <glyph glyph-name="uni2BA3" unicode="&#x2ba3;" horiz-adv-x="1190" 
d="M480 1059l648 -502v-55l-648 -501v243l142 90q67 41 154 81l-5 17q-74 -10 -179 -10h-315v-402h-216v617h531q107 0 179 -11l5 18q-82 36 -154 81l-142 89v245z" />
    <glyph glyph-name="uni2BA4" unicode="&#x2ba4;" horiz-adv-x="1183" 
d="M63 409l501 648h56l500 -648h-243l-90 142q-41 67 -81 154l-17 -5q11 -81 11 -179v-315h401v-215h-617v530q0 98 11 179l-18 5q-35 -79 -80 -154l-90 -142h-244z" />
    <glyph glyph-name="uni2BA5" unicode="&#x2ba5;" horiz-adv-x="1183" 
d="M1120 409h-244l-90 142q-45 75 -80 154l-18 -5q11 -72 11 -179v-530h-617v215h401v315q0 98 11 179l-17 5q-40 -87 -81 -154l-90 -142h-243l501 648h55z" />
    <glyph glyph-name="uni2BA6" unicode="&#x2ba6;" horiz-adv-x="1183" 
d="M63 641h244l90 -142q47 -78 80 -153l18 5q-11 81 -11 179v530h617v-216h-401v-314q0 -98 -11 -179l17 -5q38 83 81 153l90 142h243l-500 -648h-56z" />
    <glyph glyph-name="uni2BA7" unicode="&#x2ba7;" horiz-adv-x="1183" 
d="M1120 641l-501 -648h-55l-501 648h243l90 -142q43 -70 81 -153l17 5q-11 81 -11 179v314h-401v216h617v-530q0 -107 -11 -179l18 -5q33 75 80 153l90 142h244z" />
    <glyph glyph-name="IJacute" horiz-adv-x="1444" 
d="M140 1490l119 191h256l-172 -191h-203zM1110 1490l118 191h257l-172 -191h-203zM105 1400h266v-1400h-266v1400zM936 -25q-413 0 -420 474l268 37q0 -165 37 -236t120 -71q69 0 102.5 44.5t33.5 139.5v1037h266v-1067q0 -173 -105.5 -265.5t-301.5 -92.5z" />
    <glyph glyph-name="a.ss01" horiz-adv-x="1019" 
d="M378 -16q-155 0 -235 121t-80 358v124q0 237 80 358t235 121q122 0 198 -64.5t119 -192.5l21 8q-47 160 -49 233h259v-1050h-259q2 73 49 233l-21 8q-43 -128 -119 -192.5t-198 -64.5zM486 160q87 0 132.5 78.5t45.5 228.5v116q0 150 -45.5 228.5t-132.5 78.5
q-159 0 -159 -287v-156q0 -287 159 -287z" />
    <glyph glyph-name="aacute.ss01" horiz-adv-x="1019" 
d="M534 1400h254l-202 -260h-196zM378 -16q-155 0 -235 121t-80 358v124q0 237 80 358t235 121q122 0 198 -64.5t119 -192.5l21 8q-47 160 -49 233h259v-1050h-259q2 73 49 233l-21 8q-43 -128 -119 -192.5t-198 -64.5zM486 160q87 0 132.5 78.5t45.5 228.5v116
q0 150 -45.5 228.5t-132.5 78.5q-159 0 -159 -287v-156q0 -287 159 -287z" />
    <glyph glyph-name="abreve.ss01" horiz-adv-x="1019" 
d="M591 1400h175q-5 -134 -71 -197.5t-205 -63.5t-205 63t-71 198h175q4 -63 27 -90t74 -27t74 27t27 90zM378 -16q-155 0 -235 121t-80 358v124q0 237 80 358t235 121q122 0 198 -64.5t119 -192.5l21 8q-47 160 -49 233h259v-1050h-259q2 73 49 233l-21 8
q-43 -128 -119 -192.5t-198 -64.5zM486 160q87 0 132.5 78.5t45.5 228.5v116q0 150 -45.5 228.5t-132.5 78.5q-159 0 -159 -287v-156q0 -287 159 -287z" />
    <glyph glyph-name="acircumflex.ss01" horiz-adv-x="1019" 
d="M182 1140l192 260h232l193 -260h-195l-113 120l-114 -120h-195zM378 -16q-155 0 -235 121t-80 358v124q0 237 80 358t235 121q122 0 198 -64.5t119 -192.5l21 8q-47 160 -49 233h259v-1050h-259q2 73 49 233l-21 8q-43 -128 -119 -192.5t-198 -64.5zM486 160
q87 0 132.5 78.5t45.5 228.5v116q0 150 -45.5 228.5t-132.5 78.5q-159 0 -159 -287v-156q0 -287 159 -287z" />
    <glyph glyph-name="adieresis.ss01" horiz-adv-x="1019" 
d="M190 1168v214h242v-214h-242zM549 1168v214h242v-214h-242zM378 -16q-155 0 -235 121t-80 358v124q0 237 80 358t235 121q122 0 198 -64.5t119 -192.5l21 8q-47 160 -49 233h259v-1050h-259q2 73 49 233l-21 8q-43 -128 -119 -192.5t-198 -64.5zM486 160q87 0 132.5 78.5
t45.5 228.5v116q0 150 -45.5 228.5t-132.5 78.5q-159 0 -159 -287v-156q0 -287 159 -287z" />
    <glyph glyph-name="agrave.ss01" horiz-adv-x="1019" 
d="M446 1400l144 -260h-195l-203 260h254zM378 -16q-155 0 -235 121t-80 358v124q0 237 80 358t235 121q122 0 198 -64.5t119 -192.5l21 8q-47 160 -49 233h259v-1050h-259q2 73 49 233l-21 8q-43 -128 -119 -192.5t-198 -64.5zM486 160q87 0 132.5 78.5t45.5 228.5v116
q0 150 -45.5 228.5t-132.5 78.5q-159 0 -159 -287v-156q0 -287 159 -287z" />
    <glyph glyph-name="amacron.ss01" horiz-adv-x="1019" 
d="M213 1173v163h553v-163h-553zM378 -16q-155 0 -235 121t-80 358v124q0 237 80 358t235 121q122 0 198 -64.5t119 -192.5l21 8q-47 160 -49 233h259v-1050h-259q2 73 49 233l-21 8q-43 -128 -119 -192.5t-198 -64.5zM486 160q87 0 132.5 78.5t45.5 228.5v116
q0 150 -45.5 228.5t-132.5 78.5q-159 0 -159 -287v-156q0 -287 159 -287z" />
    <glyph glyph-name="aogonek.ss01" horiz-adv-x="1019" 
d="M926 0q-67 -22 -103.5 -51.5t-36.5 -61.5q0 -41 58 -41q31 0 70 12l-31 -168q-52 -18 -105 -18q-86 0 -131.5 37.5t-45.5 104.5q0 115 134 186h-68q2 73 49 233l-21 8q-43 -128 -119 -192.5t-198 -64.5q-155 0 -235 121t-80 358v124q0 237 80 358t235 121
q122 0 198 -64.5t119 -192.5l21 8q-47 160 -49 233h259v-1050zM664 467v116q0 150 -45.5 228.5t-132.5 78.5q-159 0 -159 -287v-156q0 -287 159 -287q87 0 132.5 78.5t45.5 228.5z" />
    <glyph glyph-name="aring.ss01" horiz-adv-x="1019" 
d="M490 1134q-104 0 -167.5 60.5t-63.5 158.5t63.5 158.5t167.5 60.5t167.5 -60.5t63.5 -158.5t-63.5 -158.5t-167.5 -60.5zM490 1268q37 0 61 24t24 61t-24 61t-61 24t-61 -24t-24 -61t23.5 -61t61.5 -24zM378 -16q-155 0 -235 121t-80 358v124q0 237 80 358t235 121
q122 0 198 -64.5t119 -192.5l21 8q-47 160 -49 233h259v-1050h-259q2 73 49 233l-21 8q-43 -128 -119 -192.5t-198 -64.5zM486 160q87 0 132.5 78.5t45.5 228.5v116q0 150 -45.5 228.5t-132.5 78.5q-159 0 -159 -287v-156q0 -287 159 -287z" />
    <glyph glyph-name="atilde.ss01" horiz-adv-x="1019" 
d="M638 1172q-48 0 -103.5 23t-99.5 46.5t-64 23.5q-28 0 -41 -20t-16 -67h-141q5 123 46.5 183.5t129.5 60.5q38 0 81 -14.5t73 -32t61 -32t49 -14.5q26 0 38 20t15 67h140q-9 -244 -168 -244zM378 -16q-155 0 -235 121t-80 358v124q0 237 80 358t235 121q122 0 198 -64.5
t119 -192.5l21 8q-47 160 -49 233h259v-1050h-259q2 73 49 233l-21 8q-43 -128 -119 -192.5t-198 -64.5zM486 160q87 0 132.5 78.5t45.5 228.5v116q0 150 -45.5 228.5t-132.5 78.5q-159 0 -159 -287v-156q0 -287 159 -287z" />
    <glyph glyph-name="i.loclTRK" horiz-adv-x="448" 
d="M84 1169v213h279v-213h-279zM93 0v1050h262v-1050h-262z" />
    <glyph glyph-name="ijacute" horiz-adv-x="895" 
d="M187 1400h248l-111 -260h-199zM628 1400h248l-111 -260h-199zM93 0v1050h262v-1050h-262zM361 -374l-31 225l86 7q67 6 96 33t29 89v1070h262v-1010q0 -206 -110.5 -306t-331.5 -108z" />
    <glyph glyph-name="f_f" horiz-adv-x="1211" 
d="M167 0v859h-132v191h132v57q0 138 92.5 205.5t311.5 92.5l28 -197l-69 -6q-66 -5 -89 -26.5t-23 -76.5v-54h297v63q0 159 97 227.5t340 89.5l28 -197l-97 -6q-71 -4 -94 -26.5t-23 -81.5v-64h209v-191h-199v-859h-261v859h-287v-859h-261z" />
    <glyph glyph-name="f_t" horiz-adv-x="1254" 
d="M987 -23q-141 0 -211.5 73t-70.5 223v586h-277v-859h-261v859h-132v191h132v58q0 154 91 225t305 92l28 -197l-71 -6q-59 -5 -80.5 -27t-21.5 -81v-69h287v164l261 78v-237h246v-191h-246v-555q0 -64 26.5 -92t82.5 -28q71 0 141 30l-15 -190q-91 -47 -214 -47z" />
    <glyph glyph-name="t_t" horiz-adv-x="1331" 
d="M450 -23q-278 0 -278 296v586h-137v191h137v206l262 77v-283h348v231l262 78v-309h245v-191h-245v-555q0 -64 26 -92t82 -28q71 0 141 30l-15 -190q-91 -47 -214 -47q-141 0 -211.5 73t-70.5 223v586h-348v-555q0 -120 104 -120q63 0 122 25l-15 -192q-82 -40 -195 -40z
" />
    <glyph glyph-name="f.calt" horiz-adv-x="618" 
d="M167 0v859h-132v191h132v58q0 159 97 227.5t340 89.5l28 -197l-97 -6q-71 -4 -94 -26t-23 -82v-64h162v-191h-152v-859h-261z" />
    <glyph glyph-name="t.calt" horiz-adv-x="658" 
d="M455 -23q-142 0 -212.5 73t-70.5 223v586h-137v191h137v231l262 78v-309h187v-191h-187v-555q0 -64 26.5 -92t82.5 -28q70 0 141 30l-16 -190q-89 -47 -213 -47z" />
    <glyph glyph-name="tbar.calt" horiz-adv-x="658" 
d="M543 184q70 0 141 30l-16 -190q-89 -47 -213 -47q-142 0 -212.5 73t-70.5 223v217h-137v170h137v199h-137v191h137v231l262 78v-309h187v-191h-187v-199h202v-170h-202v-186q0 -64 26.5 -92t82.5 -28z" />
    <glyph glyph-name="tcaron.calt" horiz-adv-x="658" 
d="M492 1400h206v-121q0 -91 -43 -130.5t-150 -44.5l-13 70q56 2 76 19.5t20 60.5h-96v146zM455 -23q-142 0 -212.5 73t-70.5 223v586h-137v191h137v231l262 78v-309h187v-191h-187v-555q0 -64 26.5 -92t82.5 -28q70 0 141 30l-16 -190q-89 -47 -213 -47z" />
    <glyph glyph-name="uni0163.calt" horiz-adv-x="658" 
d="M668 24q-71 -37 -168 -45l-7 -55q162 -24 162 -145q0 -72 -52 -112.5t-144 -40.5q-84 0 -168 42l23 128q62 -39 130 -39q34 0 53 13t19 36q0 60 -179 65l17 117q-182 47 -182 285v586h-137v191h137v231l262 78v-309h187v-191h-187v-555q0 -64 26.5 -92t82.5 -28
q70 0 141 30z" />
    <glyph glyph-name="uni021B.calt" horiz-adv-x="658" 
d="M455 -23q-142 0 -212.5 73t-70.5 223v586h-137v191h137v231l262 78v-309h187v-191h-187v-555q0 -64 26.5 -92t82.5 -28q70 0 141 30l-16 -190q-89 -47 -213 -47zM316 -88h229v-121q0 -97 -45 -134.5t-171 -42.5l-13 70q62 3 85 20.5t23 61.5h-108v146z" />
    <glyph glyph-name="zero.slashed" horiz-adv-x="1144" 
d="M573 1425q250 0 376 -169.5t126 -502.5v-107q0 -333 -126 -502t-376 -169t-376.5 169t-126.5 502v107q0 333 126.5 502.5t376.5 169.5zM573 1216q-118 0 -175 -100.5t-57 -307.5v-145l458 256q-28 297 -226 297zM573 184q117 0 174 100.5t57 307.5v146l-458 -256
q13 -151 69.5 -224.5t157.5 -73.5z" />
    <glyph glyph-name="zero.tf.slashed" horiz-adv-x="1039" 
d="M520 1423q232 0 344.5 -150.5t112.5 -460.5v-225q0 -309 -112.5 -460t-344.5 -151q-231 0 -344 151t-113 460v225q0 310 113 460.5t344 150.5zM520 1238q-113 0 -164.5 -91t-51.5 -291v-184l430 239q-7 170 -58.5 248.5t-155.5 78.5zM520 162q112 0 163.5 91t51.5 291
v185l-430 -239q7 -171 58.5 -249.5t156.5 -78.5z" />
    <glyph glyph-name="zero.tf" horiz-adv-x="1039" 
d="M520 -24q-231 0 -344 151t-113 460v225q0 310 113 460.5t344 150.5q232 0 344.5 -150.5t112.5 -460.5v-225q0 -309 -112.5 -460t-344.5 -151zM520 162q112 0 163.5 91t51.5 291v312q0 200 -51.5 291t-163.5 91q-113 0 -164.5 -91t-51.5 -291v-312q0 -200 51.5 -291
t164.5 -91z" />
    <glyph glyph-name="one.tf" horiz-adv-x="1039" 
d="M77 0v192h358v779h-332v155q89 3 138 6.5t95.5 15.5t66.5 27t37.5 48t23 72t9.5 105h200v-1208h303v-192h-899z" />
    <glyph glyph-name="two.tf" horiz-adv-x="1039" 
d="M105 0v159q294 245 438 460.5t144 426.5q0 99 -39 146t-118 47q-101 0 -144.5 -83t-39.5 -287l-232 33q-4 275 98.5 398t321.5 123q389 0 389 -369q0 -232 -123.5 -439.5t-376.5 -414.5l3 -12q62 5 153 5h353v-193h-827z" />
    <glyph glyph-name="three.tf" horiz-adv-x="1039" 
d="M541 -23q-234 0 -349 115.5t-122 378.5l243 36q2 -189 56 -270t171 -81q186 0 186 212v77q0 191 -197 199l-120 4v159l117 4q180 6 180 177v65q0 193 -178 193q-105 0 -154 -77.5t-50 -252.5l-234 33q3 250 112 362t332 112q404 0 404 -360v-42q0 -223 -207 -279v-18
q240 -56 240 -311v-50q0 -386 -430 -386z" />
    <glyph glyph-name="four.tf" horiz-adv-x="1039" 
d="M598 0v295h-547v139l436 966h348v-938h139v-167h-139v-295h-237zM285 462h313v444q0 112 6 255l-23 1q-33 -131 -79 -239z" />
    <glyph glyph-name="five.tf" horiz-adv-x="1039" 
d="M528 -23q-224 0 -335 95.5t-121 303.5l238 36q5 -131 58.5 -192t159.5 -61q99 0 147.5 59.5t48.5 187.5v90q0 126 -48 184.5t-149 58.5q-158 0 -216 -157l-219 14l32 804h796v-195h-568l-20 -380q101 87 265 87q180 0 275 -100t95 -295v-116q0 -424 -439 -424z" />
    <glyph glyph-name="six.tf" horiz-adv-x="1039" 
d="M530 1424q200 0 311 -102t121 -312l-240 -39q-7 267 -199 267q-107 0 -163 -95t-56 -285v-87q104 106 294 106q366 0 366 -408v-66q0 -426 -441 -426q-455 0 -455 543v267q0 637 462 637zM521 706q-104 0 -153 -54.5t-49 -174.5v-66q0 -248 207 -248q101 0 150 57t49 183
v65q0 126 -49.5 182t-154.5 56z" />
    <glyph glyph-name="seven.tf" horiz-adv-x="1039" 
d="M361 0q11 784 339 1195h-624v206h888v-164q-346 -432 -346 -1237h-257z" />
    <glyph glyph-name="eight.tf" horiz-adv-x="1039" 
d="M520 -23q-465 0 -465 374v49q0 262 240 323v18q-207 68 -207 287v43q0 352 432 352q431 0 431 -352v-43q0 -219 -207 -287v-18q240 -60 240 -323v-49q0 -185 -116.5 -279.5t-347.5 -94.5zM520 810q200 0 200 193v54q0 98 -49.5 145.5t-150.5 47.5t-150.5 -47.5
t-49.5 -145.5v-54q0 -193 200 -193zM520 150q111 0 165 52.5t54 159.5v67q0 107 -54 159.5t-165 52.5q-220 0 -220 -212v-67q0 -212 220 -212z" />
    <glyph glyph-name="nine.tf" horiz-adv-x="1039" 
d="M510 -24q-200 0 -311.5 102t-121.5 312l240 39q7 -267 199 -267q219 0 219 380v87q-104 -106 -294 -106q-365 0 -365 408v66q0 426 440 426q455 0 455 -543v-267q0 -637 -461 -637zM518 694q104 0 153.5 54.5t49.5 174.5v66q0 248 -207 248q-102 0 -150.5 -57t-48.5 -183
v-65q0 -126 49.5 -182t153.5 -56z" />
    <glyph glyph-name="zero.dnom" horiz-adv-x="747" 
d="M374 -17q-167 0 -249.5 95.5t-82.5 289.5v127q0 386 332 386q167 0 249 -95.5t82 -290.5v-127q0 -385 -331 -385zM374 140q63 0 90 48.5t27 147.5v193q0 98 -27 146.5t-90 48.5t-90.5 -48.5t-27.5 -146.5v-193q0 -99 27.5 -147.5t90.5 -48.5z" />
    <glyph glyph-name="one.dnom" horiz-adv-x="747" 
d="M56 0v164h238v405h-220v135q70 2 108 6.5t68.5 13t43.5 28t20.5 44.5t11.5 70h178v-702h186v-164h-634z" />
    <glyph glyph-name="two.dnom" horiz-adv-x="747" 
d="M69 0v137q201 142 297.5 260t96.5 231q0 98 -86 98q-56 0 -79 -47t-19 -150l-207 20q-8 171 67.5 252t244.5 81q290 0 290 -242q1 -138 -78.5 -250.5t-244.5 -221.5l2 -9q36 4 100 4h221v-163h-605z" />
    <glyph glyph-name="three.dnom" horiz-adv-x="747" 
d="M377 -17q-327 0 -327 307l212 21q0 -181 119 -181q99 0 99 116v21q0 107 -109 112l-67 3v128l67 2q99 4 99 98v15q0 108 -97 108q-109 0 -106 -165l-205 20q-1 146 78 219.5t236 73.5q148 0 224 -59.5t76 -173.5v-13q0 -142 -133 -178v-13q154 -34 154 -201v-18
q0 -116 -82.5 -179t-237.5 -63z" />
    <glyph glyph-name="four.dnom" horiz-adv-x="747" 
d="M395 0v155h-364v125l274 586h302v-566h81v-145h-81v-155h-212zM227 300h168v223q0 58 5 158l-15 1q-20 -80 -46 -144z" />
    <glyph glyph-name="five.dnom" horiz-adv-x="747" 
d="M382 -17q-165 0 -247 62t-84 192l212 20q3 -66 30.5 -95.5t81.5 -29.5q56 0 81 32t25 100v31q0 66 -24.5 98t-79.5 32q-46 0 -72.5 -20t-39.5 -64l-205 10l21 514h590v-161h-393l-9 -180q72 42 165 42q263 0 263 -263v-25q0 -147 -74.5 -221t-240.5 -74z" />
    <glyph glyph-name="six.dnom" horiz-adv-x="747" 
d="M379 886q300 0 316 -263l-214 -21q-6 133 -109 133q-122 0 -122 -200v-41q84 62 197 62q124 0 189 -67.5t65 -196.5v-31q0 -134 -82.5 -203.5t-241.5 -69.5q-173 0 -253 94t-81 273v123q0 201 81 304.5t255 103.5zM378 419q-112 0 -112 -118v-32q0 -62 29 -95t84 -33
q114 0 114 123v31q0 124 -115 124z" />
    <glyph glyph-name="seven.dnom" horiz-adv-x="747" 
d="M246 0q7 241 61 409t160 285h-415v172h642v-137q-113 -128 -168 -302.5t-60 -426.5h-220z" />
    <glyph glyph-name="eight.dnom" horiz-adv-x="747" 
d="M373 -17q-333 0 -333 242v24q0 158 153 194v13q-132 39 -132 177v20q0 228 312 228q313 0 313 -228v-20q0 -137 -133 -177v-13q153 -35 153 -194v-24q0 -242 -333 -242zM373 512q109 0 109 103v20q0 101 -109 101t-109 -101v-20q0 -103 109 -103zM373 128q60 0 89 26.5
t29 83.5v27q0 111 -118 111q-117 0 -117 -111v-27q0 -56 28.5 -83t88.5 -27z" />
    <glyph glyph-name="nine.dnom" horiz-adv-x="747" 
d="M368 -17q-300 0 -316 263l214 21q6 -133 109 -133q122 0 122 200v41q-84 -62 -197 -62q-124 0 -189 67.5t-65 196.5v31q0 134 82.5 203.5t241.5 69.5q173 0 253 -94t81 -273v-123q0 -201 -81 -304.5t-255 -103.5zM369 450q112 0 112 118v32q0 62 -29 95t-84 33
q-114 0 -114 -123v-31q0 -124 115 -124z" />
    <glyph glyph-name="zero.numr" horiz-adv-x="747" 
d="M374 517q-167 0 -249.5 95.5t-82.5 289.5v127q0 386 332 386q167 0 249 -95.5t82 -290.5v-127q0 -385 -331 -385zM374 674q63 0 90 48.5t27 147.5v193q0 98 -27 146.5t-90 48.5t-90.5 -48.5t-27.5 -146.5v-193q0 -99 27.5 -147.5t90.5 -48.5z" />
    <glyph glyph-name="one.numr" horiz-adv-x="747" 
d="M56 534v164h238v405h-220v135q70 2 108 6.5t68.5 13t43.5 28t20.5 44.5t11.5 70h178v-702h186v-164h-634z" />
    <glyph glyph-name="two.numr" horiz-adv-x="747" 
d="M69 534v137q201 142 297.5 260t96.5 231q0 98 -86 98q-56 0 -79 -47t-19 -150l-207 20q-8 171 67.5 252t244.5 81q290 0 290 -242q1 -138 -78.5 -250.5t-244.5 -221.5l2 -9q36 4 100 4h221v-163h-605z" />
    <glyph glyph-name="three.numr" horiz-adv-x="747" 
d="M377 517q-327 0 -327 307l212 21q0 -181 119 -181q99 0 99 116v21q0 107 -109 112l-67 3v128l67 2q99 4 99 98v15q0 108 -97 108q-109 0 -106 -165l-205 20q-1 146 78 219.5t236 73.5q148 0 224 -59.5t76 -173.5v-13q0 -142 -133 -178v-13q154 -34 154 -201v-18
q0 -116 -82.5 -179t-237.5 -63z" />
    <glyph glyph-name="four.numr" horiz-adv-x="747" 
d="M395 534v155h-364v125l274 586h302v-566h81v-145h-81v-155h-212zM227 834h168v223q0 58 5 158l-15 1q-20 -80 -46 -144z" />
    <glyph glyph-name="five.numr" horiz-adv-x="747" 
d="M382 517q-165 0 -247 62t-84 192l212 20q3 -66 30.5 -95.5t81.5 -29.5q56 0 81 32t25 100v31q0 66 -24.5 98t-79.5 32q-46 0 -72.5 -20t-39.5 -64l-205 10l21 514h590v-161h-393l-9 -180q72 42 165 42q263 0 263 -263v-25q0 -147 -74.5 -221t-240.5 -74z" />
    <glyph glyph-name="six.numr" horiz-adv-x="747" 
d="M379 1420q300 0 316 -263l-214 -21q-6 133 -109 133q-122 0 -122 -200v-41q84 62 197 62q124 0 189 -67.5t65 -196.5v-31q0 -134 -82.5 -203.5t-241.5 -69.5q-173 0 -253 94t-81 273v123q0 201 81 304.5t255 103.5zM378 953q-112 0 -112 -118v-32q0 -62 29 -95t84 -33
q114 0 114 123v31q0 124 -115 124z" />
    <glyph glyph-name="seven.numr" horiz-adv-x="747" 
d="M246 534q7 241 61 409t160 285h-415v172h642v-137q-113 -128 -168 -302.5t-60 -426.5h-220z" />
    <glyph glyph-name="eight.numr" horiz-adv-x="747" 
d="M373 517q-333 0 -333 242v24q0 158 153 194v13q-132 39 -132 177v20q0 228 312 228q313 0 313 -228v-20q0 -137 -133 -177v-13q153 -35 153 -194v-24q0 -242 -333 -242zM373 1046q109 0 109 103v20q0 101 -109 101t-109 -101v-20q0 -103 109 -103zM373 662q60 0 89 26.5
t29 83.5v27q0 111 -118 111q-117 0 -117 -111v-27q0 -56 28.5 -83t88.5 -27z" />
    <glyph glyph-name="nine.numr" horiz-adv-x="747" 
d="M368 517q-300 0 -316 263l214 21q6 -133 109 -133q122 0 122 200v41q-84 -62 -197 -62q-124 0 -189 67.5t-65 196.5v31q0 134 82.5 203.5t241.5 69.5q173 0 253 -94t81 -273v-123q0 -201 -81 -304.5t-255 -103.5zM369 984q112 0 112 118v32q0 62 -29 95t-84 33
q-114 0 -114 -123v-31q0 -124 115 -124z" />
    <glyph glyph-name="colon.case" horiz-adv-x="455" 
d="M72 1225h311v-278h-311v278zM72 454h311v-279h-311v279z" />
    <glyph glyph-name="semicolon.case" horiz-adv-x="456" 
d="M73 1225h311v-278h-311v278zM73 453h311v-227q0 -173 -72 -254.5t-232 -95.5l-26 118q92 14 131.5 54.5t39.5 126.5h-152v278z" />
    <glyph glyph-name="bullet.case" horiz-adv-x="760" 
d="M216 536v328h328v-328h-328z" />
    <glyph glyph-name="parenleft.case" horiz-adv-x="609" 
d="M593 1450q-261 -331 -261 -746q0 -423 261 -754h-261q-262 330 -262 754q0 416 262 746h261z" />
    <glyph glyph-name="parenright.case" horiz-adv-x="609" 
d="M16 1450h262q261 -331 261 -746q0 -423 -261 -754h-262q262 332 262 754q0 414 -262 746z" />
    <glyph glyph-name="braceleft.case" horiz-adv-x="619" 
d="M597 1234h-66q-114 0 -114 -115v-218q0 -158 -128 -191v-20q128 -33 128 -191v-218q0 -115 114 -115h66v-216h-169q-273 0 -273 274v218q0 132 -125 156v204q125 24 125 156v218q0 274 271 274h171v-216z" />
    <glyph glyph-name="braceright.case" horiz-adv-x="619" 
d="M22 1234v216h171q271 0 271 -274v-218q0 -132 125 -156v-204q-125 -24 -125 -156v-218q0 -274 -273 -274h-169v216h66q114 0 114 115v218q0 158 128 191v20q-128 33 -128 191v218q0 115 -114 115h-66z" />
    <glyph glyph-name="bracketleft.case" horiz-adv-x="595" 
d="M573 1234h-207v-1068h207v-216h-468v1500h468v-216z" />
    <glyph glyph-name="bracketright.case" horiz-adv-x="595" 
d="M22 1234v216h468v-1500h-468v216h207v1068h-207z" />
    <glyph glyph-name="hyphen.case" horiz-adv-x="642" 
d="M68 803h529v-206h-529v206z" />
    <glyph glyph-name="endash.case" horiz-adv-x="992" 
d="M68 790h856v-180h-856v180z" />
    <glyph glyph-name="emdash.case" horiz-adv-x="1434" 
d="M68 790h1299v-180h-1299v180z" />
    <glyph glyph-name="guillemotleft.case" horiz-adv-x="1005" 
d="M344 275l-281 425l281 425h227l-273 -425l273 -425h-227zM715 275l-280 425l281 425h226l-273 -425l273 -425h-227z" />
    <glyph glyph-name="guillemotright.case" horiz-adv-x="1006" 
d="M290 275h-227l273 425l-273 425h227l281 -425zM662 275h-227l273 425l-273 425h226l281 -425z" />
    <glyph glyph-name="guilsinglleft.case" horiz-adv-x="634" 
d="M344 275l-281 425l281 425h227l-273 -425l273 -425h-227z" />
    <glyph glyph-name="guilsinglright.case" horiz-adv-x="634" 
d="M290 275h-227l273 425l-273 425h227l281 -425z" />
    <glyph glyph-name="exclamdown.case" horiz-adv-x="474" 
d="M392 1122h-310v278h310v-278zM382 0h-291l33 1009h225z" />
    <glyph glyph-name="questiondown.case" horiz-adv-x="938" 
d="M637 1122h-311v278h311v-278zM614 1009q29 -60 33.5 -116t-15.5 -102.5t-46 -82t-65 -72.5l-92 -86q-68 -63 -95.5 -115t-27.5 -108q0 -154 145 -154q102 0 143 69.5t27 215.5l270 -34q14 -220 -99 -334t-343 -114q-197 0 -300.5 88.5t-103.5 267.5q0 106 36.5 180
t115.5 151l98 95q74 72 88.5 129t-30.5 110l4 12h257z" />
    <glyph glyph-name="period.tf" horiz-adv-x="520" 
d="M105 278h311v-278h-311v278z" />
    <glyph glyph-name="comma.tf" horiz-adv-x="520" 
d="M104 278h311v-227q0 -173 -72 -254.5t-232 -95.5l-26 118q92 14 131.5 54.5t39.5 126.5h-152v278z" />
    <glyph glyph-name="colon.case.tf" horiz-adv-x="520" 
d="M105 1225h311v-278h-311v278zM105 454h311v-279h-311v279z" />
    <glyph glyph-name="semicolon.case.tf" horiz-adv-x="520" 
d="M104 1225h311v-278h-311v278zM104 454h311v-228q0 -173 -72.5 -254t-231.5 -95l-26 117q92 15 131.5 55t39.5 126h-152v279z" />
    <glyph glyph-name="at.case" horiz-adv-x="1791" 
d="M896 -171q-394 0 -610 211t-216 591v142q0 382 216 592.5t607 210.5q380 0 590.5 -210.5t210.5 -592.5v-130q0 -233 -94 -356.5t-278 -122.5q-133 0 -196.5 64t-56.5 188l-20 3q-66 -255 -324 -255q-123 0 -191.5 68t-68.5 191v12q0 65 20 118t51.5 89t80 64.5t95.5 46
t108 33.5l184 49v99q0 74 -30 109t-95 35q-76 0 -109.5 -52.5t-26.5 -165.5v-16l-259 24v15q-9 179 94.5 277t305.5 98q188 0 285 -81t97 -240v-497q0 -104 74 -104q65 0 100 77t35 224v133q0 299 -152 460.5t-430 161.5q-290 0 -447 -161t-157 -458v-142q0 -295 158.5 -455
t452.5 -160q240 0 471 81l45 -179q-107 -41 -245 -65t-275 -24zM823 353q81 0 132 64.5t51 168.5v83l-103 -31q-84 -25 -130 -66t-46 -108v-10q0 -101 96 -101z" />
    <glyph glyph-name="copyright.case" horiz-adv-x="1812" 
d="M906 -178q-396 0 -616 221t-220 617v78q0 397 220 618.5t616 221.5t616 -221.5t220 -618.5v-78q0 -396 -220 -617t-616 -221zM906 0q290 0 452.5 174.5t162.5 485.5v78q0 312 -162.5 487t-452.5 175t-452.5 -175t-162.5 -487v-78q0 -311 162.5 -485.5t452.5 -174.5z
M903 150q-431 0 -431 518v73q0 252 109 380t324 128q397 0 416 -413l-262 -28q-4 136 -42 198t-112 62q-164 0 -164 -283v-162q0 -291 166 -291q148 0 157 233v15l268 -30q-30 -400 -429 -400z" />
    <glyph glyph-name="whiteLargeCircle" horiz-adv-x="1600" 
d="M800 -20q-195 0 -361 96t-262.5 261.5t-96.5 362.5q0 147 57 280.5t153.5 229.5t230 153t279.5 57q196 0 361.5 -96t262 -262t96.5 -362q0 -197 -96.5 -362.5t-262 -261.5t-361.5 -96zM800 60q131 0 249 50.5t204 136t136.5 204t50.5 249.5q0 175 -85.5 322t-233 232.5
t-321.5 85.5t-321 -85.5t-233 -232.5t-86 -322t86 -322.5t233 -232.5t321 -85z" />
    <glyph glyph-name="arrowup.ss04" horiz-adv-x="1000" 
d="M392 25v429h-319l-10 20l427 598h20l428 -598l-10 -20h-320v-429h-216z" />
    <glyph glyph-name="uni2197.ss04" horiz-adv-x="1005" 
d="M68 287l304 303l-226 227l7 21l725 120l14 -14l-120 -725l-21 -7l-227 226l-303 -304z" />
    <glyph glyph-name="arrowright.ss04" horiz-adv-x="1172" 
d="M63 629h429v320l20 10l597 -428v-20l-597 -427l-20 10v319h-429v216z" />
    <glyph glyph-name="uni2198.ss04" horiz-adv-x="1005" 
d="M221 965l304 -304l226 226l21 -7l120 -725l-14 -14l-725 120l-7 22l226 226l-303 303z" />
    <glyph glyph-name="arrowdown.ss04" horiz-adv-x="1000" 
d="M608 1055v-429h320l10 -20l-428 -598h-20l-427 598l10 20h319v429h216z" />
    <glyph glyph-name="uni2199.ss04" horiz-adv-x="1006" 
d="M784 965l153 -153l-304 -303l226 -226l-7 -22l-725 -120l-14 14l120 725l22 7l226 -226z" />
    <glyph glyph-name="arrowleft.ss04" horiz-adv-x="1172" 
d="M1109 629v-216h-429v-319l-20 -10l-597 427v20l597 428l20 -10v-320h429z" />
    <glyph glyph-name="uni2196.ss04" horiz-adv-x="1005" 
d="M937 287l-153 -153l-303 304l-227 -226l-21 7l-120 725l14 14l725 -120l7 -21l-226 -227z" />
    <glyph glyph-name="arrowboth.ss04" horiz-adv-x="1752" 
d="M1689 511l-597 -427l-20 10v319h-392v-319l-20 -10l-597 427v20l597 428l20 -10v-320h392v320l20 10l597 -428v-20z" />
    <glyph glyph-name="arrowupdn.ss04" horiz-adv-x="1000" 
d="M490 -288l-427 597l10 20h319v392h-319l-10 20l427 597h20l428 -597l-10 -20h-320v-392h320l10 -20l-428 -597h-20z" />
    <glyph glyph-name="uni2BA0.ss04" horiz-adv-x="1203" 
d="M660 88l-597 428v20l597 427l20 -10v-320h245v402h215v-617h-460v-320z" />
    <glyph glyph-name="uni2BA1.ss04" horiz-adv-x="1203" 
d="M543 88l-20 10v320h-460v617h215v-402h245v320l20 10l597 -427v-20z" />
    <glyph glyph-name="uni2BA6.ss04" horiz-adv-x="1072" 
d="M63 588l10 20h319v460h617v-216h-401v-244h320l10 -20l-428 -598h-20z" />
    <glyph glyph-name="uni2BA4.ss04" horiz-adv-x="1072" 
d="M63 507l427 598h20l428 -598l-10 -20h-320v-244h401v-216h-617v460h-319z" />
    <glyph glyph-name="uni2BA7.ss04" horiz-adv-x="1072" 
d="M1009 588l-427 -598h-20l-428 598l10 20h320v244h-401v216h617v-460h319z" />
    <glyph glyph-name="uni2BA5.ss04" horiz-adv-x="1072" 
d="M1009 507l-10 -20h-319v-460h-617v216h401v244h-320l-10 20l428 598h20z" />
    <glyph glyph-name="uni2BA2.ss04" horiz-adv-x="1203" 
d="M660 959l20 -10v-320h460v-617h-215v401h-245v-319l-20 -10l-597 427v20z" />
    <glyph glyph-name="uni2BA3.ss04" horiz-adv-x="1203" 
d="M543 959l597 -428v-20l-597 -427l-20 10v319h-245v-401h-215v617h460v320z" />
    <glyph glyph-name="uni0328.ae" 
d="M-178 16l177 -6q-74 -33 -107 -61.5t-33 -60.5q0 -42 60 -42q31 0 69 12l-30 -168q-54 -18 -105 -18q-87 0 -132.5 37.5t-45.5 104.5q0 119 147 202z" />
    <glyph glyph-name="uni030C.L.case" 
d="M-216 1400h216v-170q0 -103 -47 -149.5t-156 -52.5l-13 80q52 3 74 25t22 71h-96v196z" />
    <glyph glyph-name="uni0308.case" 
d="M-601 1500v214h242v-214h-242zM-242 1500v214h242v-214h-242z" />
    <glyph glyph-name="uni0307.case" 
d="M-279 1500v214h279v-214h-279z" />
    <glyph glyph-name="gravecomb.case" 
d="M0 1490h-203l-172 191h257z" />
    <glyph glyph-name="acutecomb.case" 
d="M-375 1490l118 191h257l-172 -191h-203z" />
    <glyph glyph-name="uni030B.case" 
d="M-706 1490l118 191h257l-172 -191h-203zM-374 1490l118 191h256l-172 -191h-202z" />
    <glyph glyph-name="uni0302.case" 
d="M-628 1490l196 191h237l195 -191h-204l-110 85l-109 -85h-205z" />
    <glyph glyph-name="uni030C.case" 
d="M-628 1681h205l109 -85l110 85h204l-195 -191h-237z" />
    <glyph glyph-name="uni0306.case" 
d="M-175 1681h175q-5 -109 -73.5 -152.5t-211.5 -43.5t-211.5 43.5t-73.5 152.5h175q3 -73 110 -73q106 0 110 73z" />
    <glyph glyph-name="uni030A.case" 
d="M-229 1462q-108 0 -168.5 46t-60.5 128t60.5 128t168.5 46t168.5 -46t60.5 -128t-60.5 -128t-168.5 -46zM-229 1572q38 0 59 17t21 47t-21 47.5t-59 17.5t-59 -17.5t-21 -47.5t21 -47t59 -17z" />
    <glyph glyph-name="tildecomb.case" 
d="M-179 1486q-48 0 -102 22t-97 43.5t-63 21.5q-28 0 -41 -19t-16 -62h-136q4 110 52 166.5t135 56.5q49 0 101.5 -21.5t94 -43.5t62.5 -22q26 0 38 19t15 62h136q-4 -109 -51 -166t-128 -57z" />
    <glyph glyph-name="uni0304.case" 
d="M-553 1483v163h553v-163h-553z" />
    <glyph glyph-name="uni0326.case" 
d="M-206 1400h206v-121q0 -91 -43 -130.5t-150 -44.5l-13 70q56 2 76 19.5t20 60.5h-96v146z" />
    <glyph glyph-name="uni0302.narrow.case" 
d="M-443 1490l110 190h210l110 -190h-150l-65 87l-66 -87h-149z" />
    <glyph glyph-name="uni0308.narrow" 
d="M-427 1168v217h183v-217h-183zM-182 1168v217h182v-217h-182z" />
    <glyph glyph-name="gravecomb.narrow" 
d="M-63 1400l63 -260h-199l-111 260h247z" />
    <glyph glyph-name="acutecomb.narrow" 
d="M-248 1400h248l-111 -260h-199z" />
    <glyph glyph-name="uni0302.narrow" 
d="M-430 1130l110 270h210l110 -270h-150l-65 127l-65 -127h-150z" />
    <glyph glyph-name="uni030C.narrow" 
d="M0 1400l-110 -270h-210l-110 270h150l65 -127l65 127h150z" />
    <glyph glyph-name="tildecomb.narrow" 
d="M-111 1149q-32 0 -81 28.5t-61 28.5q-31 0 -29 -51h-94q-10 103 17.5 157t90.5 54q31 0 80.5 -28.5t63.5 -28.5q30 0 28 51h94q15 -211 -109 -211z" />
    <glyph glyph-name="uni0304.narrow" 
d="M-389 1185v151h389v-151h-389z" />
    </font>
</defs>
</svg>
